solid enclosure-rib004
facet normal -1.0 0.0 0.0
  outer loop
    vertex 0.0 157.99999999999997 93.99999999999999
    vertex 0.0 162.15000000000003 88.35
    vertex 0.0 157.99999999999997 85.0
  endloop
endfacet
facet normal -1.0 0.0 0.0
  outer loop
    vertex 0.0 162.15000000000003 88.35
    vertex 0.0 157.99999999999997 93.99999999999999
    vertex 0.0 174.0 93.99999999999999
  endloop
endfacet
facet normal -1.0 0.0 0.0
  outer loop
    vertex 0.0 162.15000000000003 88.35
    vertex 0.0 174.0 93.99999999999999
    vertex 0.0 165.85 88.35
  endloop
endfacet
facet normal -1.0 0.0 0.0
  outer loop
    vertex 0.0 165.85 88.35
    vertex 0.0 174.0 93.99999999999999
    vertex 0.0 165.85 85.0
  endloop
endfacet
facet normal -1.0 0.0 0.0
  outer loop
    vertex 0.0 165.85 85.0
    vertex 0.0 174.0 93.99999999999999
    vertex 0.0 171.75506222734967 89.50008479657907
  endloop
endfacet
facet normal -1.0 0.0 0.0
  outer loop
    vertex 0.0 165.85 85.0
    vertex 0.0 171.75506222734967 89.50008479657907
    vertex 0.0 171.44330611236177 88.86793799600737
  endloop
endfacet
facet normal -1.0 0.0 0.0
  outer loop
    vertex 0.0 165.85 85.0
    vertex 0.0 171.44330611236177 88.86793799600737
    vertex 0.0 171.30578446068 88.17664265534313
  endloop
endfacet
facet normal -1.0 0.0 0.0
  outer loop
    vertex 0.0 165.85 85.0
    vertex 0.0 171.30578446068 88.17664265534313
    vertex 0.0 171.0 85.0
  endloop
endfacet
facet normal -1.0 0.0 0.0
  outer loop
    vertex 0.0 171.75506222734967 89.50008479657907
    vertex 0.0 174.0 93.99999999999999
    vertex 0.0 172.21980714160858 90.03000329727126
  endloop
endfacet
facet normal -1.0 0.0 0.0
  outer loop
    vertex 0.0 172.21980714160858 90.03000329727126
    vertex 0.0 174.0 93.99999999999999
    vertex 0.0 172.80586925725908 90.42158042799348
  endloop
endfacet
facet normal -1.0 0.0 0.0
  outer loop
    vertex 0.0 172.80586925725908 90.42158042799348
    vertex 0.0 174.0 93.99999999999999
    vertex 0.0 173.47330940963303 90.64813085439879
  endloop
endfacet
facet normal -1.0 0.0 0.0
  outer loop
    vertex 0.0 173.47330940963303 90.64813085439879
    vertex 0.0 174.0 93.99999999999999
    vertex 0.0 174.1766426553431 90.69421553932
  endloop
endfacet
facet normal -1.0 0.0 0.0
  outer loop
    vertex 0.0 174.1766426553431 90.69421553932
    vertex 0.0 174.0 93.99999999999999
    vertex 0.0 174.78315715332033 93.94866916824286
  endloop
endfacet
facet normal -1.0 0.0 0.0
  outer loop
    vertex 0.0 174.1766426553431 90.69421553932
    vertex 0.0 174.78315715332033 93.94866916824286
    vertex 0.0 174.86793799600738 90.55669388763823
  endloop
endfacet
facet normal -1.0 0.0 0.0
  outer loop
    vertex 0.0 174.86793799600738 90.55669388763823
    vertex 0.0 174.78315715332033 93.94866916824286
    vertex 0.0 175.5529142706151 93.79555495773441
  endloop
endfacet
facet normal -1.0 0.0 0.0
  outer loop
    vertex 0.0 174.86793799600738 90.55669388763823
    vertex 0.0 175.5529142706151 93.79555495773441
    vertex 0.0 175.50008479657907 90.24493777265035
  endloop
endfacet
facet normal -1.0 0.0 0.0
  outer loop
    vertex 0.0 175.50008479657907 90.24493777265035
    vertex 0.0 175.5529142706151 93.79555495773441
    vertex 0.0 176.03000329727126 89.78019285839142
  endloop
endfacet
facet normal -1.0 0.0 0.0
  outer loop
    vertex 0.0 176.03000329727126 89.78019285839142
    vertex 0.0 175.5529142706151 93.79555495773441
    vertex 0.0 176.29610059419053 93.54327719506772
  endloop
endfacet
facet normal -1.0 0.0 0.0
  outer loop
    vertex 0.0 176.03000329727126 89.78019285839142
    vertex 0.0 176.29610059419053 93.54327719506772
    vertex 0.0 176.42158042799346 89.1941307427409
  endloop
endfacet
facet normal -1.0 0.0 0.0
  outer loop
    vertex 0.0 176.42158042799346 89.1941307427409
    vertex 0.0 176.29610059419053 93.54327719506772
    vertex 0.0 177.0 93.19615242270663
  endloop
endfacet
facet normal -1.0 0.0 0.0
  outer loop
    vertex 0.0 176.42158042799346 89.1941307427409
    vertex 0.0 177.0 93.19615242270663
    vertex 0.0 176.6481308543988 88.52669059036697
  endloop
endfacet
facet normal -1.0 0.0 0.0
  outer loop
    vertex 0.0 176.6481308543988 88.52669059036697
    vertex 0.0 177.0 93.19615242270663
    vertex 0.0 176.69421553932 87.82335734465687
  endloop
endfacet
facet normal -1.0 0.0 0.0
  outer loop
    vertex 0.0 171.0 85.0
    vertex 0.0 180.0 71.99999999999999
    vertex 0.0 170.99999999999997 71.99999999999999
  endloop
endfacet
facet normal -1.0 0.0 0.0
  outer loop
    vertex 0.0 180.0 71.99999999999999
    vertex 0.0 171.0 85.0
    vertex 0.0 171.5784195720065 86.80586925725909
  endloop
endfacet
facet normal -1.0 0.0 0.0
  outer loop
    vertex 0.0 171.5784195720065 86.80586925725909
    vertex 0.0 171.0 85.0
    vertex 0.0 171.3518691456012 87.47330940963303
  endloop
endfacet
facet normal -1.0 0.0 0.0
  outer loop
    vertex 0.0 171.3518691456012 87.47330940963303
    vertex 0.0 171.0 85.0
    vertex 0.0 171.30578446068 88.17664265534313
  endloop
endfacet
facet normal -1.0 0.0 0.0
  outer loop
    vertex 0.0 180.0 71.99999999999999
    vertex 0.0 171.5784195720065 86.80586925725909
    vertex 0.0 171.96999670272874 86.21980714160858
  endloop
endfacet
facet normal -1.0 0.0 0.0
  outer loop
    vertex 0.0 180.0 71.99999999999999
    vertex 0.0 171.96999670272874 86.21980714160858
    vertex 0.0 172.49991520342093 85.75506222734965
  endloop
endfacet
facet normal -1.0 0.0 0.0
  outer loop
    vertex 0.0 180.0 71.99999999999999
    vertex 0.0 172.49991520342093 85.75506222734965
    vertex 0.0 173.13206200399262 85.44330611236177
  endloop
endfacet
facet normal -1.0 0.0 0.0
  outer loop
    vertex 0.0 180.0 71.99999999999999
    vertex 0.0 173.13206200399262 85.44330611236177
    vertex 0.0 173.82335734465687 85.30578446068
  endloop
endfacet
facet normal -1.0 0.0 0.0
  outer loop
    vertex 0.0 180.0 71.99999999999999
    vertex 0.0 173.82335734465687 85.30578446068
    vertex 0.0 174.52669059036697 85.3518691456012
  endloop
endfacet
facet normal -1.0 0.0 0.0
  outer loop
    vertex 0.0 180.0 71.99999999999999
    vertex 0.0 174.52669059036697 85.3518691456012
    vertex 0.0 175.19413074274092 85.57841957200652
  endloop
endfacet
facet normal -1.0 0.0 0.0
  outer loop
    vertex 0.0 180.0 71.99999999999999
    vertex 0.0 175.19413074274092 85.57841957200652
    vertex 0.0 175.78019285839142 85.96999670272874
  endloop
endfacet
facet normal -1.0 0.0 0.0
  outer loop
    vertex 0.0 180.0 71.99999999999999
    vertex 0.0 175.78019285839142 85.96999670272874
    vertex 0.0 176.24493777265033 86.49991520342091
  endloop
endfacet
facet normal -1.0 0.0 0.0
  outer loop
    vertex 0.0 180.0 71.99999999999999
    vertex 0.0 176.24493777265033 86.49991520342091
    vertex 0.0 176.55669388763823 87.13206200399262
  endloop
endfacet
facet normal -1.0 0.0 0.0
  outer loop
    vertex 0.0 180.0 71.99999999999999
    vertex 0.0 176.55669388763823 87.13206200399262
    vertex 0.0 176.69421553932 87.82335734465687
  endloop
endfacet
facet normal -1.0 0.0 0.0
  outer loop
    vertex 0.0 180.0 71.99999999999999
    vertex 0.0 176.69421553932 87.82335734465687
    vertex 0.0 177.0 93.19615242270663
  endloop
endfacet
facet normal -1.0 0.0 0.0
  outer loop
    vertex 0.0 180.0 71.99999999999999
    vertex 0.0 177.0 93.19615242270663
    vertex 0.0 177.65256857405234 92.76012004174741
  endloop
endfacet
facet normal -1.0 0.0 0.0
  outer loop
    vertex 0.0 180.0 71.99999999999999
    vertex 0.0 177.65256857405234 92.76012004174741
    vertex 0.0 178.2426406871193 92.24264068711928
  endloop
endfacet
facet normal -1.0 0.0 0.0
  outer loop
    vertex 0.0 180.0 71.99999999999999
    vertex 0.0 178.2426406871193 92.24264068711928
    vertex 0.0 178.76012004174743 91.65256857405232
  endloop
endfacet
facet normal -1.0 0.0 0.0
  outer loop
    vertex 0.0 180.0 71.99999999999999
    vertex 0.0 178.76012004174743 91.65256857405232
    vertex 0.0 179.19615242270663 91.0
  endloop
endfacet
facet normal -1.0 0.0 0.0
  outer loop
    vertex 0.0 180.0 71.99999999999999
    vertex 0.0 179.19615242270663 91.0
    vertex 0.0 179.5432771950677 90.29610059419053
  endloop
endfacet
facet normal -1.0 0.0 0.0
  outer loop
    vertex 0.0 180.0 71.99999999999999
    vertex 0.0 179.5432771950677 90.29610059419053
    vertex 0.0 179.7955549577344 89.55291427061512
  endloop
endfacet
facet normal -1.0 0.0 0.0
  outer loop
    vertex 0.0 180.0 71.99999999999999
    vertex 0.0 179.7955549577344 89.55291427061512
    vertex 0.0 179.94866916824287 88.7831571533203
  endloop
endfacet
facet normal -1.0 0.0 0.0
  outer loop
    vertex 0.0 180.0 71.99999999999999
    vertex 0.0 179.94866916824287 88.7831571533203
    vertex 0.0 180.0 88.0
  endloop
endfacet
facet normal -1.0 0.0 0.0
  outer loop
    vertex 0.0 162.15000000000003 85.0
    vertex 0.0 157.99999999999997 85.0
    vertex 0.0 162.15000000000003 88.35
  endloop
endfacet
facet normal 1.0 -0.0 -0.0
  outer loop
    vertex 12.7 171.0 85.0
    vertex 12.7 165.85 88.35
    vertex 12.7 165.85 85.0
  endloop
endfacet
facet normal 1.0 -0.0 -0.0
  outer loop
    vertex 12.7 180.0 71.99999999999999
    vertex 12.7 171.0 85.0
    vertex 12.7 170.99999999999997 71.99999999999999
  endloop
endfacet
facet normal 1.0 -0.0 -0.0
  outer loop
    vertex 12.7 171.0 85.0
    vertex 12.7 180.0 71.99999999999999
    vertex 12.7 171.5784195720065 86.80586925725909
  endloop
endfacet
facet normal 1.0 -0.0 -0.0
  outer loop
    vertex 12.7 171.0 85.0
    vertex 12.7 171.5784195720065 86.80586925725909
    vertex 12.7 171.3518691456012 87.47330940963303
  endloop
endfacet
facet normal 1.0 -0.0 -0.0
  outer loop
    vertex 12.7 171.0 85.0
    vertex 12.7 171.3518691456012 87.47330940963303
    vertex 12.7 171.30578446068 88.17664265534313
  endloop
endfacet
facet normal 1.0 -0.0 -0.0
  outer loop
    vertex 12.7 171.5784195720065 86.80586925725909
    vertex 12.7 180.0 71.99999999999999
    vertex 12.7 171.96999670272874 86.21980714160858
  endloop
endfacet
facet normal 1.0 -0.0 -0.0
  outer loop
    vertex 12.7 171.96999670272874 86.21980714160858
    vertex 12.7 180.0 71.99999999999999
    vertex 12.7 172.49991520342093 85.75506222734965
  endloop
endfacet
facet normal 1.0 -0.0 -0.0
  outer loop
    vertex 12.7 172.49991520342093 85.75506222734965
    vertex 12.7 180.0 71.99999999999999
    vertex 12.7 173.13206200399262 85.44330611236177
  endloop
endfacet
facet normal 1.0 -0.0 -0.0
  outer loop
    vertex 12.7 173.13206200399262 85.44330611236177
    vertex 12.7 180.0 71.99999999999999
    vertex 12.7 173.82335734465687 85.30578446068
  endloop
endfacet
facet normal 1.0 -0.0 -0.0
  outer loop
    vertex 12.7 173.82335734465687 85.30578446068
    vertex 12.7 180.0 71.99999999999999
    vertex 12.7 174.52669059036697 85.3518691456012
  endloop
endfacet
facet normal 1.0 -0.0 -0.0
  outer loop
    vertex 12.7 174.52669059036697 85.3518691456012
    vertex 12.7 180.0 71.99999999999999
    vertex 12.7 175.19413074274092 85.57841957200652
  endloop
endfacet
facet normal 1.0 -0.0 -0.0
  outer loop
    vertex 12.7 175.19413074274092 85.57841957200652
    vertex 12.7 180.0 71.99999999999999
    vertex 12.7 175.78019285839142 85.96999670272874
  endloop
endfacet
facet normal 1.0 -0.0 -0.0
  outer loop
    vertex 12.7 175.78019285839142 85.96999670272874
    vertex 12.7 180.0 71.99999999999999
    vertex 12.7 176.24493777265033 86.49991520342091
  endloop
endfacet
facet normal 1.0 -0.0 -0.0
  outer loop
    vertex 12.7 176.24493777265033 86.49991520342091
    vertex 12.7 180.0 71.99999999999999
    vertex 12.7 176.55669388763823 87.13206200399262
  endloop
endfacet
facet normal 1.0 -0.0 -0.0
  outer loop
    vertex 12.7 176.55669388763823 87.13206200399262
    vertex 12.7 180.0 71.99999999999999
    vertex 12.7 176.69421553932 87.82335734465687
  endloop
endfacet
facet normal 1.0 -0.0 -0.0
  outer loop
    vertex 12.7 176.69421553932 87.82335734465687
    vertex 12.7 180.0 71.99999999999999
    vertex 12.7 177.0 93.19615242270663
  endloop
endfacet
facet normal 1.0 -0.0 -0.0
  outer loop
    vertex 12.7 177.0 93.19615242270663
    vertex 12.7 180.0 71.99999999999999
    vertex 12.7 177.65256857405234 92.76012004174741
  endloop
endfacet
facet normal 1.0 -0.0 -0.0
  outer loop
    vertex 12.7 177.65256857405234 92.76012004174741
    vertex 12.7 180.0 71.99999999999999
    vertex 12.7 178.2426406871193 92.24264068711928
  endloop
endfacet
facet normal 1.0 -0.0 -0.0
  outer loop
    vertex 12.7 178.2426406871193 92.24264068711928
    vertex 12.7 180.0 71.99999999999999
    vertex 12.7 178.76012004174743 91.65256857405232
  endloop
endfacet
facet normal 1.0 -0.0 -0.0
  outer loop
    vertex 12.7 178.76012004174743 91.65256857405232
    vertex 12.7 180.0 71.99999999999999
    vertex 12.7 179.19615242270663 91.0
  endloop
endfacet
facet normal 1.0 -0.0 -0.0
  outer loop
    vertex 12.7 179.19615242270663 91.0
    vertex 12.7 180.0 71.99999999999999
    vertex 12.7 179.5432771950677 90.29610059419053
  endloop
endfacet
facet normal 1.0 -0.0 -0.0
  outer loop
    vertex 12.7 179.5432771950677 90.29610059419053
    vertex 12.7 180.0 71.99999999999999
    vertex 12.7 179.7955549577344 89.55291427061512
  endloop
endfacet
facet normal 1.0 -0.0 -0.0
  outer loop
    vertex 12.7 179.7955549577344 89.55291427061512
    vertex 12.7 180.0 71.99999999999999
    vertex 12.7 179.94866916824287 88.7831571533203
  endloop
endfacet
facet normal 1.0 -0.0 -0.0
  outer loop
    vertex 12.7 179.94866916824287 88.7831571533203
    vertex 12.7 180.0 71.99999999999999
    vertex 12.7 180.0 88.0
  endloop
endfacet
facet normal 1.0 -0.0 -0.0
  outer loop
    vertex 12.7 162.15000000000003 85.0
    vertex 12.7 157.99999999999997 93.99999999999999
    vertex 12.7 157.99999999999997 85.0
  endloop
endfacet
facet normal 1.0 -0.0 -0.0
  outer loop
    vertex 12.7 157.99999999999997 93.99999999999999
    vertex 12.7 162.15000000000003 85.0
    vertex 12.7 162.15000000000003 88.35
  endloop
endfacet
facet normal 1.0 -0.0 -0.0
  outer loop
    vertex 12.7 157.99999999999997 93.99999999999999
    vertex 12.7 162.15000000000003 88.35
    vertex 12.7 174.0 93.99999999999999
  endloop
endfacet
facet normal 1.0 -0.0 -0.0
  outer loop
    vertex 12.7 174.0 93.99999999999999
    vertex 12.7 162.15000000000003 88.35
    vertex 12.7 165.85 88.35
  endloop
endfacet
facet normal 1.0 -0.0 -0.0
  outer loop
    vertex 12.7 174.0 93.99999999999999
    vertex 12.7 165.85 88.35
    vertex 12.7 171.75506222734967 89.50008479657907
  endloop
endfacet
facet normal 1.0 -0.0 -0.0
  outer loop
    vertex 12.7 171.75506222734967 89.50008479657907
    vertex 12.7 165.85 88.35
    vertex 12.7 171.44330611236177 88.86793799600737
  endloop
endfacet
facet normal 1.0 -0.0 -0.0
  outer loop
    vertex 12.7 171.44330611236177 88.86793799600737
    vertex 12.7 165.85 88.35
    vertex 12.7 171.30578446068 88.17664265534313
  endloop
endfacet
facet normal 1.0 -0.0 -0.0
  outer loop
    vertex 12.7 171.30578446068 88.17664265534313
    vertex 12.7 165.85 88.35
    vertex 12.7 171.0 85.0
  endloop
endfacet
facet normal 1.0 -0.0 -0.0
  outer loop
    vertex 12.7 174.0 93.99999999999999
    vertex 12.7 171.75506222734967 89.50008479657907
    vertex 12.7 172.21980714160858 90.03000329727126
  endloop
endfacet
facet normal 1.0 -0.0 -0.0
  outer loop
    vertex 12.7 174.0 93.99999999999999
    vertex 12.7 172.21980714160858 90.03000329727126
    vertex 12.7 172.80586925725908 90.42158042799348
  endloop
endfacet
facet normal 1.0 -0.0 -0.0
  outer loop
    vertex 12.7 174.0 93.99999999999999
    vertex 12.7 172.80586925725908 90.42158042799348
    vertex 12.7 173.47330940963303 90.64813085439879
  endloop
endfacet
facet normal 1.0 -0.0 -0.0
  outer loop
    vertex 12.7 174.0 93.99999999999999
    vertex 12.7 173.47330940963303 90.64813085439879
    vertex 12.7 174.1766426553431 90.69421553932
  endloop
endfacet
facet normal 1.0 -0.0 -0.0
  outer loop
    vertex 12.7 174.0 93.99999999999999
    vertex 12.7 174.1766426553431 90.69421553932
    vertex 12.7 174.78315715332033 93.94866916824286
  endloop
endfacet
facet normal 1.0 -0.0 -0.0
  outer loop
    vertex 12.7 174.78315715332033 93.94866916824286
    vertex 12.7 174.1766426553431 90.69421553932
    vertex 12.7 174.86793799600738 90.55669388763823
  endloop
endfacet
facet normal 1.0 -0.0 -0.0
  outer loop
    vertex 12.7 174.78315715332033 93.94866916824286
    vertex 12.7 174.86793799600738 90.55669388763823
    vertex 12.7 175.5529142706151 93.79555495773441
  endloop
endfacet
facet normal 1.0 -0.0 -0.0
  outer loop
    vertex 12.7 175.5529142706151 93.79555495773441
    vertex 12.7 174.86793799600738 90.55669388763823
    vertex 12.7 175.50008479657907 90.24493777265035
  endloop
endfacet
facet normal 1.0 -0.0 -0.0
  outer loop
    vertex 12.7 175.5529142706151 93.79555495773441
    vertex 12.7 175.50008479657907 90.24493777265035
    vertex 12.7 176.03000329727126 89.78019285839142
  endloop
endfacet
facet normal 1.0 -0.0 -0.0
  outer loop
    vertex 12.7 175.5529142706151 93.79555495773441
    vertex 12.7 176.03000329727126 89.78019285839142
    vertex 12.7 176.29610059419053 93.54327719506772
  endloop
endfacet
facet normal 1.0 -0.0 -0.0
  outer loop
    vertex 12.7 176.29610059419053 93.54327719506772
    vertex 12.7 176.03000329727126 89.78019285839142
    vertex 12.7 176.42158042799346 89.1941307427409
  endloop
endfacet
facet normal 1.0 -0.0 -0.0
  outer loop
    vertex 12.7 176.29610059419053 93.54327719506772
    vertex 12.7 176.42158042799346 89.1941307427409
    vertex 12.7 177.0 93.19615242270663
  endloop
endfacet
facet normal 1.0 -0.0 -0.0
  outer loop
    vertex 12.7 177.0 93.19615242270663
    vertex 12.7 176.42158042799346 89.1941307427409
    vertex 12.7 176.6481308543988 88.52669059036697
  endloop
endfacet
facet normal 1.0 -0.0 -0.0
  outer loop
    vertex 12.7 177.0 93.19615242270663
    vertex 12.7 176.6481308543988 88.52669059036697
    vertex 12.7 176.69421553932 87.82335734465687
  endloop
endfacet
facet normal 0.0 1.0 0.0
  outer loop
    vertex 0.0 180.0 88.0
    vertex 12.7 180.0 71.99999999999999
    vertex 0.0 180.0 71.99999999999999
  endloop
endfacet
facet normal 0.0 1.0 0.0
  outer loop
    vertex 12.7 180.0 71.99999999999999
    vertex 0.0 180.0 88.0
    vertex 12.7 180.0 88.0
  endloop
endfacet
facet normal -0.0 -0.0 -1.0
  outer loop
    vertex 12.7 180.0 71.99999999999999
    vertex 0.0 170.99999999999997 71.99999999999999
    vertex 0.0 180.0 71.99999999999999
  endloop
endfacet
facet normal -0.0 -0.0 -1.0
  outer loop
    vertex 0.0 170.99999999999997 71.99999999999999
    vertex 12.7 180.0 71.99999999999999
    vertex 12.7 170.99999999999997 71.99999999999999
  endloop
endfacet
facet normal 0.0 -1.0 1.7353639892602417e-15
  outer loop
    vertex 12.7 171.0 85.0
    vertex 0.0 170.99999999999997 71.99999999999999
    vertex 12.7 170.99999999999997 71.99999999999999
  endloop
endfacet
facet normal 0.0 -1.0 1.7353639892602417e-15
  outer loop
    vertex 0.0 170.99999999999997 71.99999999999999
    vertex 12.7 171.0 85.0
    vertex 0.0 171.0 85.0
  endloop
endfacet
facet normal -0.0 -0.0 -1.0
  outer loop
    vertex 12.7 171.0 85.0
    vertex 0.0 165.85 85.0
    vertex 0.0 171.0 85.0
  endloop
endfacet
facet normal -0.0 -0.0 -1.0
  outer loop
    vertex 0.0 165.85 85.0
    vertex 12.7 171.0 85.0
    vertex 12.7 165.85 85.0
  endloop
endfacet
facet normal 0.0 -1.0 0.0
  outer loop
    vertex 12.7 165.85 88.35
    vertex 0.0 165.85 85.0
    vertex 12.7 165.85 85.0
  endloop
endfacet
facet normal 0.0 -1.0 0.0
  outer loop
    vertex 0.0 165.85 85.0
    vertex 12.7 165.85 88.35
    vertex 0.0 165.85 88.35
  endloop
endfacet
facet normal -0.0 -0.0 -1.0
  outer loop
    vertex 12.7 165.85 88.35
    vertex 0.0 162.15000000000003 88.35
    vertex 0.0 165.85 88.35
  endloop
endfacet
facet normal -0.0 -0.0 -1.0
  outer loop
    vertex 0.0 162.15000000000003 88.35
    vertex 12.7 165.85 88.35
    vertex 12.7 162.15000000000003 88.35
  endloop
endfacet
facet normal 0.0 1.0 0.0
  outer loop
    vertex 0.0 162.15000000000003 88.35
    vertex 12.7 162.15000000000003 85.0
    vertex 0.0 162.15000000000003 85.0
  endloop
endfacet
facet normal 0.0 1.0 0.0
  outer loop
    vertex 12.7 162.15000000000003 85.0
    vertex 0.0 162.15000000000003 88.35
    vertex 12.7 162.15000000000003 88.35
  endloop
endfacet
facet normal -0.0 -0.0 -1.0
  outer loop
    vertex 12.7 162.15000000000003 85.0
    vertex 0.0 157.99999999999997 85.0
    vertex 0.0 162.15000000000003 85.0
  endloop
endfacet
facet normal -0.0 -0.0 -1.0
  outer loop
    vertex 0.0 157.99999999999997 85.0
    vertex 12.7 162.15000000000003 85.0
    vertex 12.7 157.99999999999997 85.0
  endloop
endfacet
facet normal 0.0 -1.0 0.0
  outer loop
    vertex 12.7 157.99999999999997 93.99999999999999
    vertex 0.0 157.99999999999997 85.0
    vertex 12.7 157.99999999999997 85.0
  endloop
endfacet
facet normal 0.0 -1.0 0.0
  outer loop
    vertex 0.0 157.99999999999997 85.0
    vertex 12.7 157.99999999999997 93.99999999999999
    vertex 0.0 157.99999999999997 93.99999999999999
  endloop
endfacet
facet normal 0.0 -0.0 1.0
  outer loop
    vertex 12.7 157.99999999999997 93.99999999999999
    vertex 0.0 174.0 93.99999999999999
    vertex 0.0 157.99999999999997 93.99999999999999
  endloop
endfacet
facet normal 0.0 -0.0 1.0
  outer loop
    vertex 0.0 174.0 93.99999999999999
    vertex 12.7 157.99999999999997 93.99999999999999
    vertex 12.7 174.0 93.99999999999999
  endloop
endfacet
facet normal 0.0 0.06540312923012809 0.9978589232386045
  outer loop
    vertex 12.7 174.0 93.99999999999999
    vertex 0.0 174.78315715332033 93.94866916824286
    vertex 0.0 174.0 93.99999999999999
  endloop
endfacet
facet normal 0.0 0.1305261922200481 0.9914448613738108
  outer loop
    vertex 0.0 174.78315715332033 93.94866916824286
    vertex 12.7 174.0 93.99999999999999
    vertex 12.7 174.78315715332033 93.94866916824286
  endloop
endfacet
facet normal 0.0 0.1305261922200481 0.9914448613738108
  outer loop
    vertex 12.7 174.78315715332033 93.94866916824286
    vertex 0.0 175.5529142706151 93.79555495773441
    vertex 0.0 174.78315715332033 93.94866916824286
  endloop
endfacet
facet normal 0.0 0.25881904510252524 0.9659258262890671
  outer loop
    vertex 0.0 175.5529142706151 93.79555495773441
    vertex 12.7 174.78315715332033 93.94866916824286
    vertex 12.7 175.5529142706151 93.79555495773441
  endloop
endfacet
facet normal 0.0 0.25881904510252524 0.9659258262890671
  outer loop
    vertex 12.7 175.5529142706151 93.79555495773441
    vertex 0.0 176.29610059419053 93.54327719506772
    vertex 0.0 175.5529142706151 93.79555495773441
  endloop
endfacet
facet normal 0.0 0.3826834323650874 0.9238795325112878
  outer loop
    vertex 0.0 176.29610059419053 93.54327719506772
    vertex 12.7 175.5529142706151 93.79555495773441
    vertex 12.7 176.29610059419053 93.54327719506772
  endloop
endfacet
facet normal 0.0 0.3826834323650874 0.9238795325112878
  outer loop
    vertex 12.7 176.29610059419053 93.54327719506772
    vertex 0.0 177.0 93.19615242270663
    vertex 0.0 176.29610059419053 93.54327719506772
  endloop
endfacet
facet normal 0.0 0.49999999999998684 0.8660254037844464
  outer loop
    vertex 0.0 177.0 93.19615242270663
    vertex 12.7 176.29610059419053 93.54327719506772
    vertex 12.7 177.0 93.19615242270663
  endloop
endfacet
facet normal 0.0 0.49999999999998684 0.8660254037844464
  outer loop
    vertex 12.7 177.0 93.19615242270663
    vertex 0.0 177.65256857405234 92.76012004174741
    vertex 0.0 177.0 93.19615242270663
  endloop
endfacet
facet normal 0.0 0.6087614290087184 0.7933533402912368
  outer loop
    vertex 0.0 177.65256857405234 92.76012004174741
    vertex 12.7 177.0 93.19615242270663
    vertex 12.7 177.65256857405234 92.76012004174741
  endloop
endfacet
facet normal 0.0 0.6087614290087184 0.7933533402912368
  outer loop
    vertex 12.7 177.65256857405234 92.76012004174741
    vertex 0.0 178.2426406871193 92.24264068711928
    vertex 0.0 177.65256857405234 92.76012004174741
  endloop
endfacet
facet normal 0.0 0.7071067811865509 0.707106781186544
  outer loop
    vertex 0.0 178.2426406871193 92.24264068711928
    vertex 12.7 177.65256857405234 92.76012004174741
    vertex 12.7 178.2426406871193 92.24264068711928
  endloop
endfacet
facet normal 0.0 0.7071067811865509 0.707106781186544
  outer loop
    vertex 0.0 178.2426406871193 92.24264068711928
    vertex 12.7 178.76012004174743 91.65256857405232
    vertex 0.0 178.76012004174743 91.65256857405232
  endloop
endfacet
facet normal 0.0 0.7933533402912325 0.608761429008724
  outer loop
    vertex 12.7 178.76012004174743 91.65256857405232
    vertex 0.0 178.2426406871193 92.24264068711928
    vertex 12.7 178.2426406871193 92.24264068711928
  endloop
endfacet
facet normal 0.0 0.7933533402912325 0.608761429008724
  outer loop
    vertex 0.0 178.76012004174743 91.65256857405232
    vertex 12.7 179.19615242270663 91.0
    vertex 0.0 179.19615242270663 91.0
  endloop
endfacet
facet normal 0.0 0.866025403784445 0.4999999999999888
  outer loop
    vertex 12.7 179.19615242270663 91.0
    vertex 0.0 178.76012004174743 91.65256857405232
    vertex 12.7 178.76012004174743 91.65256857405232
  endloop
endfacet
facet normal 0.0 0.866025403784445 0.4999999999999888
  outer loop
    vertex 0.0 179.19615242270663 91.0
    vertex 12.7 179.5432771950677 90.29610059419053
    vertex 0.0 179.5432771950677 90.29610059419053
  endloop
endfacet
facet normal 0.0 0.9238795325112906 0.3826834323650806
  outer loop
    vertex 12.7 179.5432771950677 90.29610059419053
    vertex 0.0 179.19615242270663 91.0
    vertex 12.7 179.19615242270663 91.0
  endloop
endfacet
facet normal 0.0 0.9238795325112906 0.3826834323650806
  outer loop
    vertex 0.0 179.5432771950677 90.29610059419053
    vertex 12.7 179.7955549577344 89.55291427061512
    vertex 0.0 179.7955549577344 89.55291427061512
  endloop
endfacet
facet normal 0.0 0.9659258262890639 0.258819045102537
  outer loop
    vertex 12.7 179.7955549577344 89.55291427061512
    vertex 0.0 179.5432771950677 90.29610059419053
    vertex 12.7 179.5432771950677 90.29610059419053
  endloop
endfacet
facet normal 0.0 0.9659258262890639 0.258819045102537
  outer loop
    vertex 0.0 179.7955549577344 89.55291427061512
    vertex 12.7 179.94866916824287 88.7831571533203
    vertex 0.0 179.94866916824287 88.7831571533203
  endloop
endfacet
facet normal 0.0 0.9914448613738113 0.1305261922200446
  outer loop
    vertex 12.7 179.94866916824287 88.7831571533203
    vertex 0.0 179.7955549577344 89.55291427061512
    vertex 12.7 179.7955549577344 89.55291427061512
  endloop
endfacet
facet normal 0.0 0.9914448613738113 0.1305261922200446
  outer loop
    vertex 0.0 179.94866916824287 88.7831571533203
    vertex 12.7 180.0 88.0
    vertex 0.0 180.0 88.0
  endloop
endfacet
facet normal 0.0 0.9978589232386063 0.06540312923010133
  outer loop
    vertex 12.7 180.0 88.0
    vertex 0.0 179.94866916824287 88.7831571533203
    vertex 12.7 179.94866916824287 88.7831571533203
  endloop
endfacet
facet normal 0.0 0.8314584343149398 -0.5555869616959609
  outer loop
    vertex 0.0 171.75506222734967 89.50008479657907
    vertex 12.7 171.44330611236177 88.86793799600737
    vertex 0.0 171.44330611236177 88.86793799600737
  endloop
endfacet
facet normal 0.0 0.9469236620882313 -0.321458517039778
  outer loop
    vertex 12.7 171.44330611236177 88.86793799600737
    vertex 0.0 171.75506222734967 89.50008479657907
    vertex 12.7 171.75506222734967 89.50008479657907
  endloop
endfacet
facet normal 0.0 0.9469236620882313 -0.321458517039778
  outer loop
    vertex 0.0 171.44330611236177 88.86793799600737
    vertex 12.7 171.30578446068 88.17664265534313
    vertex 0.0 171.30578446068 88.17664265534313
  endloop
endfacet
facet normal 0.0 0.9978576071555542 -0.06542320568262937
  outer loop
    vertex 12.7 171.30578446068 88.17664265534313
    vertex 0.0 171.44330611236177 88.86793799600737
    vertex 12.7 171.44330611236177 88.86793799600737
  endloop
endfacet
facet normal 0.0 0.9978576071555542 -0.06542320568262937
  outer loop
    vertex 0.0 171.30578446068 88.17664265534313
    vertex 12.7 171.3518691456012 87.47330940963303
    vertex 0.0 171.3518691456012 87.47330940963303
  endloop
endfacet
facet normal 0.0 0.9807892053328872 0.19507058902480326
  outer loop
    vertex 12.7 171.3518691456012 87.47330940963303
    vertex 0.0 171.30578446068 88.17664265534313
    vertex 12.7 171.30578446068 88.17664265534313
  endloop
endfacet
facet normal 0.0 0.9807892053328872 0.19507058902480326
  outer loop
    vertex 0.0 171.3518691456012 87.47330940963303
    vertex 12.7 171.5784195720065 86.80586925725909
    vertex 0.0 171.5784195720065 86.80586925725909
  endloop
endfacet
facet normal 0.0 0.8968816399975821 0.44227064545959577
  outer loop
    vertex 12.7 171.5784195720065 86.80586925725909
    vertex 0.0 171.3518691456012 87.47330940963303
    vertex 12.7 171.3518691456012 87.47330940963303
  endloop
endfacet
facet normal 0.0 0.8968816399975821 0.44227064545959577
  outer loop
    vertex 0.0 171.5784195720065 86.80586925725909
    vertex 12.7 171.96999670272874 86.21980714160858
    vertex 0.0 171.96999670272874 86.21980714160858
  endloop
endfacet
facet normal 0.0 0.751853073063429 0.6593306882931191
  outer loop
    vertex 12.7 171.96999670272874 86.21980714160858
    vertex 0.0 171.5784195720065 86.80586925725909
    vertex 12.7 171.5784195720065 86.80586925725909
  endloop
endfacet
facet normal 0.0 0.751853073063429 0.6593306882931191
  outer loop
    vertex 12.7 171.96999670272874 86.21980714160858
    vertex 0.0 172.49991520342093 85.75506222734965
    vertex 0.0 171.96999670272874 86.21980714160858
  endloop
endfacet
facet normal 0.0 0.5555869616959582 0.8314584343149414
  outer loop
    vertex 0.0 172.49991520342093 85.75506222734965
    vertex 12.7 171.96999670272874 86.21980714160858
    vertex 12.7 172.49991520342093 85.75506222734965
  endloop
endfacet
facet normal 0.0 0.5555869616959582 0.8314584343149414
  outer loop
    vertex 12.7 172.49991520342093 85.75506222734965
    vertex 0.0 173.13206200399262 85.44330611236177
    vertex 0.0 172.49991520342093 85.75506222734965
  endloop
endfacet
facet normal 0.0 0.3214585170397704 0.9469236620882339
  outer loop
    vertex 0.0 173.13206200399262 85.44330611236177
    vertex 12.7 172.49991520342093 85.75506222734965
    vertex 12.7 173.13206200399262 85.44330611236177
  endloop
endfacet
facet normal 0.0 0.3214585170397704 0.9469236620882339
  outer loop
    vertex 12.7 173.13206200399262 85.44330611236177
    vertex 0.0 173.82335734465687 85.30578446068
    vertex 0.0 173.13206200399262 85.44330611236177
  endloop
endfacet
facet normal 0.0 0.06542320568263509 0.9978576071555539
  outer loop
    vertex 0.0 173.82335734465687 85.30578446068
    vertex 12.7 173.13206200399262 85.44330611236177
    vertex 12.7 173.82335734465687 85.30578446068
  endloop
endfacet
facet normal 0.0 0.06542320568263509 0.9978576071555539
  outer loop
    vertex 12.7 173.82335734465687 85.30578446068
    vertex 0.0 174.52669059036697 85.3518691456012
    vertex 0.0 173.82335734465687 85.30578446068
  endloop
endfacet
facet normal 0.0 -0.19507058902480123 0.9807892053328875
  outer loop
    vertex 0.0 174.52669059036697 85.3518691456012
    vertex 12.7 173.82335734465687 85.30578446068
    vertex 12.7 174.52669059036697 85.3518691456012
  endloop
endfacet
facet normal 0.0 -0.19507058902480123 0.9807892053328875
  outer loop
    vertex 12.7 174.52669059036697 85.3518691456012
    vertex 0.0 175.19413074274092 85.57841957200652
    vertex 0.0 174.52669059036697 85.3518691456012
  endloop
endfacet
facet normal 0.0 -0.4422706454595916 0.8968816399975842
  outer loop
    vertex 0.0 175.19413074274092 85.57841957200652
    vertex 12.7 174.52669059036697 85.3518691456012
    vertex 12.7 175.19413074274092 85.57841957200652
  endloop
endfacet
facet normal 0.0 -0.4422706454595916 0.8968816399975842
  outer loop
    vertex 12.7 175.19413074274092 85.57841957200652
    vertex 0.0 175.78019285839142 85.96999670272874
    vertex 0.0 175.19413074274092 85.57841957200652
  endloop
endfacet
facet normal 0.0 -0.6593306882931259 0.751853073063423
  outer loop
    vertex 0.0 175.78019285839142 85.96999670272874
    vertex 12.7 175.19413074274092 85.57841957200652
    vertex 12.7 175.78019285839142 85.96999670272874
  endloop
endfacet
facet normal 0.0 -0.8314584343149398 0.5555869616959609
  outer loop
    vertex 12.7 176.24493777265033 86.49991520342091
    vertex 0.0 175.78019285839142 85.96999670272874
    vertex 12.7 175.78019285839142 85.96999670272874
  endloop
endfacet
facet normal 0.0 -0.6593306882931259 0.751853073063423
  outer loop
    vertex 0.0 175.78019285839142 85.96999670272874
    vertex 12.7 176.24493777265033 86.49991520342091
    vertex 0.0 176.24493777265033 86.49991520342091
  endloop
endfacet
facet normal 0.0 -0.9469236620882313 0.321458517039778
  outer loop
    vertex 12.7 176.55669388763823 87.13206200399262
    vertex 0.0 176.24493777265033 86.49991520342091
    vertex 12.7 176.24493777265033 86.49991520342091
  endloop
endfacet
facet normal 0.0 -0.8314584343149398 0.5555869616959609
  outer loop
    vertex 0.0 176.24493777265033 86.49991520342091
    vertex 12.7 176.55669388763823 87.13206200399262
    vertex 0.0 176.55669388763823 87.13206200399262
  endloop
endfacet
facet normal 0.0 -0.9978576071555542 0.06542320568262937
  outer loop
    vertex 12.7 176.69421553932 87.82335734465687
    vertex 0.0 176.55669388763823 87.13206200399262
    vertex 12.7 176.55669388763823 87.13206200399262
  endloop
endfacet
facet normal 0.0 -0.9469236620882313 0.321458517039778
  outer loop
    vertex 0.0 176.55669388763823 87.13206200399262
    vertex 12.7 176.69421553932 87.82335734465687
    vertex 0.0 176.69421553932 87.82335734465687
  endloop
endfacet
facet normal 0.0 -0.9807892053328872 -0.19507058902480326
  outer loop
    vertex 12.7 176.6481308543988 88.52669059036697
    vertex 0.0 176.69421553932 87.82335734465687
    vertex 12.7 176.69421553932 87.82335734465687
  endloop
endfacet
facet normal 0.0 -0.9978576071555542 0.06542320568262937
  outer loop
    vertex 0.0 176.69421553932 87.82335734465687
    vertex 12.7 176.6481308543988 88.52669059036697
    vertex 0.0 176.6481308543988 88.52669059036697
  endloop
endfacet
facet normal 0.0 -0.8968816399975821 -0.44227064545959577
  outer loop
    vertex 12.7 176.42158042799346 89.1941307427409
    vertex 0.0 176.6481308543988 88.52669059036697
    vertex 12.7 176.6481308543988 88.52669059036697
  endloop
endfacet
facet normal 0.0 -0.9807892053328872 -0.19507058902480326
  outer loop
    vertex 0.0 176.6481308543988 88.52669059036697
    vertex 12.7 176.42158042799346 89.1941307427409
    vertex 0.0 176.42158042799346 89.1941307427409
  endloop
endfacet
facet normal 0.0 -0.751853073063429 -0.6593306882931191
  outer loop
    vertex 12.7 176.03000329727126 89.78019285839142
    vertex 0.0 176.42158042799346 89.1941307427409
    vertex 12.7 176.42158042799346 89.1941307427409
  endloop
endfacet
facet normal 0.0 -0.8968816399975821 -0.44227064545959577
  outer loop
    vertex 0.0 176.42158042799346 89.1941307427409
    vertex 12.7 176.03000329727126 89.78019285839142
    vertex 0.0 176.03000329727126 89.78019285839142
  endloop
endfacet
facet normal 0.0 -0.751853073063429 -0.6593306882931191
  outer loop
    vertex 12.7 176.03000329727126 89.78019285839142
    vertex 0.0 175.50008479657907 90.24493777265035
    vertex 0.0 176.03000329727126 89.78019285839142
  endloop
endfacet
facet normal 0.0 -0.5555869616959582 -0.8314584343149414
  outer loop
    vertex 0.0 175.50008479657907 90.24493777265035
    vertex 12.7 176.03000329727126 89.78019285839142
    vertex 12.7 175.50008479657907 90.24493777265035
  endloop
endfacet
facet normal 0.0 -0.5555869616959582 -0.8314584343149414
  outer loop
    vertex 12.7 175.50008479657907 90.24493777265035
    vertex 0.0 174.86793799600738 90.55669388763823
    vertex 0.0 175.50008479657907 90.24493777265035
  endloop
endfacet
facet normal 0.0 -0.3214585170397704 -0.9469236620882339
  outer loop
    vertex 0.0 174.86793799600738 90.55669388763823
    vertex 12.7 175.50008479657907 90.24493777265035
    vertex 12.7 174.86793799600738 90.55669388763823
  endloop
endfacet
facet normal 0.0 -0.3214585170397704 -0.9469236620882339
  outer loop
    vertex 12.7 174.86793799600738 90.55669388763823
    vertex 0.0 174.1766426553431 90.69421553932
    vertex 0.0 174.86793799600738 90.55669388763823
  endloop
endfacet
facet normal 0.0 -0.06542320568263509 -0.9978576071555539
  outer loop
    vertex 0.0 174.1766426553431 90.69421553932
    vertex 12.7 174.86793799600738 90.55669388763823
    vertex 12.7 174.1766426553431 90.69421553932
  endloop
endfacet
facet normal 0.0 -0.06542320568263509 -0.9978576071555539
  outer loop
    vertex 12.7 174.1766426553431 90.69421553932
    vertex 0.0 173.47330940963303 90.64813085439879
    vertex 0.0 174.1766426553431 90.69421553932
  endloop
endfacet
facet normal 0.0 0.19507058902480123 -0.9807892053328875
  outer loop
    vertex 0.0 173.47330940963303 90.64813085439879
    vertex 12.7 174.1766426553431 90.69421553932
    vertex 12.7 173.47330940963303 90.64813085439879
  endloop
endfacet
facet normal 0.0 0.19507058902480123 -0.9807892053328875
  outer loop
    vertex 12.7 173.47330940963303 90.64813085439879
    vertex 0.0 172.80586925725908 90.42158042799348
    vertex 0.0 173.47330940963303 90.64813085439879
  endloop
endfacet
facet normal 0.0 0.4422706454595916 -0.8968816399975842
  outer loop
    vertex 0.0 172.80586925725908 90.42158042799348
    vertex 12.7 173.47330940963303 90.64813085439879
    vertex 12.7 172.80586925725908 90.42158042799348
  endloop
endfacet
facet normal 0.0 0.4422706454595916 -0.8968816399975842
  outer loop
    vertex 12.7 172.80586925725908 90.42158042799348
    vertex 0.0 172.21980714160858 90.03000329727126
    vertex 0.0 172.80586925725908 90.42158042799348
  endloop
endfacet
facet normal 0.0 0.6593306882931259 -0.751853073063423
  outer loop
    vertex 0.0 172.21980714160858 90.03000329727126
    vertex 12.7 172.80586925725908 90.42158042799348
    vertex 12.7 172.21980714160858 90.03000329727126
  endloop
endfacet
facet normal 0.0 0.6593306882931259 -0.751853073063423
  outer loop
    vertex 0.0 172.21980714160858 90.03000329727126
    vertex 12.7 171.75506222734967 89.50008479657907
    vertex 0.0 171.75506222734967 89.50008479657907
  endloop
endfacet
facet normal 0.0 0.8314584343149398 -0.5555869616959609
  outer loop
    vertex 12.7 171.75506222734967 89.50008479657907
    vertex 0.0 172.21980714160858 90.03000329727126
    vertex 12.7 172.21980714160858 90.03000329727126
  endloop
endfacet
endsolid enclosure-rib004
