solid spacer-4mm-78mm
facet normal -1.0 0.0 0.0
  outer loop
    vertex 0.0 -3.790244658094267 1.27829786504862
    vertex 0.0 -3.9215970929922106 -0.7880839043116141
    vertex 0.0 -3.991943035995907 0.25375341842775295
  endloop
endfacet
facet normal -1.0 0.0 0.0
  outer loop
    vertex 0.0 -3.9215970929922106 -0.7880839043116141
    vertex 0.0 -3.790244658094267 1.27829786504862
    vertex 0.0 -3.5840007888467094 -1.776214611342378
  endloop
endfacet
facet normal -1.0 0.0 0.0
  outer loop
    vertex 0.0 -3.5840007888467094 -1.776214611342378
    vertex 0.0 -3.790244658094267 1.27829786504862
    vertex 0.0 -3.330247370418956 2.215728424653532
  endloop
endfacet
facet normal -1.0 0.0 0.0
  outer loop
    vertex 0.0 -3.5840007888467094 -1.776214611342378
    vertex 0.0 -3.330247370418956 2.215728424653532
    vertex 0.0 -3.002160753782652 -2.6432992279435887
  endloop
endfacet
facet normal -1.0 0.0 0.0
  outer loop
    vertex 0.0 -3.002160753782652 -2.6432992279435887
    vertex 0.0 -3.330247370418956 2.215728424653532
    vertex 0.0 -2.643299227943587 3.002160753782653
  endloop
endfacet
facet normal -1.0 0.0 0.0
  outer loop
    vertex 0.0 -3.002160753782652 -2.6432992279435887
    vertex 0.0 -2.643299227943587 3.002160753782653
    vertex 0.0 -2.694226348773531 0.17647770843494778
  endloop
endfacet
facet normal -1.0 0.0 0.0
  outer loop
    vertex 0.0 -2.694226348773531 0.17647770843494778
    vertex 0.0 -2.643299227943587 3.002160753782653
    vertex 0.0 -2.5567470201698383 0.867781467221245
  endloop
endfacet
facet normal -1.0 0.0 0.0
  outer loop
    vertex 0.0 -2.5567470201698383 0.867781467221245
    vertex 0.0 -2.643299227943587 3.002160753782653
    vertex 0.0 -1.7762146113423758 3.5840007888467107
  endloop
endfacet
facet normal -1.0 0.0 0.0
  outer loop
    vertex 0.0 -2.5567470201698383 0.867781467221245
    vertex 0.0 -1.7762146113423758 3.5840007888467107
    vertex 0.0 -2.2450296073657974 1.4999473530930936
  endloop
endfacet
facet normal -1.0 0.0 0.0
  outer loop
    vertex 0.0 -2.2450296073657974 1.4999473530930936
    vertex 0.0 -1.7762146113423758 3.5840007888467107
    vertex 0.0 -1.7803171369066229 2.0298943056318497
  endloop
endfacet
facet normal -1.0 0.0 0.0
  outer loop
    vertex 0.0 -1.7803171369066229 2.0298943056318497
    vertex 0.0 -1.7762146113423758 3.5840007888467107
    vertex 0.0 -1.1942789956804374 2.4215073158007447
  endloop
endfacet
facet normal -1.0 0.0 0.0
  outer loop
    vertex 0.0 -1.1942789956804374 2.4215073158007447
    vertex 0.0 -1.7762146113423758 3.5840007888467107
    vertex 0.0 -0.7880839043116141 3.9215970929922106
  endloop
endfacet
facet normal -1.0 0.0 0.0
  outer loop
    vertex 0.0 -1.1942789956804374 2.4215073158007447
    vertex 0.0 -0.7880839043116141 3.9215970929922106
    vertex 0.0 -0.5268527145379887 2.648098604127867
  endloop
endfacet
facet normal -1.0 0.0 0.0
  outer loop
    vertex 0.0 -0.5268527145379887 2.648098604127867
    vertex 0.0 -0.7880839043116141 3.9215970929922106
    vertex 0.0 0.25375341842775473 3.9919430359959076
  endloop
endfacet
facet normal -1.0 0.0 0.0
  outer loop
    vertex 0.0 -0.5268527145379887 2.648098604127867
    vertex 0.0 0.25375341842775473 3.9919430359959076
    vertex 0.0 0.1764777084349471 2.694226348773531
  endloop
endfacet
facet normal -1.0 0.0 0.0
  outer loop
    vertex 0.0 0.1764777084349471 2.694226348773531
    vertex 0.0 0.25375341842775473 3.9919430359959076
    vertex 0.0 0.8677814672212439 2.5567470201698383
  endloop
endfacet
facet normal -1.0 0.0 0.0
  outer loop
    vertex 0.0 0.8677814672212439 2.5567470201698383
    vertex 0.0 0.25375341842775473 3.9919430359959076
    vertex 0.0 1.2782978650486225 3.790244658094267
  endloop
endfacet
facet normal -1.0 0.0 0.0
  outer loop
    vertex 0.0 0.8677814672212439 2.5567470201698383
    vertex 0.0 1.2782978650486225 3.790244658094267
    vertex 0.0 1.4999473530930927 2.2450296073657974
  endloop
endfacet
facet normal -1.0 0.0 0.0
  outer loop
    vertex 0.0 1.4999473530930927 2.2450296073657974
    vertex 0.0 1.2782978650486225 3.790244658094267
    vertex 0.0 2.2157284246535314 3.330247370418956
  endloop
endfacet
facet normal -1.0 0.0 0.0
  outer loop
    vertex 0.0 1.4999473530930927 2.2450296073657974
    vertex 0.0 2.2157284246535314 3.330247370418956
    vertex 0.0 2.0298943056318492 1.7803171369066224
  endloop
endfacet
facet normal -1.0 0.0 0.0
  outer loop
    vertex 0.0 2.0298943056318492 1.7803171369066224
    vertex 0.0 2.2157284246535314 3.330247370418956
    vertex 0.0 2.421507315800745 1.1942789956804356
  endloop
endfacet
facet normal -1.0 0.0 0.0
  outer loop
    vertex 0.0 2.421507315800745 1.1942789956804356
    vertex 0.0 2.2157284246535314 3.330247370418956
    vertex 0.0 3.0021607537826527 2.6432992279435874
  endloop
endfacet
facet normal -1.0 0.0 0.0
  outer loop
    vertex 0.0 2.421507315800745 1.1942789956804356
    vertex 0.0 3.0021607537826527 2.6432992279435874
    vertex 0.0 2.6480986041278665 0.5268527145379871
  endloop
endfacet
facet normal -1.0 0.0 0.0
  outer loop
    vertex 0.0 2.6480986041278665 0.5268527145379871
    vertex 0.0 3.0021607537826527 2.6432992279435874
    vertex 0.0 2.694226348773531 -0.17647770843494798
  endloop
endfacet
facet normal -1.0 0.0 0.0
  outer loop
    vertex 0.0 -3.002160753782652 -2.6432992279435887
    vertex 0.0 -2.6480986041278665 -0.5268527145379874
    vertex 0.0 -2.2157284246535314 -3.330247370418957
  endloop
endfacet
facet normal -1.0 0.0 0.0
  outer loop
    vertex 0.0 -2.6480986041278665 -0.5268527145379874
    vertex 0.0 -3.002160753782652 -2.6432992279435887
    vertex 0.0 -2.694226348773531 0.17647770843494778
  endloop
endfacet
facet normal -1.0 0.0 0.0
  outer loop
    vertex 0.0 -2.2157284246535314 -3.330247370418957
    vertex 0.0 -2.6480986041278665 -0.5268527145379874
    vertex 0.0 -2.4215073158007447 -1.1942789956804372
  endloop
endfacet
facet normal -1.0 0.0 0.0
  outer loop
    vertex 0.0 -2.2157284246535314 -3.330247370418957
    vertex 0.0 -2.4215073158007447 -1.1942789956804372
    vertex 0.0 -2.0298943056318497 -1.780317136906622
  endloop
endfacet
facet normal -1.0 0.0 0.0
  outer loop
    vertex 0.0 -2.2157284246535314 -3.330247370418957
    vertex 0.0 -2.0298943056318497 -1.780317136906622
    vertex 0.0 -1.2782978650486203 -3.790244658094267
  endloop
endfacet
facet normal -1.0 0.0 0.0
  outer loop
    vertex 0.0 -1.2782978650486203 -3.790244658094267
    vertex 0.0 -2.0298943056318497 -1.780317136906622
    vertex 0.0 -1.4999473530930938 -2.2450296073657965
  endloop
endfacet
facet normal -1.0 0.0 0.0
  outer loop
    vertex 0.0 -1.2782978650486203 -3.790244658094267
    vertex 0.0 -1.4999473530930938 -2.2450296073657965
    vertex 0.0 -0.8677814672212445 -2.5567470201698383
  endloop
endfacet
facet normal -1.0 0.0 0.0
  outer loop
    vertex 0.0 -1.2782978650486203 -3.790244658094267
    vertex 0.0 -0.8677814672212445 -2.5567470201698383
    vertex 0.0 -0.25375341842775295 -3.991943035995907
  endloop
endfacet
facet normal -1.0 0.0 0.0
  outer loop
    vertex 0.0 -0.25375341842775295 -3.991943035995907
    vertex 0.0 -0.8677814672212445 -2.5567470201698383
    vertex 0.0 -0.1764777084349483 -2.694226348773531
  endloop
endfacet
facet normal -1.0 0.0 0.0
  outer loop
    vertex 0.0 -0.25375341842775295 -3.991943035995907
    vertex 0.0 -0.1764777084349483 -2.694226348773531
    vertex 0.0 0.7880839043116153 -3.9215970929922097
  endloop
endfacet
facet normal -1.0 0.0 0.0
  outer loop
    vertex 0.0 0.7880839043116153 -3.9215970929922097
    vertex 0.0 -0.1764777084349483 -2.694226348773531
    vertex 0.0 0.5268527145379875 -2.6480986041278665
  endloop
endfacet
facet normal -1.0 0.0 0.0
  outer loop
    vertex 0.0 0.7880839043116153 -3.9215970929922097
    vertex 0.0 0.5268527145379875 -2.6480986041278665
    vertex 0.0 1.1942789956804363 -2.421507315800746
  endloop
endfacet
facet normal -1.0 0.0 0.0
  outer loop
    vertex 0.0 0.7880839043116153 -3.9215970929922097
    vertex 0.0 1.1942789956804363 -2.421507315800746
    vertex 0.0 1.776214611342377 -3.5840007888467107
  endloop
endfacet
facet normal -1.0 0.0 0.0
  outer loop
    vertex 0.0 1.776214611342377 -3.5840007888467107
    vertex 0.0 1.1942789956804363 -2.421507315800746
    vertex 0.0 1.7803171369066224 -2.02989430563185
  endloop
endfacet
facet normal -1.0 0.0 0.0
  outer loop
    vertex 0.0 1.776214611342377 -3.5840007888467107
    vertex 0.0 1.7803171369066224 -2.02989430563185
    vertex 0.0 2.6432992279435887 -3.0021607537826522
  endloop
endfacet
facet normal -1.0 0.0 0.0
  outer loop
    vertex 0.0 2.6432992279435887 -3.0021607537826522
    vertex 0.0 1.7803171369066224 -2.02989430563185
    vertex 0.0 2.2450296073657965 -1.4999473530930945
  endloop
endfacet
facet normal -1.0 0.0 0.0
  outer loop
    vertex 0.0 2.6432992279435887 -3.0021607537826522
    vertex 0.0 2.2450296073657965 -1.4999473530930945
    vertex 0.0 2.5567470201698375 -0.8677814672212464
  endloop
endfacet
facet normal -1.0 0.0 0.0
  outer loop
    vertex 0.0 2.6432992279435887 -3.0021607537826522
    vertex 0.0 2.5567470201698375 -0.8677814672212464
    vertex 0.0 2.694226348773531 -0.17647770843494798
  endloop
endfacet
facet normal -1.0 0.0 0.0
  outer loop
    vertex 0.0 2.6432992279435887 -3.0021607537826522
    vertex 0.0 2.694226348773531 -0.17647770843494798
    vertex 0.0 3.330247370418956 -2.2157284246535314
  endloop
endfacet
facet normal -1.0 0.0 0.0
  outer loop
    vertex 0.0 3.330247370418956 -2.2157284246535314
    vertex 0.0 2.694226348773531 -0.17647770843494798
    vertex 0.0 3.0021607537826527 2.6432992279435874
  endloop
endfacet
facet normal -1.0 0.0 0.0
  outer loop
    vertex 0.0 3.330247370418956 -2.2157284246535314
    vertex 0.0 3.0021607537826527 2.6432992279435874
    vertex 0.0 3.5840007888467107 1.776214611342377
  endloop
endfacet
facet normal -1.0 0.0 0.0
  outer loop
    vertex 0.0 3.330247370418956 -2.2157284246535314
    vertex 0.0 3.5840007888467107 1.776214611342377
    vertex 0.0 3.790244658094267 -1.2782978650486223
  endloop
endfacet
facet normal -1.0 0.0 0.0
  outer loop
    vertex 0.0 3.790244658094267 -1.2782978650486223
    vertex 0.0 3.5840007888467107 1.776214611342377
    vertex 0.0 3.9215970929922106 0.7880839043116141
  endloop
endfacet
facet normal -1.0 0.0 0.0
  outer loop
    vertex 0.0 3.790244658094267 -1.2782978650486223
    vertex 0.0 3.9215970929922106 0.7880839043116141
    vertex 0.0 3.9919430359959076 -0.2537534184277537
  endloop
endfacet
facet normal 1.0 -0.0 -0.0
  outer loop
    vertex 78.0 -3.002160753782652 -2.6432992279435887
    vertex 78.0 -2.6480986041278665 -0.5268527145379874
    vertex 78.0 -2.694226348773531 0.17647770843494778
  endloop
endfacet
facet normal 1.0 -0.0 -0.0
  outer loop
    vertex 78.0 -2.6480986041278665 -0.5268527145379874
    vertex 78.0 -3.002160753782652 -2.6432992279435887
    vertex 78.0 -2.2157284246535314 -3.330247370418957
  endloop
endfacet
facet normal 1.0 -0.0 -0.0
  outer loop
    vertex 78.0 -2.6480986041278665 -0.5268527145379874
    vertex 78.0 -2.2157284246535314 -3.330247370418957
    vertex 78.0 -2.4215073158007447 -1.1942789956804372
  endloop
endfacet
facet normal 1.0 -0.0 -0.0
  outer loop
    vertex 78.0 -2.4215073158007447 -1.1942789956804372
    vertex 78.0 -2.2157284246535314 -3.330247370418957
    vertex 78.0 -2.0298943056318497 -1.780317136906622
  endloop
endfacet
facet normal 1.0 -0.0 -0.0
  outer loop
    vertex 78.0 -2.0298943056318497 -1.780317136906622
    vertex 78.0 -2.2157284246535314 -3.330247370418957
    vertex 78.0 -1.2782978650486203 -3.790244658094267
  endloop
endfacet
facet normal 1.0 -0.0 -0.0
  outer loop
    vertex 78.0 -2.0298943056318497 -1.780317136906622
    vertex 78.0 -1.2782978650486203 -3.790244658094267
    vertex 78.0 -1.4999473530930938 -2.2450296073657965
  endloop
endfacet
facet normal 1.0 -0.0 -0.0
  outer loop
    vertex 78.0 -1.4999473530930938 -2.2450296073657965
    vertex 78.0 -1.2782978650486203 -3.790244658094267
    vertex 78.0 -0.8677814672212445 -2.5567470201698383
  endloop
endfacet
facet normal 1.0 -0.0 -0.0
  outer loop
    vertex 78.0 -0.8677814672212445 -2.5567470201698383
    vertex 78.0 -1.2782978650486203 -3.790244658094267
    vertex 78.0 -0.25375341842775295 -3.991943035995907
  endloop
endfacet
facet normal 1.0 -0.0 -0.0
  outer loop
    vertex 78.0 -0.8677814672212445 -2.5567470201698383
    vertex 78.0 -0.25375341842775295 -3.991943035995907
    vertex 78.0 -0.1764777084349483 -2.694226348773531
  endloop
endfacet
facet normal 1.0 -0.0 -0.0
  outer loop
    vertex 78.0 -0.1764777084349483 -2.694226348773531
    vertex 78.0 -0.25375341842775295 -3.991943035995907
    vertex 78.0 0.7880839043116153 -3.9215970929922097
  endloop
endfacet
facet normal 1.0 -0.0 -0.0
  outer loop
    vertex 78.0 -0.1764777084349483 -2.694226348773531
    vertex 78.0 0.7880839043116153 -3.9215970929922097
    vertex 78.0 0.5268527145379875 -2.6480986041278665
  endloop
endfacet
facet normal 1.0 -0.0 -0.0
  outer loop
    vertex 78.0 0.5268527145379875 -2.6480986041278665
    vertex 78.0 0.7880839043116153 -3.9215970929922097
    vertex 78.0 1.1942789956804363 -2.421507315800746
  endloop
endfacet
facet normal 1.0 -0.0 -0.0
  outer loop
    vertex 78.0 1.1942789956804363 -2.421507315800746
    vertex 78.0 0.7880839043116153 -3.9215970929922097
    vertex 78.0 1.776214611342377 -3.5840007888467107
  endloop
endfacet
facet normal 1.0 -0.0 -0.0
  outer loop
    vertex 78.0 1.1942789956804363 -2.421507315800746
    vertex 78.0 1.776214611342377 -3.5840007888467107
    vertex 78.0 1.7803171369066224 -2.02989430563185
  endloop
endfacet
facet normal 1.0 -0.0 -0.0
  outer loop
    vertex 78.0 1.7803171369066224 -2.02989430563185
    vertex 78.0 1.776214611342377 -3.5840007888467107
    vertex 78.0 2.6432992279435887 -3.0021607537826522
  endloop
endfacet
facet normal 1.0 -0.0 -0.0
  outer loop
    vertex 78.0 1.7803171369066224 -2.02989430563185
    vertex 78.0 2.6432992279435887 -3.0021607537826522
    vertex 78.0 2.2450296073657965 -1.4999473530930945
  endloop
endfacet
facet normal 1.0 -0.0 -0.0
  outer loop
    vertex 78.0 2.2450296073657965 -1.4999473530930945
    vertex 78.0 2.6432992279435887 -3.0021607537826522
    vertex 78.0 2.5567470201698375 -0.8677814672212464
  endloop
endfacet
facet normal 1.0 -0.0 -0.0
  outer loop
    vertex 78.0 2.5567470201698375 -0.8677814672212464
    vertex 78.0 2.6432992279435887 -3.0021607537826522
    vertex 78.0 2.694226348773531 -0.17647770843494798
  endloop
endfacet
facet normal 1.0 -0.0 -0.0
  outer loop
    vertex 78.0 2.694226348773531 -0.17647770843494798
    vertex 78.0 2.6432992279435887 -3.0021607537826522
    vertex 78.0 3.330247370418956 -2.2157284246535314
  endloop
endfacet
facet normal 1.0 -0.0 -0.0
  outer loop
    vertex 78.0 2.694226348773531 -0.17647770843494798
    vertex 78.0 3.330247370418956 -2.2157284246535314
    vertex 78.0 3.0021607537826527 2.6432992279435874
  endloop
endfacet
facet normal 1.0 -0.0 -0.0
  outer loop
    vertex 78.0 3.0021607537826527 2.6432992279435874
    vertex 78.0 3.330247370418956 -2.2157284246535314
    vertex 78.0 3.5840007888467107 1.776214611342377
  endloop
endfacet
facet normal 1.0 -0.0 -0.0
  outer loop
    vertex 78.0 3.5840007888467107 1.776214611342377
    vertex 78.0 3.330247370418956 -2.2157284246535314
    vertex 78.0 3.790244658094267 -1.2782978650486223
  endloop
endfacet
facet normal 1.0 -0.0 -0.0
  outer loop
    vertex 78.0 3.5840007888467107 1.776214611342377
    vertex 78.0 3.790244658094267 -1.2782978650486223
    vertex 78.0 3.9215970929922106 0.7880839043116141
  endloop
endfacet
facet normal 1.0 -0.0 -0.0
  outer loop
    vertex 78.0 3.9215970929922106 0.7880839043116141
    vertex 78.0 3.790244658094267 -1.2782978650486223
    vertex 78.0 3.9919430359959076 -0.2537534184277537
  endloop
endfacet
facet normal 1.0 -0.0 -0.0
  outer loop
    vertex 78.0 -3.9215970929922106 -0.7880839043116141
    vertex 78.0 -3.790244658094267 1.27829786504862
    vertex 78.0 -3.991943035995907 0.25375341842775295
  endloop
endfacet
facet normal 1.0 -0.0 -0.0
  outer loop
    vertex 78.0 -3.790244658094267 1.27829786504862
    vertex 78.0 -3.9215970929922106 -0.7880839043116141
    vertex 78.0 -3.5840007888467094 -1.776214611342378
  endloop
endfacet
facet normal 1.0 -0.0 -0.0
  outer loop
    vertex 78.0 -3.790244658094267 1.27829786504862
    vertex 78.0 -3.5840007888467094 -1.776214611342378
    vertex 78.0 -3.330247370418956 2.215728424653532
  endloop
endfacet
facet normal 1.0 -0.0 -0.0
  outer loop
    vertex 78.0 -3.330247370418956 2.215728424653532
    vertex 78.0 -3.5840007888467094 -1.776214611342378
    vertex 78.0 -3.002160753782652 -2.6432992279435887
  endloop
endfacet
facet normal 1.0 -0.0 -0.0
  outer loop
    vertex 78.0 -3.330247370418956 2.215728424653532
    vertex 78.0 -3.002160753782652 -2.6432992279435887
    vertex 78.0 -2.643299227943587 3.002160753782653
  endloop
endfacet
facet normal 1.0 -0.0 -0.0
  outer loop
    vertex 78.0 -2.643299227943587 3.002160753782653
    vertex 78.0 -3.002160753782652 -2.6432992279435887
    vertex 78.0 -2.694226348773531 0.17647770843494778
  endloop
endfacet
facet normal 1.0 -0.0 -0.0
  outer loop
    vertex 78.0 -2.643299227943587 3.002160753782653
    vertex 78.0 -2.694226348773531 0.17647770843494778
    vertex 78.0 -2.5567470201698383 0.867781467221245
  endloop
endfacet
facet normal 1.0 -0.0 -0.0
  outer loop
    vertex 78.0 -2.643299227943587 3.002160753782653
    vertex 78.0 -2.5567470201698383 0.867781467221245
    vertex 78.0 -1.7762146113423758 3.5840007888467107
  endloop
endfacet
facet normal 1.0 -0.0 -0.0
  outer loop
    vertex 78.0 -1.7762146113423758 3.5840007888467107
    vertex 78.0 -2.5567470201698383 0.867781467221245
    vertex 78.0 -2.2450296073657974 1.4999473530930936
  endloop
endfacet
facet normal 1.0 -0.0 -0.0
  outer loop
    vertex 78.0 -1.7762146113423758 3.5840007888467107
    vertex 78.0 -2.2450296073657974 1.4999473530930936
    vertex 78.0 -1.7803171369066229 2.0298943056318497
  endloop
endfacet
facet normal 1.0 -0.0 -0.0
  outer loop
    vertex 78.0 -1.7762146113423758 3.5840007888467107
    vertex 78.0 -1.7803171369066229 2.0298943056318497
    vertex 78.0 -1.1942789956804374 2.4215073158007447
  endloop
endfacet
facet normal 1.0 -0.0 -0.0
  outer loop
    vertex 78.0 -1.7762146113423758 3.5840007888467107
    vertex 78.0 -1.1942789956804374 2.4215073158007447
    vertex 78.0 -0.7880839043116141 3.9215970929922106
  endloop
endfacet
facet normal 1.0 -0.0 -0.0
  outer loop
    vertex 78.0 -0.7880839043116141 3.9215970929922106
    vertex 78.0 -1.1942789956804374 2.4215073158007447
    vertex 78.0 -0.5268527145379887 2.648098604127867
  endloop
endfacet
facet normal 1.0 -0.0 -0.0
  outer loop
    vertex 78.0 -0.7880839043116141 3.9215970929922106
    vertex 78.0 -0.5268527145379887 2.648098604127867
    vertex 78.0 0.25375341842775473 3.9919430359959076
  endloop
endfacet
facet normal 1.0 -0.0 -0.0
  outer loop
    vertex 78.0 0.25375341842775473 3.9919430359959076
    vertex 78.0 -0.5268527145379887 2.648098604127867
    vertex 78.0 0.1764777084349471 2.694226348773531
  endloop
endfacet
facet normal 1.0 -0.0 -0.0
  outer loop
    vertex 78.0 0.25375341842775473 3.9919430359959076
    vertex 78.0 0.1764777084349471 2.694226348773531
    vertex 78.0 0.8677814672212439 2.5567470201698383
  endloop
endfacet
facet normal 1.0 -0.0 -0.0
  outer loop
    vertex 78.0 0.25375341842775473 3.9919430359959076
    vertex 78.0 0.8677814672212439 2.5567470201698383
    vertex 78.0 1.2782978650486225 3.790244658094267
  endloop
endfacet
facet normal 1.0 -0.0 -0.0
  outer loop
    vertex 78.0 1.2782978650486225 3.790244658094267
    vertex 78.0 0.8677814672212439 2.5567470201698383
    vertex 78.0 1.4999473530930927 2.2450296073657974
  endloop
endfacet
facet normal 1.0 -0.0 -0.0
  outer loop
    vertex 78.0 1.2782978650486225 3.790244658094267
    vertex 78.0 1.4999473530930927 2.2450296073657974
    vertex 78.0 2.2157284246535314 3.330247370418956
  endloop
endfacet
facet normal 1.0 -0.0 -0.0
  outer loop
    vertex 78.0 2.2157284246535314 3.330247370418956
    vertex 78.0 1.4999473530930927 2.2450296073657974
    vertex 78.0 2.0298943056318492 1.7803171369066224
  endloop
endfacet
facet normal 1.0 -0.0 -0.0
  outer loop
    vertex 78.0 2.2157284246535314 3.330247370418956
    vertex 78.0 2.0298943056318492 1.7803171369066224
    vertex 78.0 2.421507315800745 1.1942789956804356
  endloop
endfacet
facet normal 1.0 -0.0 -0.0
  outer loop
    vertex 78.0 2.2157284246535314 3.330247370418956
    vertex 78.0 2.421507315800745 1.1942789956804356
    vertex 78.0 3.0021607537826527 2.6432992279435874
  endloop
endfacet
facet normal 1.0 -0.0 -0.0
  outer loop
    vertex 78.0 3.0021607537826527 2.6432992279435874
    vertex 78.0 2.421507315800745 1.1942789956804356
    vertex 78.0 2.6480986041278665 0.5268527145379871
  endloop
endfacet
facet normal 1.0 -0.0 -0.0
  outer loop
    vertex 78.0 3.0021607537826527 2.6432992279435874
    vertex 78.0 2.6480986041278665 0.5268527145379871
    vertex 78.0 2.694226348773531 -0.17647770843494798
  endloop
endfacet
facet normal 0.0 -0.19702097607790384 0.9803992732480529
  outer loop
    vertex 78.0 -0.7880839043116141 3.9215970929922106
    vertex 0.0 0.25375341842775473 3.9919430359959076
    vertex 0.0 -0.7880839043116141 3.9215970929922106
  endloop
endfacet
facet normal 0.0 0.06343835460693864 0.997985758998977
  outer loop
    vertex 0.0 0.25375341842775473 3.9919430359959076
    vertex 78.0 -0.7880839043116141 3.9215970929922106
    vertex 78.0 0.25375341842775473 3.9919430359959076
  endloop
endfacet
facet normal 0.0 0.06343835460693864 0.997985758998977
  outer loop
    vertex 78.0 0.25375341842775473 3.9919430359959076
    vertex 0.0 1.2782978650486225 3.790244658094267
    vertex 0.0 0.25375341842775473 3.9919430359959076
  endloop
endfacet
facet normal 0.0 0.31957446626215613 0.9475611645235669
  outer loop
    vertex 0.0 1.2782978650486225 3.790244658094267
    vertex 78.0 0.25375341842775473 3.9919430359959076
    vertex 78.0 1.2782978650486225 3.790244658094267
  endloop
endfacet
facet normal 0.0 0.31957446626215613 0.9475611645235669
  outer loop
    vertex 78.0 1.2782978650486225 3.790244658094267
    vertex 0.0 2.2157284246535314 3.330247370418956
    vertex 0.0 1.2782978650486225 3.790244658094267
  endloop
endfacet
facet normal 0.0 0.5539321061633832 0.8325618426047391
  outer loop
    vertex 0.0 2.2157284246535314 3.330247370418956
    vertex 78.0 1.2782978650486225 3.790244658094267
    vertex 78.0 2.2157284246535314 3.330247370418956
  endloop
endfacet
facet normal 0.0 0.5539321061633832 0.8325618426047391
  outer loop
    vertex 78.0 2.2157284246535314 3.330247370418956
    vertex 0.0 3.0021607537826527 2.6432992279435874
    vertex 0.0 2.2157284246535314 3.330247370418956
  endloop
endfacet
facet normal 0.0 0.7505401884456633 0.6608248069858972
  outer loop
    vertex 0.0 3.0021607537826527 2.6432992279435874
    vertex 78.0 2.2157284246535314 3.330247370418956
    vertex 78.0 3.0021607537826527 2.6432992279435874
  endloop
endfacet
facet normal 0.0 0.7505401884456633 0.6608248069858972
  outer loop
    vertex 0.0 3.0021607537826527 2.6432992279435874
    vertex 78.0 3.5840007888467107 1.776214611342377
    vertex 0.0 3.5840007888467107 1.776214611342377
  endloop
endfacet
facet normal 0.0 0.8960001972116777 0.4440536528355943
  outer loop
    vertex 78.0 3.5840007888467107 1.776214611342377
    vertex 0.0 3.0021607537826527 2.6432992279435874
    vertex 78.0 3.0021607537826527 2.6432992279435874
  endloop
endfacet
facet normal 0.0 0.8960001972116777 0.4440536528355943
  outer loop
    vertex 0.0 3.5840007888467107 1.776214611342377
    vertex 78.0 3.9215970929922106 0.7880839043116141
    vertex 0.0 3.9215970929922106 0.7880839043116141
  endloop
endfacet
facet normal 0.0 0.9803992732480528 0.19702097607790367
  outer loop
    vertex 78.0 3.9215970929922106 0.7880839043116141
    vertex 0.0 3.5840007888467107 1.776214611342377
    vertex 78.0 3.5840007888467107 1.776214611342377
  endloop
endfacet
facet normal 0.0 0.9803992732480528 0.19702097607790367
  outer loop
    vertex 0.0 3.9215970929922106 0.7880839043116141
    vertex 78.0 3.9919430359959076 -0.2537534184277537
    vertex 0.0 3.9919430359959076 -0.2537534184277537
  endloop
endfacet
facet normal 0.0 0.997985758998977 -0.0634383546069385
  outer loop
    vertex 78.0 3.9919430359959076 -0.2537534184277537
    vertex 0.0 3.9215970929922106 0.7880839043116141
    vertex 78.0 3.9215970929922106 0.7880839043116141
  endloop
endfacet
facet normal 0.0 0.997985758998977 -0.0634383546069385
  outer loop
    vertex 0.0 3.9919430359959076 -0.2537534184277537
    vertex 78.0 3.790244658094267 -1.2782978650486223
    vertex 0.0 3.790244658094267 -1.2782978650486223
  endloop
endfacet
facet normal 0.0 0.9475611645235669 -0.31957446626215597
  outer loop
    vertex 78.0 3.790244658094267 -1.2782978650486223
    vertex 0.0 3.9919430359959076 -0.2537534184277537
    vertex 78.0 3.9919430359959076 -0.2537534184277537
  endloop
endfacet
facet normal 0.0 0.9475611645235669 -0.31957446626215597
  outer loop
    vertex 0.0 3.790244658094267 -1.2782978650486223
    vertex 78.0 3.330247370418956 -2.2157284246535314
    vertex 0.0 3.330247370418956 -2.2157284246535314
  endloop
endfacet
facet normal 0.0 0.8325618426047394 -0.553932106163383
  outer loop
    vertex 78.0 3.330247370418956 -2.2157284246535314
    vertex 0.0 3.790244658094267 -1.2782978650486223
    vertex 78.0 3.790244658094267 -1.2782978650486223
  endloop
endfacet
facet normal 0.0 0.8325618426047394 -0.553932106163383
  outer loop
    vertex 0.0 3.330247370418956 -2.2157284246535314
    vertex 78.0 2.6432992279435887 -3.0021607537826522
    vertex 0.0 2.6432992279435887 -3.0021607537826522
  endloop
endfacet
facet normal 0.0 0.6608248069858974 -0.7505401884456632
  outer loop
    vertex 78.0 2.6432992279435887 -3.0021607537826522
    vertex 0.0 3.330247370418956 -2.2157284246535314
    vertex 78.0 3.330247370418956 -2.2157284246535314
  endloop
endfacet
facet normal 0.0 0.6608248069858974 -0.7505401884456632
  outer loop
    vertex 78.0 2.6432992279435887 -3.0021607537826522
    vertex 0.0 1.776214611342377 -3.5840007888467107
    vertex 0.0 2.6432992279435887 -3.0021607537826522
  endloop
endfacet
facet normal 0.0 0.44405365283559417 -0.8960001972116779
  outer loop
    vertex 0.0 1.776214611342377 -3.5840007888467107
    vertex 78.0 2.6432992279435887 -3.0021607537826522
    vertex 78.0 1.776214611342377 -3.5840007888467107
  endloop
endfacet
facet normal 0.0 0.44405365283559417 -0.8960001972116779
  outer loop
    vertex 78.0 1.776214611342377 -3.5840007888467107
    vertex 0.0 0.7880839043116153 -3.9215970929922097
    vertex 0.0 1.776214611342377 -3.5840007888467107
  endloop
endfacet
facet normal 0.0 0.19702097607790356 -0.980399273248053
  outer loop
    vertex 0.0 0.7880839043116153 -3.9215970929922097
    vertex 78.0 1.776214611342377 -3.5840007888467107
    vertex 78.0 0.7880839043116153 -3.9215970929922097
  endloop
endfacet
facet normal 0.0 0.19702097607790356 -0.980399273248053
  outer loop
    vertex 78.0 0.7880839043116153 -3.9215970929922097
    vertex 0.0 -0.25375341842775295 -3.991943035995907
    vertex 0.0 0.7880839043116153 -3.9215970929922097
  endloop
endfacet
facet normal 0.0 -0.06343835460693834 -0.997985758998977
  outer loop
    vertex 0.0 -0.25375341842775295 -3.991943035995907
    vertex 78.0 0.7880839043116153 -3.9215970929922097
    vertex 78.0 -0.25375341842775295 -3.991943035995907
  endloop
endfacet
facet normal 0.0 -0.06343835460693834 -0.997985758998977
  outer loop
    vertex 78.0 -0.25375341842775295 -3.991943035995907
    vertex 0.0 -1.2782978650486203 -3.790244658094267
    vertex 0.0 -0.25375341842775295 -3.991943035995907
  endloop
endfacet
facet normal 0.0 -0.3195744662621551 -0.9475611645235672
  outer loop
    vertex 0.0 -1.2782978650486203 -3.790244658094267
    vertex 78.0 -0.25375341842775295 -3.991943035995907
    vertex 78.0 -1.2782978650486203 -3.790244658094267
  endloop
endfacet
facet normal 0.0 -0.3195744662621551 -0.9475611645235672
  outer loop
    vertex 78.0 -1.2782978650486203 -3.790244658094267
    vertex 0.0 -2.2157284246535314 -3.330247370418957
    vertex 0.0 -1.2782978650486203 -3.790244658094267
  endloop
endfacet
facet normal 0.0 -0.5539321061633824 -0.8325618426047396
  outer loop
    vertex 0.0 -2.2157284246535314 -3.330247370418957
    vertex 78.0 -1.2782978650486203 -3.790244658094267
    vertex 78.0 -2.2157284246535314 -3.330247370418957
  endloop
endfacet
facet normal 0.0 -0.5539321061633824 -0.8325618426047396
  outer loop
    vertex 78.0 -2.2157284246535314 -3.330247370418957
    vertex 0.0 -3.002160753782652 -2.6432992279435887
    vertex 0.0 -2.2157284246535314 -3.330247370418957
  endloop
endfacet
facet normal 0.0 -0.7505401884456634 -0.6608248069858971
  outer loop
    vertex 0.0 -3.002160753782652 -2.6432992279435887
    vertex 78.0 -2.2157284246535314 -3.330247370418957
    vertex 78.0 -3.002160753782652 -2.6432992279435887
  endloop
endfacet
facet normal 0.0 -0.8960001972116777 -0.44405365283559445
  outer loop
    vertex 78.0 -3.5840007888467094 -1.776214611342378
    vertex 0.0 -3.002160753782652 -2.6432992279435887
    vertex 78.0 -3.002160753782652 -2.6432992279435887
  endloop
endfacet
facet normal 0.0 -0.7505401884456634 -0.6608248069858971
  outer loop
    vertex 0.0 -3.002160753782652 -2.6432992279435887
    vertex 78.0 -3.5840007888467094 -1.776214611342378
    vertex 0.0 -3.5840007888467094 -1.776214611342378
  endloop
endfacet
facet normal 0.0 -0.9803992732480528 -0.19702097607790384
  outer loop
    vertex 78.0 -3.9215970929922106 -0.7880839043116141
    vertex 0.0 -3.5840007888467094 -1.776214611342378
    vertex 78.0 -3.5840007888467094 -1.776214611342378
  endloop
endfacet
facet normal 0.0 -0.8960001972116777 -0.44405365283559445
  outer loop
    vertex 0.0 -3.5840007888467094 -1.776214611342378
    vertex 78.0 -3.9215970929922106 -0.7880839043116141
    vertex 0.0 -3.9215970929922106 -0.7880839043116141
  endloop
endfacet
facet normal 0.0 -0.997985758998977 0.06343835460693863
  outer loop
    vertex 78.0 -3.991943035995907 0.25375341842775295
    vertex 0.0 -3.9215970929922106 -0.7880839043116141
    vertex 78.0 -3.9215970929922106 -0.7880839043116141
  endloop
endfacet
facet normal 0.0 -0.9803992732480528 -0.19702097607790384
  outer loop
    vertex 0.0 -3.9215970929922106 -0.7880839043116141
    vertex 78.0 -3.991943035995907 0.25375341842775295
    vertex 0.0 -3.991943035995907 0.25375341842775295
  endloop
endfacet
facet normal 0.0 -0.9475611645235672 0.3195744662621553
  outer loop
    vertex 78.0 -3.790244658094267 1.27829786504862
    vertex 0.0 -3.991943035995907 0.25375341842775295
    vertex 78.0 -3.991943035995907 0.25375341842775295
  endloop
endfacet
facet normal 0.0 -0.997985758998977 0.06343835460693863
  outer loop
    vertex 0.0 -3.991943035995907 0.25375341842775295
    vertex 78.0 -3.790244658094267 1.27829786504862
    vertex 0.0 -3.790244658094267 1.27829786504862
  endloop
endfacet
facet normal 0.0 -0.8325618426047394 0.5539321061633827
  outer loop
    vertex 78.0 -3.330247370418956 2.215728424653532
    vertex 0.0 -3.790244658094267 1.27829786504862
    vertex 78.0 -3.790244658094267 1.27829786504862
  endloop
endfacet
facet normal 0.0 -0.9475611645235672 0.3195744662621553
  outer loop
    vertex 0.0 -3.790244658094267 1.27829786504862
    vertex 78.0 -3.330247370418956 2.215728424653532
    vertex 0.0 -3.330247370418956 2.215728424653532
  endloop
endfacet
facet normal 0.0 -0.660824806985897 0.7505401884456635
  outer loop
    vertex 78.0 -2.643299227943587 3.002160753782653
    vertex 0.0 -3.330247370418956 2.215728424653532
    vertex 78.0 -3.330247370418956 2.215728424653532
  endloop
endfacet
facet normal 0.0 -0.8325618426047394 0.5539321061633827
  outer loop
    vertex 0.0 -3.330247370418956 2.215728424653532
    vertex 78.0 -2.643299227943587 3.002160753782653
    vertex 0.0 -2.643299227943587 3.002160753782653
  endloop
endfacet
facet normal 0.0 -0.660824806985897 0.7505401884456635
  outer loop
    vertex 78.0 -2.643299227943587 3.002160753782653
    vertex 0.0 -1.7762146113423758 3.5840007888467107
    vertex 0.0 -2.643299227943587 3.002160753782653
  endloop
endfacet
facet normal 0.0 -0.4440536528355942 0.8960001972116779
  outer loop
    vertex 0.0 -1.7762146113423758 3.5840007888467107
    vertex 78.0 -2.643299227943587 3.002160753782653
    vertex 78.0 -1.7762146113423758 3.5840007888467107
  endloop
endfacet
facet normal 0.0 -0.4440536528355942 0.8960001972116779
  outer loop
    vertex 78.0 -1.7762146113423758 3.5840007888467107
    vertex 0.0 -0.7880839043116141 3.9215970929922106
    vertex 0.0 -1.7762146113423758 3.5840007888467107
  endloop
endfacet
facet normal 0.0 -0.19702097607790384 0.9803992732480529
  outer loop
    vertex 0.0 -0.7880839043116141 3.9215970929922106
    vertex 78.0 -1.7762146113423758 3.5840007888467107
    vertex 78.0 -0.7880839043116141 3.9215970929922106
  endloop
endfacet
facet normal 0.0 0.6593767173728228 -0.751812705789574
  outer loop
    vertex 0.0 -1.7803171369066229 2.0298943056318497
    vertex 78.0 -2.2450296073657974 1.4999473530930936
    vertex 0.0 -2.2450296073657974 1.4999473530930936
  endloop
endfacet
facet normal 0.0 0.8314924471725174 -0.5555360567011455
  outer loop
    vertex 78.0 -2.2450296073657974 1.4999473530930936
    vertex 0.0 -1.7803171369066229 2.0298943056318497
    vertex 78.0 -1.7803171369066229 2.0298943056318497
  endloop
endfacet
facet normal 0.0 0.8314924471725174 -0.5555360567011455
  outer loop
    vertex 0.0 -2.2450296073657974 1.4999473530930936
    vertex 78.0 -2.5567470201698383 0.867781467221245
    vertex 0.0 -2.5567470201698383 0.867781467221245
  endloop
endfacet
facet normal 0.0 0.9469433408036436 -0.32140054341527546
  outer loop
    vertex 78.0 -2.5567470201698383 0.867781467221245
    vertex 0.0 -2.2450296073657974 1.4999473530930936
    vertex 78.0 -2.2450296073657974 1.4999473530930936
  endloop
endfacet
facet normal 0.0 0.9469433408036436 -0.32140054341527546
  outer loop
    vertex 0.0 -2.5567470201698383 0.867781467221245
    vertex 78.0 -2.694226348773531 0.17647770843494778
    vertex 0.0 -2.694226348773531 0.17647770843494778
  endloop
endfacet
facet normal 0.0 0.9978616106568632 -0.06536211423516561
  outer loop
    vertex 78.0 -2.694226348773531 0.17647770843494778
    vertex 0.0 -2.5567470201698383 0.867781467221245
    vertex 78.0 -2.5567470201698383 0.867781467221245
  endloop
endfacet
facet normal 0.0 0.9978616106568632 -0.06536211423516561
  outer loop
    vertex 0.0 -2.694226348773531 0.17647770843494778
    vertex 78.0 -2.6480986041278665 -0.5268527145379874
    vertex 0.0 -2.6480986041278665 -0.5268527145379874
  endloop
endfacet
facet normal 0.0 0.9807772607880986 0.1951306350140696
  outer loop
    vertex 78.0 -2.6480986041278665 -0.5268527145379874
    vertex 0.0 -2.694226348773531 0.17647770843494778
    vertex 78.0 -2.694226348773531 0.17647770843494778
  endloop
endfacet
facet normal 0.0 0.9807772607880986 0.1951306350140696
  outer loop
    vertex 0.0 -2.6480986041278665 -0.5268527145379874
    vertex 78.0 -2.4215073158007447 -1.1942789956804372
    vertex 0.0 -2.4215073158007447 -1.1942789956804372
  endloop
endfacet
facet normal 0.0 0.8968545614076832 0.44232555395571743
  outer loop
    vertex 78.0 -2.4215073158007447 -1.1942789956804372
    vertex 0.0 -2.6480986041278665 -0.5268527145379874
    vertex 78.0 -2.6480986041278665 -0.5268527145379874
  endloop
endfacet
facet normal 0.0 0.8968545614076832 0.44232555395571743
  outer loop
    vertex 0.0 -2.4215073158007447 -1.1942789956804372
    vertex 78.0 -2.0298943056318497 -1.780317136906622
    vertex 0.0 -2.0298943056318497 -1.780317136906622
  endloop
endfacet
facet normal 0.0 0.7518127057895738 0.6593767173728229
  outer loop
    vertex 78.0 -2.0298943056318497 -1.780317136906622
    vertex 0.0 -2.4215073158007447 -1.1942789956804372
    vertex 78.0 -2.4215073158007447 -1.1942789956804372
  endloop
endfacet
facet normal 0.0 0.7518127057895738 0.6593767173728229
  outer loop
    vertex 78.0 -2.0298943056318497 -1.780317136906622
    vertex 0.0 -1.4999473530930938 -2.2450296073657965
    vertex 0.0 -2.0298943056318497 -1.780317136906622
  endloop
endfacet
facet normal 0.0 0.5555360567011461 0.831492447172517
  outer loop
    vertex 0.0 -1.4999473530930938 -2.2450296073657965
    vertex 78.0 -2.0298943056318497 -1.780317136906622
    vertex 78.0 -1.4999473530930938 -2.2450296073657965
  endloop
endfacet
facet normal 0.0 0.5555360567011461 0.831492447172517
  outer loop
    vertex 78.0 -1.4999473530930938 -2.2450296073657965
    vertex 0.0 -0.8677814672212445 -2.5567470201698383
    vertex 0.0 -1.4999473530930938 -2.2450296073657965
  endloop
endfacet
facet normal 0.0 0.32140054341527585 0.9469433408036435
  outer loop
    vertex 0.0 -0.8677814672212445 -2.5567470201698383
    vertex 78.0 -1.4999473530930938 -2.2450296073657965
    vertex 78.0 -0.8677814672212445 -2.5567470201698383
  endloop
endfacet
facet normal 0.0 0.32140054341527585 0.9469433408036435
  outer loop
    vertex 78.0 -0.8677814672212445 -2.5567470201698383
    vertex 0.0 -0.1764777084349483 -2.694226348773531
    vertex 0.0 -0.8677814672212445 -2.5567470201698383
  endloop
endfacet
facet normal 0.0 0.06536211423516555 0.9978616106568632
  outer loop
    vertex 0.0 -0.1764777084349483 -2.694226348773531
    vertex 78.0 -0.8677814672212445 -2.5567470201698383
    vertex 78.0 -0.1764777084349483 -2.694226348773531
  endloop
endfacet
facet normal 0.0 0.06536211423516555 0.9978616106568632
  outer loop
    vertex 78.0 -0.1764777084349483 -2.694226348773531
    vertex 0.0 0.5268527145379875 -2.6480986041278665
    vertex 0.0 -0.1764777084349483 -2.694226348773531
  endloop
endfacet
facet normal 0.0 -0.1951306350140691 0.9807772607880988
  outer loop
    vertex 0.0 0.5268527145379875 -2.6480986041278665
    vertex 78.0 -0.1764777084349483 -2.694226348773531
    vertex 78.0 0.5268527145379875 -2.6480986041278665
  endloop
endfacet
facet normal 0.0 -0.1951306350140691 0.9807772607880988
  outer loop
    vertex 78.0 0.5268527145379875 -2.6480986041278665
    vertex 0.0 1.1942789956804363 -2.421507315800746
    vertex 0.0 0.5268527145379875 -2.6480986041278665
  endloop
endfacet
facet normal 0.0 -0.4423255539557169 0.8968545614076835
  outer loop
    vertex 0.0 1.1942789956804363 -2.421507315800746
    vertex 78.0 0.5268527145379875 -2.6480986041278665
    vertex 78.0 1.1942789956804363 -2.421507315800746
  endloop
endfacet
facet normal 0.0 -0.4423255539557169 0.8968545614076835
  outer loop
    vertex 78.0 1.1942789956804363 -2.421507315800746
    vertex 0.0 1.7803171369066224 -2.02989430563185
    vertex 0.0 1.1942789956804363 -2.421507315800746
  endloop
endfacet
facet normal 0.0 -0.6593767173728228 0.751812705789574
  outer loop
    vertex 0.0 1.7803171369066224 -2.02989430563185
    vertex 78.0 1.1942789956804363 -2.421507315800746
    vertex 78.0 1.7803171369066224 -2.02989430563185
  endloop
endfacet
facet normal 0.0 -0.8314924471725172 0.5555360567011457
  outer loop
    vertex 78.0 2.2450296073657965 -1.4999473530930945
    vertex 0.0 1.7803171369066224 -2.02989430563185
    vertex 78.0 1.7803171369066224 -2.02989430563185
  endloop
endfacet
facet normal 0.0 -0.6593767173728228 0.751812705789574
  outer loop
    vertex 0.0 1.7803171369066224 -2.02989430563185
    vertex 78.0 2.2450296073657965 -1.4999473530930945
    vertex 0.0 2.2450296073657965 -1.4999473530930945
  endloop
endfacet
facet normal 0.0 -0.9469433408036435 0.321400543415276
  outer loop
    vertex 78.0 2.5567470201698375 -0.8677814672212464
    vertex 0.0 2.2450296073657965 -1.4999473530930945
    vertex 78.0 2.2450296073657965 -1.4999473530930945
  endloop
endfacet
facet normal 0.0 -0.8314924471725172 0.5555360567011457
  outer loop
    vertex 0.0 2.2450296073657965 -1.4999473530930945
    vertex 78.0 2.5567470201698375 -0.8677814672212464
    vertex 0.0 2.5567470201698375 -0.8677814672212464
  endloop
endfacet
facet normal 0.0 -0.9978616106568632 0.06536211423516594
  outer loop
    vertex 78.0 2.694226348773531 -0.17647770843494798
    vertex 0.0 2.5567470201698375 -0.8677814672212464
    vertex 78.0 2.5567470201698375 -0.8677814672212464
  endloop
endfacet
facet normal 0.0 -0.9469433408036435 0.321400543415276
  outer loop
    vertex 0.0 2.5567470201698375 -0.8677814672212464
    vertex 78.0 2.694226348773531 -0.17647770843494798
    vertex 0.0 2.694226348773531 -0.17647770843494798
  endloop
endfacet
facet normal 0.0 -0.9807772607880986 -0.1951306350140696
  outer loop
    vertex 78.0 2.6480986041278665 0.5268527145379871
    vertex 0.0 2.694226348773531 -0.17647770843494798
    vertex 78.0 2.694226348773531 -0.17647770843494798
  endloop
endfacet
facet normal 0.0 -0.9978616106568632 0.06536211423516594
  outer loop
    vertex 0.0 2.694226348773531 -0.17647770843494798
    vertex 78.0 2.6480986041278665 0.5268527145379871
    vertex 0.0 2.6480986041278665 0.5268527145379871
  endloop
endfacet
facet normal 0.0 -0.8968545614076833 -0.44232555395571715
  outer loop
    vertex 78.0 2.421507315800745 1.1942789956804356
    vertex 0.0 2.6480986041278665 0.5268527145379871
    vertex 78.0 2.6480986041278665 0.5268527145379871
  endloop
endfacet
facet normal 0.0 -0.9807772607880986 -0.1951306350140696
  outer loop
    vertex 0.0 2.6480986041278665 0.5268527145379871
    vertex 78.0 2.421507315800745 1.1942789956804356
    vertex 0.0 2.421507315800745 1.1942789956804356
  endloop
endfacet
facet normal 0.0 -0.751812705789574 -0.6593767173728228
  outer loop
    vertex 78.0 2.0298943056318492 1.7803171369066224
    vertex 0.0 2.421507315800745 1.1942789956804356
    vertex 78.0 2.421507315800745 1.1942789956804356
  endloop
endfacet
facet normal 0.0 -0.8968545614076833 -0.44232555395571715
  outer loop
    vertex 0.0 2.421507315800745 1.1942789956804356
    vertex 78.0 2.0298943056318492 1.7803171369066224
    vertex 0.0 2.0298943056318492 1.7803171369066224
  endloop
endfacet
facet normal 0.0 -0.751812705789574 -0.6593767173728228
  outer loop
    vertex 78.0 2.0298943056318492 1.7803171369066224
    vertex 0.0 1.4999473530930927 2.2450296073657974
    vertex 0.0 2.0298943056318492 1.7803171369066224
  endloop
endfacet
facet normal 0.0 -0.5555360567011455 -0.8314924471725174
  outer loop
    vertex 0.0 1.4999473530930927 2.2450296073657974
    vertex 78.0 2.0298943056318492 1.7803171369066224
    vertex 78.0 1.4999473530930927 2.2450296073657974
  endloop
endfacet
facet normal 0.0 -0.5555360567011455 -0.8314924471725174
  outer loop
    vertex 78.0 1.4999473530930927 2.2450296073657974
    vertex 0.0 0.8677814672212439 2.5567470201698383
    vertex 0.0 1.4999473530930927 2.2450296073657974
  endloop
endfacet
facet normal 0.0 -0.3214005434152756 -0.9469433408036437
  outer loop
    vertex 0.0 0.8677814672212439 2.5567470201698383
    vertex 78.0 1.4999473530930927 2.2450296073657974
    vertex 78.0 0.8677814672212439 2.5567470201698383
  endloop
endfacet
facet normal 0.0 -0.3214005434152756 -0.9469433408036437
  outer loop
    vertex 78.0 0.8677814672212439 2.5567470201698383
    vertex 0.0 0.1764777084349471 2.694226348773531
    vertex 0.0 0.8677814672212439 2.5567470201698383
  endloop
endfacet
facet normal 0.0 -0.06536211423516596 -0.9978616106568631
  outer loop
    vertex 0.0 0.1764777084349471 2.694226348773531
    vertex 78.0 0.8677814672212439 2.5567470201698383
    vertex 78.0 0.1764777084349471 2.694226348773531
  endloop
endfacet
facet normal 0.0 -0.06536211423516596 -0.9978616106568631
  outer loop
    vertex 78.0 0.1764777084349471 2.694226348773531
    vertex 0.0 -0.5268527145379887 2.648098604127867
    vertex 0.0 0.1764777084349471 2.694226348773531
  endloop
endfacet
facet normal 0.0 0.19513063501406974 -0.9807772607880986
  outer loop
    vertex 0.0 -0.5268527145379887 2.648098604127867
    vertex 78.0 0.1764777084349471 2.694226348773531
    vertex 78.0 -0.5268527145379887 2.648098604127867
  endloop
endfacet
facet normal 0.0 0.19513063501406974 -0.9807772607880986
  outer loop
    vertex 78.0 -0.5268527145379887 2.648098604127867
    vertex 0.0 -1.1942789956804374 2.4215073158007447
    vertex 0.0 -0.5268527145379887 2.648098604127867
  endloop
endfacet
facet normal 0.0 0.44232555395571754 -0.8968545614076829
  outer loop
    vertex 0.0 -1.1942789956804374 2.4215073158007447
    vertex 78.0 -0.5268527145379887 2.648098604127867
    vertex 78.0 -1.1942789956804374 2.4215073158007447
  endloop
endfacet
facet normal 0.0 0.44232555395571754 -0.8968545614076829
  outer loop
    vertex 78.0 -1.1942789956804374 2.4215073158007447
    vertex 0.0 -1.7803171369066229 2.0298943056318497
    vertex 0.0 -1.1942789956804374 2.4215073158007447
  endloop
endfacet
facet normal 0.0 0.6593767173728228 -0.751812705789574
  outer loop
    vertex 0.0 -1.7803171369066229 2.0298943056318497
    vertex 78.0 -1.1942789956804374 2.4215073158007447
    vertex 78.0 -1.7803171369066229 2.0298943056318497
  endloop
endfacet
endsolid spacer-4mm-78mm
