solid spacer-4mm-78mm
facet normal -1.0 0.0 0.0
  outer loop
    vertex 0.0 -2.12161570958608 3.968469072682508
    vertex 0.0 -2.9839240353327163 0.3101569785829709
    vertex 0.0 -3.0764387832603766 3.284132216103887
  endloop
endfacet
facet normal -1.0 0.0 0.0
  outer loop
    vertex 0.0 -2.9839240353327163 0.3101569785829709
    vertex 0.0 -2.12161570958608 3.968469072682508
    vertex 0.0 -2.8019747563838373 1.071885005300352
  endloop
endfacet
facet normal -1.0 0.0 0.0
  outer loop
    vertex 0.0 -2.8019747563838373 1.071885005300352
    vertex 0.0 -2.12161570958608 3.968469072682508
    vertex 0.0 -2.4290755282696215 1.7605658402802375
  endloop
endfacet
facet normal -1.0 0.0 0.0
  outer loop
    vertex 0.0 -2.4290755282696215 1.7605658402802375
    vertex 0.0 -2.12161570958608 3.968469072682508
    vertex 0.0 -1.8906388171409414 2.3292670227176404
  endloop
endfacet
facet normal -1.0 0.0 0.0
  outer loop
    vertex 0.0 -1.8906388171409414 2.3292670227176404
    vertex 0.0 -2.12161570958608 3.968469072682508
    vertex 0.0 -1.022208031439231 4.3823613201630405
  endloop
endfacet
facet normal -1.0 0.0 0.0
  outer loop
    vertex 0.0 -1.8906388171409414 2.3292670227176404
    vertex 0.0 -1.022208031439231 4.3823613201630405
    vertex 0.0 -1.2233581950524788 2.7392325068525927
  endloop
endfacet
facet normal -1.0 0.0 0.0
  outer loop
    vertex 0.0 -1.2233581950524788 2.7392325068525927
    vertex 0.0 -1.022208031439231 4.3823613201630405
    vertex 0.0 -0.472707733666197 2.962523822441293
  endloop
endfacet
facet normal -1.0 0.0 0.0
  outer loop
    vertex 0.0 -0.472707733666197 2.962523822441293
    vertex 0.0 -1.022208031439231 4.3823613201630405
    vertex 0.0 0.14686143477155766 4.497602885868965
  endloop
endfacet
facet normal -1.0 0.0 0.0
  outer loop
    vertex 0.0 -0.472707733666197 2.962523822441293
    vertex 0.0 0.14686143477155766 4.497602885868965
    vertex 0.0 0.3101569785829709 2.9839240353327163
  endloop
endfacet
facet normal -1.0 0.0 0.0
  outer loop
    vertex 0.0 0.3101569785829709 2.9839240353327163
    vertex 0.0 0.14686143477155766 4.497602885868965
    vertex 0.0 1.305922536902665 4.306340247543117
  endloop
endfacet
facet normal -1.0 0.0 0.0
  outer loop
    vertex 0.0 0.3101569785829709 2.9839240353327163
    vertex 0.0 1.305922536902665 4.306340247543117
    vertex 0.0 1.0718850053003512 2.8019747563838378
  endloop
endfacet
facet normal -1.0 0.0 0.0
  outer loop
    vertex 0.0 1.0718850053003512 2.8019747563838378
    vertex 0.0 1.305922536902665 4.306340247543117
    vertex 0.0 1.760565840280237 2.429075528269622
  endloop
endfacet
facet normal -1.0 0.0 0.0
  outer loop
    vertex 0.0 1.760565840280237 2.429075528269622
    vertex 0.0 1.305922536902665 4.306340247543117
    vertex 0.0 2.3759871762828833 3.821607637910948
  endloop
endfacet
facet normal -1.0 0.0 0.0
  outer loop
    vertex 0.0 1.760565840280237 2.429075528269622
    vertex 0.0 2.3759871762828833 3.821607637910948
    vertex 0.0 2.3292670227176404 1.8906388171409414
  endloop
endfacet
facet normal -1.0 0.0 0.0
  outer loop
    vertex 0.0 2.3292670227176404 1.8906388171409414
    vertex 0.0 2.3759871762828833 3.821607637910948
    vertex 0.0 2.7392325068525936 1.2233581950524772
  endloop
endfacet
facet normal -1.0 0.0 0.0
  outer loop
    vertex 0.0 2.7392325068525936 1.2233581950524772
    vertex 0.0 2.3759871762828833 3.821607637910948
    vertex 0.0 3.284132216103885 3.0764387832603766
  endloop
endfacet
facet normal -1.0 0.0 0.0
  outer loop
    vertex 0.0 2.7392325068525936 1.2233581950524772
    vertex 0.0 3.284132216103885 3.0764387832603766
    vertex 0.0 2.962523822441293 0.4727077336661954
  endloop
endfacet
facet normal -1.0 0.0 0.0
  outer loop
    vertex 0.0 2.962523822441293 0.4727077336661954
    vertex 0.0 3.284132216103885 3.0764387832603766
    vertex 0.0 2.9839240353327168 -0.31015697858297125
  endloop
endfacet
facet normal -1.0 0.0 0.0
  outer loop
    vertex 0.0 2.9839240353327168 -0.31015697858297125
    vertex 0.0 3.284132216103885 3.0764387832603766
    vertex 0.0 3.076438783260375 -3.284132216103888
  endloop
endfacet
facet normal -1.0 0.0 0.0
  outer loop
    vertex 0.0 3.076438783260375 -3.284132216103888
    vertex 0.0 3.284132216103885 3.0764387832603766
    vertex 0.0 3.8216076379109465 -2.3759871762828864
  endloop
endfacet
facet normal -1.0 0.0 0.0
  outer loop
    vertex 0.0 3.8216076379109465 -2.3759871762828864
    vertex 0.0 3.284132216103885 3.0764387832603766
    vertex 0.0 3.968469072682507 2.121615709586079
  endloop
endfacet
facet normal -1.0 0.0 0.0
  outer loop
    vertex 0.0 3.8216076379109465 -2.3759871762828864
    vertex 0.0 3.968469072682507 2.121615709586079
    vertex 0.0 4.306340247543116 -1.3059225369026666
  endloop
endfacet
facet normal -1.0 0.0 0.0
  outer loop
    vertex 0.0 4.306340247543116 -1.3059225369026666
    vertex 0.0 3.968469072682507 2.121615709586079
    vertex 0.0 4.382361320163039 1.0222080314392283
  endloop
endfacet
facet normal -1.0 0.0 0.0
  outer loop
    vertex 0.0 4.306340247543116 -1.3059225369026666
    vertex 0.0 4.382361320163039 1.0222080314392283
    vertex 0.0 4.497602885868965 -0.14686143477156188
  endloop
endfacet
facet normal -1.0 0.0 0.0
  outer loop
    vertex 0.0 -4.306340247543116 1.305922536902664
    vertex 0.0 -4.382361320163039 -1.02220803143923
    vertex 0.0 -4.497602885868965 0.14686143477156083
  endloop
endfacet
facet normal -1.0 0.0 0.0
  outer loop
    vertex 0.0 -4.382361320163039 -1.02220803143923
    vertex 0.0 -4.306340247543116 1.305922536902664
    vertex 0.0 -3.968469072682507 -2.121615709586079
  endloop
endfacet
facet normal -1.0 0.0 0.0
  outer loop
    vertex 0.0 -3.968469072682507 -2.121615709586079
    vertex 0.0 -4.306340247543116 1.305922536902664
    vertex 0.0 -3.821607637910948 2.375987176282884
  endloop
endfacet
facet normal -1.0 0.0 0.0
  outer loop
    vertex 0.0 -3.968469072682507 -2.121615709586079
    vertex 0.0 -3.821607637910948 2.375987176282884
    vertex 0.0 -3.284132216103887 -3.0764387832603752
  endloop
endfacet
facet normal -1.0 0.0 0.0
  outer loop
    vertex 0.0 -3.284132216103887 -3.0764387832603752
    vertex 0.0 -3.821607637910948 2.375987176282884
    vertex 0.0 -3.0764387832603766 3.284132216103887
  endloop
endfacet
facet normal -1.0 0.0 0.0
  outer loop
    vertex 0.0 -3.284132216103887 -3.0764387832603752
    vertex 0.0 -3.0764387832603766 3.284132216103887
    vertex 0.0 -2.962523822441293 -0.4727077336661961
  endloop
endfacet
facet normal -1.0 0.0 0.0
  outer loop
    vertex 0.0 -3.284132216103887 -3.0764387832603752
    vertex 0.0 -2.962523822441293 -0.4727077336661961
    vertex 0.0 -2.375987176282884 -3.821607637910948
  endloop
endfacet
facet normal -1.0 0.0 0.0
  outer loop
    vertex 0.0 -2.962523822441293 -0.4727077336661961
    vertex 0.0 -3.0764387832603766 3.284132216103887
    vertex 0.0 -2.9839240353327163 0.3101569785829709
  endloop
endfacet
facet normal -1.0 0.0 0.0
  outer loop
    vertex 0.0 -2.375987176282884 -3.821607637910948
    vertex 0.0 -2.962523822441293 -0.4727077336661961
    vertex 0.0 -2.7392325068525927 -1.2233581950524786
  endloop
endfacet
facet normal -1.0 0.0 0.0
  outer loop
    vertex 0.0 -2.375987176282884 -3.821607637910948
    vertex 0.0 -2.7392325068525927 -1.2233581950524786
    vertex 0.0 -2.3292670227176404 -1.890638817140941
  endloop
endfacet
facet normal -1.0 0.0 0.0
  outer loop
    vertex 0.0 -2.375987176282884 -3.821607637910948
    vertex 0.0 -2.3292670227176404 -1.890638817140941
    vertex 0.0 -1.3059225369026655 -4.306340247543116
  endloop
endfacet
facet normal -1.0 0.0 0.0
  outer loop
    vertex 0.0 -1.3059225369026655 -4.306340247543116
    vertex 0.0 -2.3292670227176404 -1.890638817140941
    vertex 0.0 -1.7605658402802378 -2.429075528269621
  endloop
endfacet
facet normal -1.0 0.0 0.0
  outer loop
    vertex 0.0 -1.3059225369026655 -4.306340247543116
    vertex 0.0 -1.7605658402802378 -2.429075528269621
    vertex 0.0 -1.071885005300352 -2.8019747563838373
  endloop
endfacet
facet normal -1.0 0.0 0.0
  outer loop
    vertex 0.0 -1.3059225369026655 -4.306340247543116
    vertex 0.0 -1.071885005300352 -2.8019747563838373
    vertex 0.0 -0.14686143477155977 -4.497602885868965
  endloop
endfacet
facet normal -1.0 0.0 0.0
  outer loop
    vertex 0.0 -0.14686143477155977 -4.497602885868965
    vertex 0.0 -1.071885005300352 -2.8019747563838373
    vertex 0.0 -0.3101569785829723 -2.983924035332716
  endloop
endfacet
facet normal -1.0 0.0 0.0
  outer loop
    vertex 0.0 -0.14686143477155977 -4.497602885868965
    vertex 0.0 -0.3101569785829723 -2.983924035332716
    vertex 0.0 0.4727077336661954 -2.962523822441293
  endloop
endfacet
facet normal -1.0 0.0 0.0
  outer loop
    vertex 0.0 -0.14686143477155977 -4.497602885868965
    vertex 0.0 0.4727077336661954 -2.962523822441293
    vertex 0.0 1.0222080314392292 -4.3823613201630405
  endloop
endfacet
facet normal -1.0 0.0 0.0
  outer loop
    vertex 0.0 1.0222080314392292 -4.3823613201630405
    vertex 0.0 0.4727077336661954 -2.962523822441293
    vertex 0.0 1.2233581950524774 -2.7392325068525936
  endloop
endfacet
facet normal -1.0 0.0 0.0
  outer loop
    vertex 0.0 1.0222080314392292 -4.3823613201630405
    vertex 0.0 1.2233581950524774 -2.7392325068525936
    vertex 0.0 2.1216157095860795 -3.9684690726825087
  endloop
endfacet
facet normal -1.0 0.0 0.0
  outer loop
    vertex 0.0 2.1216157095860795 -3.9684690726825087
    vertex 0.0 1.2233581950524774 -2.7392325068525936
    vertex 0.0 1.890638817140941 -2.3292670227176404
  endloop
endfacet
facet normal -1.0 0.0 0.0
  outer loop
    vertex 0.0 2.1216157095860795 -3.9684690726825087
    vertex 0.0 1.890638817140941 -2.3292670227176404
    vertex 0.0 2.429075528269621 -1.7605658402802382
  endloop
endfacet
facet normal -1.0 0.0 0.0
  outer loop
    vertex 0.0 2.1216157095860795 -3.9684690726825087
    vertex 0.0 2.429075528269621 -1.7605658402802382
    vertex 0.0 3.076438783260375 -3.284132216103888
  endloop
endfacet
facet normal -1.0 0.0 0.0
  outer loop
    vertex 0.0 3.076438783260375 -3.284132216103888
    vertex 0.0 2.429075528269621 -1.7605658402802382
    vertex 0.0 2.8019747563838364 -1.071885005300353
  endloop
endfacet
facet normal -1.0 0.0 0.0
  outer loop
    vertex 0.0 3.076438783260375 -3.284132216103888
    vertex 0.0 2.8019747563838364 -1.071885005300353
    vertex 0.0 2.9839240353327168 -0.31015697858297125
  endloop
endfacet
facet normal 1.0 -0.0 -0.0
  outer loop
    vertex 72.0 -4.382361320163039 -1.02220803143923
    vertex 72.0 -4.306340247543116 1.305922536902664
    vertex 72.0 -4.497602885868965 0.14686143477156083
  endloop
endfacet
facet normal 1.0 -0.0 -0.0
  outer loop
    vertex 72.0 -4.306340247543116 1.305922536902664
    vertex 72.0 -4.382361320163039 -1.02220803143923
    vertex 72.0 -3.968469072682507 -2.121615709586079
  endloop
endfacet
facet normal 1.0 -0.0 -0.0
  outer loop
    vertex 72.0 -4.306340247543116 1.305922536902664
    vertex 72.0 -3.968469072682507 -2.121615709586079
    vertex 72.0 -3.821607637910948 2.375987176282884
  endloop
endfacet
facet normal 1.0 -0.0 -0.0
  outer loop
    vertex 72.0 -3.821607637910948 2.375987176282884
    vertex 72.0 -3.968469072682507 -2.121615709586079
    vertex 72.0 -3.284132216103887 -3.0764387832603752
  endloop
endfacet
facet normal 1.0 -0.0 -0.0
  outer loop
    vertex 72.0 -3.821607637910948 2.375987176282884
    vertex 72.0 -3.284132216103887 -3.0764387832603752
    vertex 72.0 -3.0764387832603766 3.284132216103887
  endloop
endfacet
facet normal 1.0 -0.0 -0.0
  outer loop
    vertex 72.0 -3.0764387832603766 3.284132216103887
    vertex 72.0 -3.284132216103887 -3.0764387832603752
    vertex 72.0 -2.962523822441293 -0.4727077336661961
  endloop
endfacet
facet normal 1.0 -0.0 -0.0
  outer loop
    vertex 72.0 -2.962523822441293 -0.4727077336661961
    vertex 72.0 -3.284132216103887 -3.0764387832603752
    vertex 72.0 -2.375987176282884 -3.821607637910948
  endloop
endfacet
facet normal 1.0 -0.0 -0.0
  outer loop
    vertex 72.0 -3.0764387832603766 3.284132216103887
    vertex 72.0 -2.962523822441293 -0.4727077336661961
    vertex 72.0 -2.9839240353327163 0.3101569785829709
  endloop
endfacet
facet normal 1.0 -0.0 -0.0
  outer loop
    vertex 72.0 -2.962523822441293 -0.4727077336661961
    vertex 72.0 -2.375987176282884 -3.821607637910948
    vertex 72.0 -2.7392325068525927 -1.2233581950524786
  endloop
endfacet
facet normal 1.0 -0.0 -0.0
  outer loop
    vertex 72.0 -2.7392325068525927 -1.2233581950524786
    vertex 72.0 -2.375987176282884 -3.821607637910948
    vertex 72.0 -2.3292670227176404 -1.890638817140941
  endloop
endfacet
facet normal 1.0 -0.0 -0.0
  outer loop
    vertex 72.0 -2.3292670227176404 -1.890638817140941
    vertex 72.0 -2.375987176282884 -3.821607637910948
    vertex 72.0 -1.3059225369026655 -4.306340247543116
  endloop
endfacet
facet normal 1.0 -0.0 -0.0
  outer loop
    vertex 72.0 -2.3292670227176404 -1.890638817140941
    vertex 72.0 -1.3059225369026655 -4.306340247543116
    vertex 72.0 -1.7605658402802378 -2.429075528269621
  endloop
endfacet
facet normal 1.0 -0.0 -0.0
  outer loop
    vertex 72.0 -1.7605658402802378 -2.429075528269621
    vertex 72.0 -1.3059225369026655 -4.306340247543116
    vertex 72.0 -1.071885005300352 -2.8019747563838373
  endloop
endfacet
facet normal 1.0 -0.0 -0.0
  outer loop
    vertex 72.0 -1.071885005300352 -2.8019747563838373
    vertex 72.0 -1.3059225369026655 -4.306340247543116
    vertex 72.0 -0.14686143477155977 -4.497602885868965
  endloop
endfacet
facet normal 1.0 -0.0 -0.0
  outer loop
    vertex 72.0 -1.071885005300352 -2.8019747563838373
    vertex 72.0 -0.14686143477155977 -4.497602885868965
    vertex 72.0 -0.3101569785829723 -2.983924035332716
  endloop
endfacet
facet normal 1.0 -0.0 -0.0
  outer loop
    vertex 72.0 -0.3101569785829723 -2.983924035332716
    vertex 72.0 -0.14686143477155977 -4.497602885868965
    vertex 72.0 0.4727077336661954 -2.962523822441293
  endloop
endfacet
facet normal 1.0 -0.0 -0.0
  outer loop
    vertex 72.0 0.4727077336661954 -2.962523822441293
    vertex 72.0 -0.14686143477155977 -4.497602885868965
    vertex 72.0 1.0222080314392292 -4.3823613201630405
  endloop
endfacet
facet normal 1.0 -0.0 -0.0
  outer loop
    vertex 72.0 0.4727077336661954 -2.962523822441293
    vertex 72.0 1.0222080314392292 -4.3823613201630405
    vertex 72.0 1.2233581950524774 -2.7392325068525936
  endloop
endfacet
facet normal 1.0 -0.0 -0.0
  outer loop
    vertex 72.0 1.2233581950524774 -2.7392325068525936
    vertex 72.0 1.0222080314392292 -4.3823613201630405
    vertex 72.0 2.1216157095860795 -3.9684690726825087
  endloop
endfacet
facet normal 1.0 -0.0 -0.0
  outer loop
    vertex 72.0 1.2233581950524774 -2.7392325068525936
    vertex 72.0 2.1216157095860795 -3.9684690726825087
    vertex 72.0 1.890638817140941 -2.3292670227176404
  endloop
endfacet
facet normal 1.0 -0.0 -0.0
  outer loop
    vertex 72.0 1.890638817140941 -2.3292670227176404
    vertex 72.0 2.1216157095860795 -3.9684690726825087
    vertex 72.0 2.429075528269621 -1.7605658402802382
  endloop
endfacet
facet normal 1.0 -0.0 -0.0
  outer loop
    vertex 72.0 2.429075528269621 -1.7605658402802382
    vertex 72.0 2.1216157095860795 -3.9684690726825087
    vertex 72.0 3.076438783260375 -3.284132216103888
  endloop
endfacet
facet normal 1.0 -0.0 -0.0
  outer loop
    vertex 72.0 2.429075528269621 -1.7605658402802382
    vertex 72.0 3.076438783260375 -3.284132216103888
    vertex 72.0 2.8019747563838364 -1.071885005300353
  endloop
endfacet
facet normal 1.0 -0.0 -0.0
  outer loop
    vertex 72.0 2.8019747563838364 -1.071885005300353
    vertex 72.0 3.076438783260375 -3.284132216103888
    vertex 72.0 2.9839240353327168 -0.31015697858297125
  endloop
endfacet
facet normal 1.0 -0.0 -0.0
  outer loop
    vertex 72.0 -2.9839240353327163 0.3101569785829709
    vertex 72.0 -2.12161570958608 3.968469072682508
    vertex 72.0 -3.0764387832603766 3.284132216103887
  endloop
endfacet
facet normal 1.0 -0.0 -0.0
  outer loop
    vertex 72.0 -2.12161570958608 3.968469072682508
    vertex 72.0 -2.9839240353327163 0.3101569785829709
    vertex 72.0 -2.8019747563838373 1.071885005300352
  endloop
endfacet
facet normal 1.0 -0.0 -0.0
  outer loop
    vertex 72.0 -2.12161570958608 3.968469072682508
    vertex 72.0 -2.8019747563838373 1.071885005300352
    vertex 72.0 -2.4290755282696215 1.7605658402802375
  endloop
endfacet
facet normal 1.0 -0.0 -0.0
  outer loop
    vertex 72.0 -2.12161570958608 3.968469072682508
    vertex 72.0 -2.4290755282696215 1.7605658402802375
    vertex 72.0 -1.8906388171409414 2.3292670227176404
  endloop
endfacet
facet normal 1.0 -0.0 -0.0
  outer loop
    vertex 72.0 -2.12161570958608 3.968469072682508
    vertex 72.0 -1.8906388171409414 2.3292670227176404
    vertex 72.0 -1.022208031439231 4.3823613201630405
  endloop
endfacet
facet normal 1.0 -0.0 -0.0
  outer loop
    vertex 72.0 -1.022208031439231 4.3823613201630405
    vertex 72.0 -1.8906388171409414 2.3292670227176404
    vertex 72.0 -1.2233581950524788 2.7392325068525927
  endloop
endfacet
facet normal 1.0 -0.0 -0.0
  outer loop
    vertex 72.0 -1.022208031439231 4.3823613201630405
    vertex 72.0 -1.2233581950524788 2.7392325068525927
    vertex 72.0 -0.472707733666197 2.962523822441293
  endloop
endfacet
facet normal 1.0 -0.0 -0.0
  outer loop
    vertex 72.0 -1.022208031439231 4.3823613201630405
    vertex 72.0 -0.472707733666197 2.962523822441293
    vertex 72.0 0.14686143477155766 4.497602885868965
  endloop
endfacet
facet normal 1.0 -0.0 -0.0
  outer loop
    vertex 72.0 0.14686143477155766 4.497602885868965
    vertex 72.0 -0.472707733666197 2.962523822441293
    vertex 72.0 0.3101569785829709 2.9839240353327163
  endloop
endfacet
facet normal 1.0 -0.0 -0.0
  outer loop
    vertex 72.0 0.14686143477155766 4.497602885868965
    vertex 72.0 0.3101569785829709 2.9839240353327163
    vertex 72.0 1.305922536902665 4.306340247543117
  endloop
endfacet
facet normal 1.0 -0.0 -0.0
  outer loop
    vertex 72.0 1.305922536902665 4.306340247543117
    vertex 72.0 0.3101569785829709 2.9839240353327163
    vertex 72.0 1.0718850053003512 2.8019747563838378
  endloop
endfacet
facet normal 1.0 -0.0 -0.0
  outer loop
    vertex 72.0 1.305922536902665 4.306340247543117
    vertex 72.0 1.0718850053003512 2.8019747563838378
    vertex 72.0 1.760565840280237 2.429075528269622
  endloop
endfacet
facet normal 1.0 -0.0 -0.0
  outer loop
    vertex 72.0 1.305922536902665 4.306340247543117
    vertex 72.0 1.760565840280237 2.429075528269622
    vertex 72.0 2.3759871762828833 3.821607637910948
  endloop
endfacet
facet normal 1.0 -0.0 -0.0
  outer loop
    vertex 72.0 2.3759871762828833 3.821607637910948
    vertex 72.0 1.760565840280237 2.429075528269622
    vertex 72.0 2.3292670227176404 1.8906388171409414
  endloop
endfacet
facet normal 1.0 -0.0 -0.0
  outer loop
    vertex 72.0 2.3759871762828833 3.821607637910948
    vertex 72.0 2.3292670227176404 1.8906388171409414
    vertex 72.0 2.7392325068525936 1.2233581950524772
  endloop
endfacet
facet normal 1.0 -0.0 -0.0
  outer loop
    vertex 72.0 2.3759871762828833 3.821607637910948
    vertex 72.0 2.7392325068525936 1.2233581950524772
    vertex 72.0 3.284132216103885 3.0764387832603766
  endloop
endfacet
facet normal 1.0 -0.0 -0.0
  outer loop
    vertex 72.0 3.284132216103885 3.0764387832603766
    vertex 72.0 2.7392325068525936 1.2233581950524772
    vertex 72.0 2.962523822441293 0.4727077336661954
  endloop
endfacet
facet normal 1.0 -0.0 -0.0
  outer loop
    vertex 72.0 3.284132216103885 3.0764387832603766
    vertex 72.0 2.962523822441293 0.4727077336661954
    vertex 72.0 2.9839240353327168 -0.31015697858297125
  endloop
endfacet
facet normal 1.0 -0.0 -0.0
  outer loop
    vertex 72.0 3.284132216103885 3.0764387832603766
    vertex 72.0 2.9839240353327168 -0.31015697858297125
    vertex 72.0 3.076438783260375 -3.284132216103888
  endloop
endfacet
facet normal 1.0 -0.0 -0.0
  outer loop
    vertex 72.0 3.284132216103885 3.0764387832603766
    vertex 72.0 3.076438783260375 -3.284132216103888
    vertex 72.0 3.8216076379109465 -2.3759871762828864
  endloop
endfacet
facet normal 1.0 -0.0 -0.0
  outer loop
    vertex 72.0 3.284132216103885 3.0764387832603766
    vertex 72.0 3.8216076379109465 -2.3759871762828864
    vertex 72.0 3.968469072682507 2.121615709586079
  endloop
endfacet
facet normal 1.0 -0.0 -0.0
  outer loop
    vertex 72.0 3.968469072682507 2.121615709586079
    vertex 72.0 3.8216076379109465 -2.3759871762828864
    vertex 72.0 4.306340247543116 -1.3059225369026666
  endloop
endfacet
facet normal 1.0 -0.0 -0.0
  outer loop
    vertex 72.0 3.968469072682507 2.121615709586079
    vertex 72.0 4.306340247543116 -1.3059225369026666
    vertex 72.0 4.382361320163039 1.0222080314392283
  endloop
endfacet
facet normal 1.0 -0.0 -0.0
  outer loop
    vertex 72.0 4.382361320163039 1.0222080314392283
    vertex 72.0 4.306340247543116 -1.3059225369026666
    vertex 72.0 4.497602885868965 -0.14686143477156188
  endloop
endfacet
facet normal 0.0 0.2902050082005919 0.9569644994540258
  outer loop
    vertex 72.0 1.305922536902665 4.306340247543117
    vertex 0.0 2.3759871762828833 3.821607637910948
    vertex 0.0 1.305922536902665 4.306340247543117
  endloop
endfacet
facet normal 0.0 0.5279971502850854 0.8492461417579881
  outer loop
    vertex 0.0 2.3759871762828833 3.821607637910948
    vertex 72.0 1.305922536902665 4.306340247543117
    vertex 72.0 2.3759871762828833 3.821607637910948
  endloop
endfacet
facet normal 0.0 0.5279971502850854 0.8492461417579881
  outer loop
    vertex 72.0 2.3759871762828833 3.821607637910948
    vertex 0.0 3.284132216103885 3.0764387832603766
    vertex 0.0 2.3759871762828833 3.821607637910948
  endloop
endfacet
facet normal 0.0 0.7298071591341969 0.68365306294675
  outer loop
    vertex 0.0 3.284132216103885 3.0764387832603766
    vertex 72.0 2.3759871762828833 3.821607637910948
    vertex 72.0 3.284132216103885 3.0764387832603766
  endloop
endfacet
facet normal 0.0 0.7298071591341969 0.68365306294675
  outer loop
    vertex 0.0 3.284132216103885 3.0764387832603766
    vertex 72.0 3.968469072682507 2.121615709586079
    vertex 0.0 3.968469072682507 2.121615709586079
  endloop
endfacet
facet normal 0.0 0.8818820161516684 0.4714701576857952
  outer loop
    vertex 72.0 3.968469072682507 2.121615709586079
    vertex 0.0 3.284132216103885 3.0764387832603766
    vertex 72.0 3.284132216103885 3.0764387832603766
  endloop
endfacet
facet normal 0.0 0.8818820161516684 0.4714701576857952
  outer loop
    vertex 0.0 3.968469072682507 2.121615709586079
    vertex 72.0 4.382361320163039 1.0222080314392283
    vertex 0.0 4.382361320163039 1.0222080314392283
  endloop
endfacet
facet normal 0.0 0.973858071147342 0.2271573403198288
  outer loop
    vertex 72.0 4.382361320163039 1.0222080314392283
    vertex 0.0 3.968469072682507 2.121615709586079
    vertex 72.0 3.968469072682507 2.121615709586079
  endloop
endfacet
facet normal 0.0 0.973858071147342 0.2271573403198288
  outer loop
    vertex 0.0 4.382361320163039 1.0222080314392283
    vertex 72.0 4.497602885868965 -0.14686143477156188
    vertex 0.0 4.497602885868965 -0.14686143477156188
  endloop
endfacet
facet normal 0.0 0.999467307970881 -0.03263587439367992
  outer loop
    vertex 72.0 4.497602885868965 -0.14686143477156188
    vertex 0.0 4.382361320163039 1.0222080314392283
    vertex 72.0 4.382361320163039 1.0222080314392283
  endloop
endfacet
facet normal 0.0 0.999467307970881 -0.03263587439367992
  outer loop
    vertex 0.0 4.497602885868965 -0.14686143477156188
    vertex 72.0 4.306340247543116 -1.3059225369026666
    vertex 0.0 4.306340247543116 -1.3059225369026666
  endloop
endfacet
facet normal 0.0 0.9569644994540258 -0.2902050082005925
  outer loop
    vertex 72.0 4.306340247543116 -1.3059225369026666
    vertex 0.0 4.497602885868965 -0.14686143477156188
    vertex 72.0 4.497602885868965 -0.14686143477156188
  endloop
endfacet
facet normal 0.0 0.9569644994540258 -0.2902050082005925
  outer loop
    vertex 0.0 4.306340247543116 -1.3059225369026666
    vertex 72.0 3.8216076379109465 -2.3759871762828864
    vertex 0.0 3.8216076379109465 -2.3759871762828864
  endloop
endfacet
facet normal 0.0 0.8492461417579881 -0.5279971502850855
  outer loop
    vertex 72.0 3.8216076379109465 -2.3759871762828864
    vertex 0.0 4.306340247543116 -1.3059225369026666
    vertex 72.0 4.306340247543116 -1.3059225369026666
  endloop
endfacet
facet normal 0.0 0.8492461417579881 -0.5279971502850855
  outer loop
    vertex 0.0 3.8216076379109465 -2.3759871762828864
    vertex 72.0 3.076438783260375 -3.284132216103888
    vertex 0.0 3.076438783260375 -3.284132216103888
  endloop
endfacet
facet normal 0.0 0.68365306294675 -0.729807159134197
  outer loop
    vertex 72.0 3.076438783260375 -3.284132216103888
    vertex 0.0 3.8216076379109465 -2.3759871762828864
    vertex 72.0 3.8216076379109465 -2.3759871762828864
  endloop
endfacet
facet normal 0.0 0.68365306294675 -0.729807159134197
  outer loop
    vertex 72.0 3.076438783260375 -3.284132216103888
    vertex 0.0 2.1216157095860795 -3.9684690726825087
    vertex 0.0 3.076438783260375 -3.284132216103888
  endloop
endfacet
facet normal 0.0 0.47147015768579537 -0.8818820161516683
  outer loop
    vertex 0.0 2.1216157095860795 -3.9684690726825087
    vertex 72.0 3.076438783260375 -3.284132216103888
    vertex 72.0 2.1216157095860795 -3.9684690726825087
  endloop
endfacet
facet normal 0.0 0.47147015768579537 -0.8818820161516683
  outer loop
    vertex 72.0 2.1216157095860795 -3.9684690726825087
    vertex 0.0 1.0222080314392292 -4.3823613201630405
    vertex 0.0 2.1216157095860795 -3.9684690726825087
  endloop
endfacet
facet normal 0.0 0.2271573403198286 -0.973858071147342
  outer loop
    vertex 0.0 1.0222080314392292 -4.3823613201630405
    vertex 72.0 2.1216157095860795 -3.9684690726825087
    vertex 72.0 1.0222080314392292 -4.3823613201630405
  endloop
endfacet
facet normal 0.0 0.2271573403198286 -0.973858071147342
  outer loop
    vertex 72.0 1.0222080314392292 -4.3823613201630405
    vertex 0.0 -0.14686143477155977 -4.497602885868965
    vertex 0.0 1.0222080314392292 -4.3823613201630405
  endloop
endfacet
facet normal 0.0 -0.03263587439368038 -0.999467307970881
  outer loop
    vertex 0.0 -0.14686143477155977 -4.497602885868965
    vertex 72.0 1.0222080314392292 -4.3823613201630405
    vertex 72.0 -0.14686143477155977 -4.497602885868965
  endloop
endfacet
facet normal 0.0 -0.03263587439368038 -0.999467307970881
  outer loop
    vertex 72.0 -0.14686143477155977 -4.497602885868965
    vertex 0.0 -1.3059225369026655 -4.306340247543116
    vertex 0.0 -0.14686143477155977 -4.497602885868965
  endloop
endfacet
facet normal 0.0 -0.2902050082005923 -0.9569644994540258
  outer loop
    vertex 0.0 -1.3059225369026655 -4.306340247543116
    vertex 72.0 -0.14686143477155977 -4.497602885868965
    vertex 72.0 -1.3059225369026655 -4.306340247543116
  endloop
endfacet
facet normal 0.0 -0.2902050082005923 -0.9569644994540258
  outer loop
    vertex 72.0 -1.3059225369026655 -4.306340247543116
    vertex 0.0 -2.375987176282884 -3.821607637910948
    vertex 0.0 -1.3059225369026655 -4.306340247543116
  endloop
endfacet
facet normal 0.0 -0.5279971502850854 -0.8492461417579882
  outer loop
    vertex 0.0 -2.375987176282884 -3.821607637910948
    vertex 72.0 -1.3059225369026655 -4.306340247543116
    vertex 72.0 -2.375987176282884 -3.821607637910948
  endloop
endfacet
facet normal 0.0 -0.5279971502850854 -0.8492461417579882
  outer loop
    vertex 72.0 -2.375987176282884 -3.821607637910948
    vertex 0.0 -3.284132216103887 -3.0764387832603752
    vertex 0.0 -2.375987176282884 -3.821607637910948
  endloop
endfacet
facet normal 0.0 -0.7298071591341972 -0.6836530629467499
  outer loop
    vertex 0.0 -3.284132216103887 -3.0764387832603752
    vertex 72.0 -2.375987176282884 -3.821607637910948
    vertex 72.0 -3.284132216103887 -3.0764387832603752
  endloop
endfacet
facet normal 0.0 -0.8818820161516683 -0.47147015768579537
  outer loop
    vertex 72.0 -3.968469072682507 -2.121615709586079
    vertex 0.0 -3.284132216103887 -3.0764387832603752
    vertex 72.0 -3.284132216103887 -3.0764387832603752
  endloop
endfacet
facet normal 0.0 -0.7298071591341972 -0.6836530629467499
  outer loop
    vertex 0.0 -3.284132216103887 -3.0764387832603752
    vertex 72.0 -3.968469072682507 -2.121615709586079
    vertex 0.0 -3.968469072682507 -2.121615709586079
  endloop
endfacet
facet normal 0.0 -0.9738580711473419 -0.22715734031982893
  outer loop
    vertex 72.0 -4.382361320163039 -1.02220803143923
    vertex 0.0 -3.968469072682507 -2.121615709586079
    vertex 72.0 -3.968469072682507 -2.121615709586079
  endloop
endfacet
facet normal 0.0 -0.8818820161516683 -0.47147015768579537
  outer loop
    vertex 0.0 -3.968469072682507 -2.121615709586079
    vertex 72.0 -4.382361320163039 -1.02220803143923
    vertex 0.0 -4.382361320163039 -1.02220803143923
  endloop
endfacet
facet normal 0.0 -0.999467307970881 0.03263587439368005
  outer loop
    vertex 72.0 -4.497602885868965 0.14686143477156083
    vertex 0.0 -4.382361320163039 -1.02220803143923
    vertex 72.0 -4.382361320163039 -1.02220803143923
  endloop
endfacet
facet normal 0.0 -0.9738580711473419 -0.22715734031982893
  outer loop
    vertex 0.0 -4.382361320163039 -1.02220803143923
    vertex 72.0 -4.497602885868965 0.14686143477156083
    vertex 0.0 -4.497602885868965 0.14686143477156083
  endloop
endfacet
facet normal 0.0 -0.956964499454026 0.2902050082005919
  outer loop
    vertex 72.0 -4.306340247543116 1.305922536902664
    vertex 0.0 -4.497602885868965 0.14686143477156083
    vertex 72.0 -4.497602885868965 0.14686143477156083
  endloop
endfacet
facet normal 0.0 -0.999467307970881 0.03263587439368005
  outer loop
    vertex 0.0 -4.497602885868965 0.14686143477156083
    vertex 72.0 -4.306340247543116 1.305922536902664
    vertex 0.0 -4.306340247543116 1.305922536902664
  endloop
endfacet
facet normal 0.0 -0.8492461417579885 0.5279971502850848
  outer loop
    vertex 72.0 -3.821607637910948 2.375987176282884
    vertex 0.0 -4.306340247543116 1.305922536902664
    vertex 72.0 -4.306340247543116 1.305922536902664
  endloop
endfacet
facet normal 0.0 -0.956964499454026 0.2902050082005919
  outer loop
    vertex 0.0 -4.306340247543116 1.305922536902664
    vertex 72.0 -3.821607637910948 2.375987176282884
    vertex 0.0 -3.821607637910948 2.375987176282884
  endloop
endfacet
facet normal 0.0 -0.6836530629467501 0.7298071591341968
  outer loop
    vertex 72.0 -3.0764387832603766 3.284132216103887
    vertex 0.0 -3.821607637910948 2.375987176282884
    vertex 72.0 -3.821607637910948 2.375987176282884
  endloop
endfacet
facet normal 0.0 -0.8492461417579885 0.5279971502850848
  outer loop
    vertex 0.0 -3.821607637910948 2.375987176282884
    vertex 72.0 -3.0764387832603766 3.284132216103887
    vertex 0.0 -3.0764387832603766 3.284132216103887
  endloop
endfacet
facet normal 0.0 -0.6836530629467501 0.7298071591341968
  outer loop
    vertex 72.0 -3.0764387832603766 3.284132216103887
    vertex 0.0 -2.12161570958608 3.968469072682508
    vertex 0.0 -3.0764387832603766 3.284132216103887
  endloop
endfacet
facet normal 0.0 -0.47147015768579564 0.8818820161516681
  outer loop
    vertex 0.0 -2.12161570958608 3.968469072682508
    vertex 72.0 -3.0764387832603766 3.284132216103887
    vertex 72.0 -2.12161570958608 3.968469072682508
  endloop
endfacet
facet normal 0.0 -0.47147015768579564 0.8818820161516681
  outer loop
    vertex 72.0 -2.12161570958608 3.968469072682508
    vertex 0.0 -1.022208031439231 4.3823613201630405
    vertex 0.0 -2.12161570958608 3.968469072682508
  endloop
endfacet
facet normal 0.0 -0.22715734031982882 0.973858071147342
  outer loop
    vertex 0.0 -1.022208031439231 4.3823613201630405
    vertex 72.0 -2.12161570958608 3.968469072682508
    vertex 72.0 -1.022208031439231 4.3823613201630405
  endloop
endfacet
facet normal 0.0 -0.22715734031982882 0.973858071147342
  outer loop
    vertex 72.0 -1.022208031439231 4.3823613201630405
    vertex 0.0 0.14686143477155766 4.497602885868965
    vertex 0.0 -1.022208031439231 4.3823613201630405
  endloop
endfacet
facet normal 0.0 0.03263587439367996 0.999467307970881
  outer loop
    vertex 0.0 0.14686143477155766 4.497602885868965
    vertex 72.0 -1.022208031439231 4.3823613201630405
    vertex 72.0 0.14686143477155766 4.497602885868965
  endloop
endfacet
facet normal 0.0 0.03263587439367996 0.999467307970881
  outer loop
    vertex 72.0 0.14686143477155766 4.497602885868965
    vertex 0.0 1.305922536902665 4.306340247543117
    vertex 0.0 0.14686143477155766 4.497602885868965
  endloop
endfacet
facet normal 0.0 0.2902050082005919 0.9569644994540258
  outer loop
    vertex 0.0 1.305922536902665 4.306340247543117
    vertex 72.0 0.14686143477155766 4.497602885868965
    vertex 72.0 1.305922536902665 4.306340247543117
  endloop
endfacet
facet normal 0.0 -0.3572950017667834 -0.9339915854612793
  outer loop
    vertex 72.0 1.0718850053003512 2.8019747563838378
    vertex 0.0 0.3101569785829709 2.9839240353327163
    vertex 0.0 1.0718850053003512 2.8019747563838378
  endloop
endfacet
facet normal 0.0 -0.10338565952765705 -0.9946413451109054
  outer loop
    vertex 0.0 0.3101569785829709 2.9839240353327163
    vertex 72.0 1.0718850053003512 2.8019747563838378
    vertex 72.0 0.3101569785829709 2.9839240353327163
  endloop
endfacet
facet normal 0.0 -0.10338565952765705 -0.9946413451109054
  outer loop
    vertex 72.0 0.3101569785829709 2.9839240353327163
    vertex 0.0 -0.472707733666197 2.962523822441293
    vertex 0.0 0.3101569785829709 2.9839240353327163
  endloop
endfacet
facet normal 0.0 0.15756924455539892 -0.9875079408137643
  outer loop
    vertex 0.0 -0.472707733666197 2.962523822441293
    vertex 72.0 0.3101569785829709 2.9839240353327163
    vertex 72.0 -0.472707733666197 2.962523822441293
  endloop
endfacet
facet normal 0.0 0.15756924455539892 -0.9875079408137643
  outer loop
    vertex 72.0 -0.472707733666197 2.962523822441293
    vertex 0.0 -1.2233581950524788 2.7392325068525927
    vertex 0.0 -0.472707733666197 2.962523822441293
  endloop
endfacet
facet normal 0.0 0.40778606501749326 -0.9130775022841976
  outer loop
    vertex 0.0 -1.2233581950524788 2.7392325068525927
    vertex 72.0 -0.472707733666197 2.962523822441293
    vertex 72.0 -1.2233581950524788 2.7392325068525927
  endloop
endfacet
facet normal 0.0 0.40778606501749326 -0.9130775022841976
  outer loop
    vertex 72.0 -1.2233581950524788 2.7392325068525927
    vertex 0.0 -1.8906388171409414 2.3292670227176404
    vertex 0.0 -1.2233581950524788 2.7392325068525927
  endloop
endfacet
facet normal 0.0 0.6302129390469805 -0.7764223409058804
  outer loop
    vertex 0.0 -1.8906388171409414 2.3292670227176404
    vertex 72.0 -1.2233581950524788 2.7392325068525927
    vertex 72.0 -1.8906388171409414 2.3292670227176404
  endloop
endfacet
facet normal 0.0 0.6302129390469805 -0.7764223409058804
  outer loop
    vertex 0.0 -1.8906388171409414 2.3292670227176404
    vertex 72.0 -2.4290755282696215 1.7605658402802375
    vertex 0.0 -2.4290755282696215 1.7605658402802375
  endloop
endfacet
facet normal 0.0 0.8096918427565404 -0.5868552800934126
  outer loop
    vertex 72.0 -2.4290755282696215 1.7605658402802375
    vertex 0.0 -1.8906388171409414 2.3292670227176404
    vertex 72.0 -1.8906388171409414 2.3292670227176404
  endloop
endfacet
facet normal 0.0 0.8096918427565404 -0.5868552800934126
  outer loop
    vertex 0.0 -2.4290755282696215 1.7605658402802375
    vertex 72.0 -2.8019747563838373 1.071885005300352
    vertex 0.0 -2.8019747563838373 1.071885005300352
  endloop
endfacet
facet normal 0.0 0.9339915854612793 -0.35729500176678375
  outer loop
    vertex 72.0 -2.8019747563838373 1.071885005300352
    vertex 0.0 -2.4290755282696215 1.7605658402802375
    vertex 72.0 -2.4290755282696215 1.7605658402802375
  endloop
endfacet
facet normal 0.0 0.9339915854612793 -0.35729500176678375
  outer loop
    vertex 0.0 -2.8019747563838373 1.071885005300352
    vertex 72.0 -2.9839240353327163 0.3101569785829709
    vertex 0.0 -2.9839240353327163 0.3101569785829709
  endloop
endfacet
facet normal 0.0 0.9946413451109054 -0.10338565952765716
  outer loop
    vertex 72.0 -2.9839240353327163 0.3101569785829709
    vertex 0.0 -2.8019747563838373 1.071885005300352
    vertex 72.0 -2.8019747563838373 1.071885005300352
  endloop
endfacet
facet normal 0.0 0.9946413451109054 -0.10338565952765716
  outer loop
    vertex 0.0 -2.9839240353327163 0.3101569785829709
    vertex 72.0 -2.962523822441293 -0.4727077336661961
    vertex 0.0 -2.962523822441293 -0.4727077336661961
  endloop
endfacet
facet normal 0.0 0.9875079408137643 0.15756924455539884
  outer loop
    vertex 72.0 -2.962523822441293 -0.4727077336661961
    vertex 0.0 -2.9839240353327163 0.3101569785829709
    vertex 72.0 -2.9839240353327163 0.3101569785829709
  endloop
endfacet
facet normal 0.0 0.9875079408137643 0.15756924455539884
  outer loop
    vertex 0.0 -2.962523822441293 -0.4727077336661961
    vertex 72.0 -2.7392325068525927 -1.2233581950524786
    vertex 0.0 -2.7392325068525927 -1.2233581950524786
  endloop
endfacet
facet normal 0.0 0.9130775022841975 0.40778606501749304
  outer loop
    vertex 72.0 -2.7392325068525927 -1.2233581950524786
    vertex 0.0 -2.962523822441293 -0.4727077336661961
    vertex 72.0 -2.962523822441293 -0.4727077336661961
  endloop
endfacet
facet normal 0.0 0.9130775022841975 0.40778606501749304
  outer loop
    vertex 0.0 -2.7392325068525927 -1.2233581950524786
    vertex 72.0 -2.3292670227176404 -1.890638817140941
    vertex 0.0 -2.3292670227176404 -1.890638817140941
  endloop
endfacet
facet normal 0.0 0.7764223409058804 0.6302129390469802
  outer loop
    vertex 72.0 -2.3292670227176404 -1.890638817140941
    vertex 0.0 -2.7392325068525927 -1.2233581950524786
    vertex 72.0 -2.7392325068525927 -1.2233581950524786
  endloop
endfacet
facet normal 0.0 0.7764223409058804 0.6302129390469802
  outer loop
    vertex 72.0 -2.3292670227176404 -1.890638817140941
    vertex 0.0 -1.7605658402802378 -2.429075528269621
    vertex 0.0 -2.3292670227176404 -1.890638817140941
  endloop
endfacet
facet normal 0.0 0.5868552800934127 0.8096918427565404
  outer loop
    vertex 0.0 -1.7605658402802378 -2.429075528269621
    vertex 72.0 -2.3292670227176404 -1.890638817140941
    vertex 72.0 -1.7605658402802378 -2.429075528269621
  endloop
endfacet
facet normal 0.0 0.5868552800934127 0.8096918427565404
  outer loop
    vertex 72.0 -1.7605658402802378 -2.429075528269621
    vertex 0.0 -1.071885005300352 -2.8019747563838373
    vertex 0.0 -1.7605658402802378 -2.429075528269621
  endloop
endfacet
facet normal 0.0 0.3572950017667839 0.9339915854612793
  outer loop
    vertex 0.0 -1.071885005300352 -2.8019747563838373
    vertex 72.0 -1.7605658402802378 -2.429075528269621
    vertex 72.0 -1.071885005300352 -2.8019747563838373
  endloop
endfacet
facet normal 0.0 0.3572950017667839 0.9339915854612793
  outer loop
    vertex 72.0 -1.071885005300352 -2.8019747563838373
    vertex 0.0 -0.3101569785829723 -2.983924035332716
    vertex 0.0 -1.071885005300352 -2.8019747563838373
  endloop
endfacet
facet normal 0.0 0.10338565952765738 0.9946413451109054
  outer loop
    vertex 0.0 -0.3101569785829723 -2.983924035332716
    vertex 72.0 -1.071885005300352 -2.8019747563838373
    vertex 72.0 -0.3101569785829723 -2.983924035332716
  endloop
endfacet
facet normal 0.0 0.10338565952765738 0.9946413451109054
  outer loop
    vertex 72.0 -0.3101569785829723 -2.983924035332716
    vertex 0.0 0.4727077336661954 -2.962523822441293
    vertex 0.0 -0.3101569785829723 -2.983924035332716
  endloop
endfacet
facet normal 0.0 -0.15756924455539825 0.9875079408137644
  outer loop
    vertex 0.0 0.4727077336661954 -2.962523822441293
    vertex 72.0 -0.3101569785829723 -2.983924035332716
    vertex 72.0 0.4727077336661954 -2.962523822441293
  endloop
endfacet
facet normal 0.0 -0.15756924455539825 0.9875079408137644
  outer loop
    vertex 72.0 0.4727077336661954 -2.962523822441293
    vertex 0.0 1.2233581950524774 -2.7392325068525936
    vertex 0.0 0.4727077336661954 -2.962523822441293
  endloop
endfacet
facet normal 0.0 -0.4077860650174927 0.9130775022841977
  outer loop
    vertex 0.0 1.2233581950524774 -2.7392325068525936
    vertex 72.0 0.4727077336661954 -2.962523822441293
    vertex 72.0 1.2233581950524774 -2.7392325068525936
  endloop
endfacet
facet normal 0.0 -0.4077860650174927 0.9130775022841977
  outer loop
    vertex 72.0 1.2233581950524774 -2.7392325068525936
    vertex 0.0 1.890638817140941 -2.3292670227176404
    vertex 0.0 1.2233581950524774 -2.7392325068525936
  endloop
endfacet
facet normal 0.0 -0.6302129390469803 0.7764223409058806
  outer loop
    vertex 0.0 1.890638817140941 -2.3292670227176404
    vertex 72.0 1.2233581950524774 -2.7392325068525936
    vertex 72.0 1.890638817140941 -2.3292670227176404
  endloop
endfacet
facet normal 0.0 -0.8096918427565404 0.5868552800934127
  outer loop
    vertex 72.0 2.429075528269621 -1.7605658402802382
    vertex 0.0 1.890638817140941 -2.3292670227176404
    vertex 72.0 1.890638817140941 -2.3292670227176404
  endloop
endfacet
facet normal 0.0 -0.6302129390469803 0.7764223409058806
  outer loop
    vertex 0.0 1.890638817140941 -2.3292670227176404
    vertex 72.0 2.429075528269621 -1.7605658402802382
    vertex 0.0 2.429075528269621 -1.7605658402802382
  endloop
endfacet
facet normal 0.0 -0.933991585461279 0.3572950017667842
  outer loop
    vertex 72.0 2.8019747563838364 -1.071885005300353
    vertex 0.0 2.429075528269621 -1.7605658402802382
    vertex 72.0 2.429075528269621 -1.7605658402802382
  endloop
endfacet
facet normal 0.0 -0.8096918427565404 0.5868552800934127
  outer loop
    vertex 0.0 2.429075528269621 -1.7605658402802382
    vertex 72.0 2.8019747563838364 -1.071885005300353
    vertex 0.0 2.8019747563838364 -1.071885005300353
  endloop
endfacet
facet normal 0.0 -0.9946413451109054 0.10338565952765748
  outer loop
    vertex 72.0 2.9839240353327168 -0.31015697858297125
    vertex 0.0 2.8019747563838364 -1.071885005300353
    vertex 72.0 2.8019747563838364 -1.071885005300353
  endloop
endfacet
facet normal 0.0 -0.933991585461279 0.3572950017667842
  outer loop
    vertex 0.0 2.8019747563838364 -1.071885005300353
    vertex 72.0 2.9839240353327168 -0.31015697858297125
    vertex 0.0 2.9839240353327168 -0.31015697858297125
  endloop
endfacet
facet normal 0.0 -0.9875079408137643 -0.15756924455539872
  outer loop
    vertex 72.0 2.962523822441293 0.4727077336661954
    vertex 0.0 2.9839240353327168 -0.31015697858297125
    vertex 72.0 2.9839240353327168 -0.31015697858297125
  endloop
endfacet
facet normal 0.0 -0.9946413451109054 0.10338565952765748
  outer loop
    vertex 0.0 2.9839240353327168 -0.31015697858297125
    vertex 72.0 2.962523822441293 0.4727077336661954
    vertex 0.0 2.962523822441293 0.4727077336661954
  endloop
endfacet
facet normal 0.0 -0.9130775022841977 -0.40778606501749276
  outer loop
    vertex 72.0 2.7392325068525936 1.2233581950524772
    vertex 0.0 2.962523822441293 0.4727077336661954
    vertex 72.0 2.962523822441293 0.4727077336661954
  endloop
endfacet
facet normal 0.0 -0.9875079408137643 -0.15756924455539872
  outer loop
    vertex 0.0 2.962523822441293 0.4727077336661954
    vertex 72.0 2.7392325068525936 1.2233581950524772
    vertex 0.0 2.7392325068525936 1.2233581950524772
  endloop
endfacet
facet normal 0.0 -0.7764223409058804 -0.6302129390469802
  outer loop
    vertex 72.0 2.3292670227176404 1.8906388171409414
    vertex 0.0 2.7392325068525936 1.2233581950524772
    vertex 72.0 2.7392325068525936 1.2233581950524772
  endloop
endfacet
facet normal 0.0 -0.9130775022841977 -0.40778606501749276
  outer loop
    vertex 0.0 2.7392325068525936 1.2233581950524772
    vertex 72.0 2.3292670227176404 1.8906388171409414
    vertex 0.0 2.3292670227176404 1.8906388171409414
  endloop
endfacet
facet normal 0.0 -0.7764223409058804 -0.6302129390469802
  outer loop
    vertex 72.0 2.3292670227176404 1.8906388171409414
    vertex 0.0 1.760565840280237 2.429075528269622
    vertex 0.0 2.3292670227176404 1.8906388171409414
  endloop
endfacet
facet normal 0.0 -0.5868552800934125 -0.8096918427565404
  outer loop
    vertex 0.0 1.760565840280237 2.429075528269622
    vertex 72.0 2.3292670227176404 1.8906388171409414
    vertex 72.0 1.760565840280237 2.429075528269622
  endloop
endfacet
facet normal 0.0 -0.5868552800934125 -0.8096918427565404
  outer loop
    vertex 72.0 1.760565840280237 2.429075528269622
    vertex 0.0 1.0718850053003512 2.8019747563838378
    vertex 0.0 1.760565840280237 2.429075528269622
  endloop
endfacet
facet normal 0.0 -0.3572950017667834 -0.9339915854612793
  outer loop
    vertex 0.0 1.0718850053003512 2.8019747563838378
    vertex 72.0 1.760565840280237 2.429075528269622
    vertex 72.0 1.0718850053003512 2.8019747563838378
  endloop
endfacet
endsolid spacer-4mm-78mm
