solid spacer-4mm-78mm
facet normal -1.0 0.0 0.0
  outer loop
    vertex 0.0 -2.435045206093175 3.1734137524569115
    vertex 0.0 -2.9839240353327163 0.3101569785829709
    vertex 0.0 -3.1734129698728912 2.435046225976527
  endloop
endfacet
facet normal -1.0 0.0 0.0
  outer loop
    vertex 0.0 -2.9839240353327163 0.3101569785829709
    vertex 0.0 -2.435045206093175 3.1734137524569115
    vertex 0.0 -2.8019747563838373 1.071885005300352
  endloop
endfacet
facet normal -1.0 0.0 0.0
  outer loop
    vertex 0.0 -2.8019747563838373 1.071885005300352
    vertex 0.0 -2.435045206093175 3.1734137524569115
    vertex 0.0 -2.4290755282696215 1.7605658402802375
  endloop
endfacet
facet normal -1.0 0.0 0.0
  outer loop
    vertex 0.0 -2.4290755282696215 1.7605658402802375
    vertex 0.0 -2.435045206093175 3.1734137524569115
    vertex 0.0 -1.530733135620681 3.695518376021541
  endloop
endfacet
facet normal -1.0 0.0 0.0
  outer loop
    vertex 0.0 -2.4290755282696215 1.7605658402802375
    vertex 0.0 -1.530733135620681 3.695518376021541
    vertex 0.0 -1.8906388171409414 2.3292670227176404
  endloop
endfacet
facet normal -1.0 0.0 0.0
  outer loop
    vertex 0.0 -1.8906388171409414 2.3292670227176404
    vertex 0.0 -1.530733135620681 3.695518376021541
    vertex 0.0 -1.2233581950524788 2.7392325068525927
  endloop
endfacet
facet normal -1.0 0.0 0.0
  outer loop
    vertex 0.0 -1.2233581950524788 2.7392325068525927
    vertex 0.0 -1.530733135620681 3.695518376021541
    vertex 0.0 -0.522104131611751 3.965779529393174
  endloop
endfacet
facet normal -1.0 0.0 0.0
  outer loop
    vertex 0.0 -1.2233581950524788 2.7392325068525927
    vertex 0.0 -0.522104131611751 3.965779529393174
    vertex 0.0 -0.472707733666197 2.962523822441293
  endloop
endfacet
facet normal -1.0 0.0 0.0
  outer loop
    vertex 0.0 -0.472707733666197 2.962523822441293
    vertex 0.0 -0.522104131611751 3.965779529393174
    vertex 0.0 0.522105406148651 3.9657793615972086
  endloop
endfacet
facet normal -1.0 0.0 0.0
  outer loop
    vertex 0.0 -0.472707733666197 2.962523822441293
    vertex 0.0 0.522105406148651 3.9657793615972086
    vertex 0.0 0.3101569785829709 2.9839240353327163
  endloop
endfacet
facet normal -1.0 0.0 0.0
  outer loop
    vertex 0.0 0.3101569785829709 2.9839240353327163
    vertex 0.0 0.522105406148651 3.9657793615972086
    vertex 0.0 1.0718850053003512 2.8019747563838378
  endloop
endfacet
facet normal -1.0 0.0 0.0
  outer loop
    vertex 0.0 1.0718850053003512 2.8019747563838378
    vertex 0.0 0.522105406148651 3.9657793615972086
    vertex 0.0 1.5307343232999977 3.6955178840686593
  endloop
endfacet
facet normal -1.0 0.0 0.0
  outer loop
    vertex 0.0 1.0718850053003512 2.8019747563838378
    vertex 0.0 1.5307343232999977 3.6955178840686593
    vertex 0.0 1.760565840280237 2.429075528269622
  endloop
endfacet
facet normal -1.0 0.0 0.0
  outer loop
    vertex 0.0 1.760565840280237 2.429075528269622
    vertex 0.0 1.5307343232999977 3.6955178840686593
    vertex 0.0 2.4350462259765258 3.1734129698728903
  endloop
endfacet
facet normal -1.0 0.0 0.0
  outer loop
    vertex 0.0 1.760565840280237 2.429075528269622
    vertex 0.0 2.4350462259765258 3.1734129698728903
    vertex 0.0 2.3292670227176404 1.8906388171409414
  endloop
endfacet
facet normal -1.0 0.0 0.0
  outer loop
    vertex 0.0 2.3292670227176404 1.8906388171409414
    vertex 0.0 2.4350462259765258 3.1734129698728903
    vertex 0.0 2.7392325068525936 1.2233581950524772
  endloop
endfacet
facet normal -1.0 0.0 0.0
  outer loop
    vertex 0.0 2.7392325068525936 1.2233581950524772
    vertex 0.0 2.4350462259765258 3.1734129698728903
    vertex 0.0 3.173413752456911 2.435045206093174
  endloop
endfacet
facet normal -1.0 0.0 0.0
  outer loop
    vertex 0.0 2.7392325068525936 1.2233581950524772
    vertex 0.0 3.173413752456911 2.435045206093174
    vertex 0.0 2.962523822441293 0.4727077336661954
  endloop
endfacet
facet normal -1.0 0.0 0.0
  outer loop
    vertex 0.0 2.962523822441293 0.4727077336661954
    vertex 0.0 3.173413752456911 2.435045206093174
    vertex 0.0 2.9839240353327168 -0.31015697858297125
  endloop
endfacet
facet normal -1.0 0.0 0.0
  outer loop
    vertex 0.0 2.9839240353327168 -0.31015697858297125
    vertex 0.0 3.173413752456911 2.435045206093174
    vertex 0.0 3.1734129698728895 -2.4350462259765284
  endloop
endfacet
facet normal -1.0 0.0 0.0
  outer loop
    vertex 0.0 3.1734129698728895 -2.4350462259765284
    vertex 0.0 3.173413752456911 2.435045206093174
    vertex 0.0 3.6955178840686584 -1.5307343233000001
  endloop
endfacet
facet normal -1.0 0.0 0.0
  outer loop
    vertex 0.0 3.6955178840686584 -1.5307343233000001
    vertex 0.0 3.173413752456911 2.435045206093174
    vertex 0.0 3.6955183760215404 1.5307331356206788
  endloop
endfacet
facet normal -1.0 0.0 0.0
  outer loop
    vertex 0.0 3.6955178840686584 -1.5307343233000001
    vertex 0.0 3.6955183760215404 1.5307331356206788
    vertex 0.0 3.9657793615972072 -0.5221054061486524
  endloop
endfacet
facet normal -1.0 0.0 0.0
  outer loop
    vertex 0.0 3.9657793615972072 -0.5221054061486524
    vertex 0.0 3.6955183760215404 1.5307331356206788
    vertex 0.0 3.965779529393174 0.5221041316117471
  endloop
endfacet
facet normal -1.0 0.0 0.0
  outer loop
    vertex 0.0 -3.9657793615972072 0.5221054061486503
    vertex 0.0 -3.6955183760215404 -1.5307331356206804
    vertex 0.0 -3.965779529393174 -0.5221041316117483
  endloop
endfacet
facet normal -1.0 0.0 0.0
  outer loop
    vertex 0.0 -3.6955183760215404 -1.5307331356206804
    vertex 0.0 -3.9657793615972072 0.5221054061486503
    vertex 0.0 -3.6955178840686593 1.5307343232999986
  endloop
endfacet
facet normal -1.0 0.0 0.0
  outer loop
    vertex 0.0 -3.6955183760215404 -1.5307331356206804
    vertex 0.0 -3.6955178840686593 1.5307343232999986
    vertex 0.0 -3.1734137524569106 -2.435045206093174
  endloop
endfacet
facet normal -1.0 0.0 0.0
  outer loop
    vertex 0.0 -3.1734137524569106 -2.435045206093174
    vertex 0.0 -3.6955178840686593 1.5307343232999986
    vertex 0.0 -3.1734129698728912 2.435046225976527
  endloop
endfacet
facet normal -1.0 0.0 0.0
  outer loop
    vertex 0.0 -3.1734137524569106 -2.435045206093174
    vertex 0.0 -3.1734129698728912 2.435046225976527
    vertex 0.0 -2.962523822441293 -0.4727077336661961
  endloop
endfacet
facet normal -1.0 0.0 0.0
  outer loop
    vertex 0.0 -3.1734137524569106 -2.435045206093174
    vertex 0.0 -2.962523822441293 -0.4727077336661961
    vertex 0.0 -2.4350462259765275 -3.1734129698728895
  endloop
endfacet
facet normal -1.0 0.0 0.0
  outer loop
    vertex 0.0 -2.962523822441293 -0.4727077336661961
    vertex 0.0 -3.1734129698728912 2.435046225976527
    vertex 0.0 -2.9839240353327163 0.3101569785829709
  endloop
endfacet
facet normal -1.0 0.0 0.0
  outer loop
    vertex 0.0 -2.4350462259765275 -3.1734129698728895
    vertex 0.0 -2.962523822441293 -0.4727077336661961
    vertex 0.0 -2.7392325068525927 -1.2233581950524786
  endloop
endfacet
facet normal -1.0 0.0 0.0
  outer loop
    vertex 0.0 -2.4350462259765275 -3.1734129698728895
    vertex 0.0 -2.7392325068525927 -1.2233581950524786
    vertex 0.0 -2.3292670227176404 -1.890638817140941
  endloop
endfacet
facet normal -1.0 0.0 0.0
  outer loop
    vertex 0.0 -2.4350462259765275 -3.1734129698728895
    vertex 0.0 -2.3292670227176404 -1.890638817140941
    vertex 0.0 -1.5307343232999986 -3.6955178840686593
  endloop
endfacet
facet normal -1.0 0.0 0.0
  outer loop
    vertex 0.0 -1.5307343232999986 -3.6955178840686593
    vertex 0.0 -2.3292670227176404 -1.890638817140941
    vertex 0.0 -1.7605658402802378 -2.429075528269621
  endloop
endfacet
facet normal -1.0 0.0 0.0
  outer loop
    vertex 0.0 -1.5307343232999986 -3.6955178840686593
    vertex 0.0 -1.7605658402802378 -2.429075528269621
    vertex 0.0 -1.071885005300352 -2.8019747563838373
  endloop
endfacet
facet normal -1.0 0.0 0.0
  outer loop
    vertex 0.0 -1.5307343232999986 -3.6955178840686593
    vertex 0.0 -1.071885005300352 -2.8019747563838373
    vertex 0.0 -0.5221054061486514 -3.9657793615972077
  endloop
endfacet
facet normal -1.0 0.0 0.0
  outer loop
    vertex 0.0 -0.5221054061486514 -3.9657793615972077
    vertex 0.0 -1.071885005300352 -2.8019747563838373
    vertex 0.0 -0.3101569785829723 -2.983924035332716
  endloop
endfacet
facet normal -1.0 0.0 0.0
  outer loop
    vertex 0.0 -0.5221054061486514 -3.9657793615972077
    vertex 0.0 -0.3101569785829723 -2.983924035332716
    vertex 0.0 0.5221041316117492 -3.965779529393175
  endloop
endfacet
facet normal -1.0 0.0 0.0
  outer loop
    vertex 0.0 0.5221041316117492 -3.965779529393175
    vertex 0.0 -0.3101569785829723 -2.983924035332716
    vertex 0.0 0.4727077336661954 -2.962523822441293
  endloop
endfacet
facet normal -1.0 0.0 0.0
  outer loop
    vertex 0.0 0.5221041316117492 -3.965779529393175
    vertex 0.0 0.4727077336661954 -2.962523822441293
    vertex 0.0 1.2233581950524774 -2.7392325068525936
  endloop
endfacet
facet normal -1.0 0.0 0.0
  outer loop
    vertex 0.0 0.5221041316117492 -3.965779529393175
    vertex 0.0 1.2233581950524774 -2.7392325068525936
    vertex 0.0 1.5307331356206797 -3.695518376021541
  endloop
endfacet
facet normal -1.0 0.0 0.0
  outer loop
    vertex 0.0 1.5307331356206797 -3.695518376021541
    vertex 0.0 1.2233581950524774 -2.7392325068525936
    vertex 0.0 1.890638817140941 -2.3292670227176404
  endloop
endfacet
facet normal -1.0 0.0 0.0
  outer loop
    vertex 0.0 1.5307331356206797 -3.695518376021541
    vertex 0.0 1.890638817140941 -2.3292670227176404
    vertex 0.0 2.4350452060931747 -3.1734137524569115
  endloop
endfacet
facet normal -1.0 0.0 0.0
  outer loop
    vertex 0.0 2.4350452060931747 -3.1734137524569115
    vertex 0.0 1.890638817140941 -2.3292670227176404
    vertex 0.0 2.429075528269621 -1.7605658402802382
  endloop
endfacet
facet normal -1.0 0.0 0.0
  outer loop
    vertex 0.0 2.4350452060931747 -3.1734137524569115
    vertex 0.0 2.429075528269621 -1.7605658402802382
    vertex 0.0 2.8019747563838364 -1.071885005300353
  endloop
endfacet
facet normal -1.0 0.0 0.0
  outer loop
    vertex 0.0 2.4350452060931747 -3.1734137524569115
    vertex 0.0 2.8019747563838364 -1.071885005300353
    vertex 0.0 3.1734129698728895 -2.4350462259765284
  endloop
endfacet
facet normal -1.0 0.0 0.0
  outer loop
    vertex 0.0 3.1734129698728895 -2.4350462259765284
    vertex 0.0 2.8019747563838364 -1.071885005300353
    vertex 0.0 2.9839240353327168 -0.31015697858297125
  endloop
endfacet
facet normal 1.0 0.0 0.0
  outer loop
    vertex 9.999999999999998 -3.6955183760215404 -1.5307331356206804
    vertex 9.999999999999998 -3.9657793615972072 0.5221054061486503
    vertex 9.999999999999998 -3.965779529393174 -0.5221041316117483
  endloop
endfacet
facet normal 1.0 0.0 0.0
  outer loop
    vertex 9.999999999999998 -3.9657793615972072 0.5221054061486503
    vertex 9.999999999999998 -3.6955183760215404 -1.5307331356206804
    vertex 9.999999999999998 -3.6955178840686593 1.5307343232999986
  endloop
endfacet
facet normal 1.0 0.0 0.0
  outer loop
    vertex 9.999999999999998 -3.6955178840686593 1.5307343232999986
    vertex 9.999999999999998 -3.6955183760215404 -1.5307331356206804
    vertex 9.999999999999998 -3.1734137524569106 -2.435045206093174
  endloop
endfacet
facet normal 1.0 0.0 0.0
  outer loop
    vertex 9.999999999999998 -3.6955178840686593 1.5307343232999986
    vertex 9.999999999999998 -3.1734137524569106 -2.435045206093174
    vertex 9.999999999999998 -3.1734129698728912 2.435046225976527
  endloop
endfacet
facet normal 1.0 0.0 0.0
  outer loop
    vertex 9.999999999999998 -3.1734129698728912 2.435046225976527
    vertex 9.999999999999998 -3.1734137524569106 -2.435045206093174
    vertex 9.999999999999998 -2.962523822441293 -0.4727077336661961
  endloop
endfacet
facet normal 1.0 0.0 0.0
  outer loop
    vertex 9.999999999999998 -2.962523822441293 -0.4727077336661961
    vertex 9.999999999999998 -3.1734137524569106 -2.435045206093174
    vertex 9.999999999999998 -2.4350462259765275 -3.1734129698728895
  endloop
endfacet
facet normal 1.0 0.0 0.0
  outer loop
    vertex 9.999999999999998 -3.1734129698728912 2.435046225976527
    vertex 9.999999999999998 -2.962523822441293 -0.4727077336661961
    vertex 9.999999999999998 -2.9839240353327163 0.3101569785829709
  endloop
endfacet
facet normal 1.0 0.0 0.0
  outer loop
    vertex 9.999999999999998 -2.962523822441293 -0.4727077336661961
    vertex 9.999999999999998 -2.4350462259765275 -3.1734129698728895
    vertex 9.999999999999998 -2.7392325068525927 -1.2233581950524786
  endloop
endfacet
facet normal 1.0 0.0 0.0
  outer loop
    vertex 9.999999999999998 -2.7392325068525927 -1.2233581950524786
    vertex 9.999999999999998 -2.4350462259765275 -3.1734129698728895
    vertex 9.999999999999998 -2.3292670227176404 -1.890638817140941
  endloop
endfacet
facet normal 1.0 0.0 0.0
  outer loop
    vertex 9.999999999999998 -2.3292670227176404 -1.890638817140941
    vertex 9.999999999999998 -2.4350462259765275 -3.1734129698728895
    vertex 9.999999999999998 -1.5307343232999986 -3.6955178840686593
  endloop
endfacet
facet normal 1.0 0.0 0.0
  outer loop
    vertex 9.999999999999998 -2.3292670227176404 -1.890638817140941
    vertex 9.999999999999998 -1.5307343232999986 -3.6955178840686593
    vertex 9.999999999999998 -1.7605658402802378 -2.429075528269621
  endloop
endfacet
facet normal 1.0 0.0 0.0
  outer loop
    vertex 9.999999999999998 -1.7605658402802378 -2.429075528269621
    vertex 9.999999999999998 -1.5307343232999986 -3.6955178840686593
    vertex 9.999999999999998 -1.071885005300352 -2.8019747563838373
  endloop
endfacet
facet normal 1.0 0.0 0.0
  outer loop
    vertex 9.999999999999998 -1.071885005300352 -2.8019747563838373
    vertex 9.999999999999998 -1.5307343232999986 -3.6955178840686593
    vertex 9.999999999999998 -0.5221054061486514 -3.9657793615972077
  endloop
endfacet
facet normal 1.0 0.0 0.0
  outer loop
    vertex 9.999999999999998 -1.071885005300352 -2.8019747563838373
    vertex 9.999999999999998 -0.5221054061486514 -3.9657793615972077
    vertex 9.999999999999998 -0.3101569785829723 -2.983924035332716
  endloop
endfacet
facet normal 1.0 0.0 0.0
  outer loop
    vertex 9.999999999999998 -0.3101569785829723 -2.983924035332716
    vertex 9.999999999999998 -0.5221054061486514 -3.9657793615972077
    vertex 9.999999999999998 0.5221041316117492 -3.965779529393175
  endloop
endfacet
facet normal 1.0 0.0 0.0
  outer loop
    vertex 9.999999999999998 -0.3101569785829723 -2.983924035332716
    vertex 9.999999999999998 0.5221041316117492 -3.965779529393175
    vertex 9.999999999999998 0.4727077336661954 -2.962523822441293
  endloop
endfacet
facet normal 1.0 0.0 0.0
  outer loop
    vertex 9.999999999999998 0.4727077336661954 -2.962523822441293
    vertex 9.999999999999998 0.5221041316117492 -3.965779529393175
    vertex 9.999999999999998 1.2233581950524774 -2.7392325068525936
  endloop
endfacet
facet normal 1.0 0.0 0.0
  outer loop
    vertex 9.999999999999998 1.2233581950524774 -2.7392325068525936
    vertex 9.999999999999998 0.5221041316117492 -3.965779529393175
    vertex 9.999999999999998 1.5307331356206797 -3.695518376021541
  endloop
endfacet
facet normal 1.0 0.0 0.0
  outer loop
    vertex 9.999999999999998 1.2233581950524774 -2.7392325068525936
    vertex 9.999999999999998 1.5307331356206797 -3.695518376021541
    vertex 9.999999999999998 1.890638817140941 -2.3292670227176404
  endloop
endfacet
facet normal 1.0 0.0 0.0
  outer loop
    vertex 9.999999999999998 1.890638817140941 -2.3292670227176404
    vertex 9.999999999999998 1.5307331356206797 -3.695518376021541
    vertex 9.999999999999998 2.4350452060931747 -3.1734137524569115
  endloop
endfacet
facet normal 1.0 0.0 0.0
  outer loop
    vertex 9.999999999999998 1.890638817140941 -2.3292670227176404
    vertex 9.999999999999998 2.4350452060931747 -3.1734137524569115
    vertex 9.999999999999998 2.429075528269621 -1.7605658402802382
  endloop
endfacet
facet normal 1.0 0.0 0.0
  outer loop
    vertex 9.999999999999998 2.429075528269621 -1.7605658402802382
    vertex 9.999999999999998 2.4350452060931747 -3.1734137524569115
    vertex 9.999999999999998 2.8019747563838364 -1.071885005300353
  endloop
endfacet
facet normal 1.0 0.0 0.0
  outer loop
    vertex 9.999999999999998 2.8019747563838364 -1.071885005300353
    vertex 9.999999999999998 2.4350452060931747 -3.1734137524569115
    vertex 9.999999999999998 3.1734129698728895 -2.4350462259765284
  endloop
endfacet
facet normal 1.0 0.0 0.0
  outer loop
    vertex 9.999999999999998 2.8019747563838364 -1.071885005300353
    vertex 9.999999999999998 3.1734129698728895 -2.4350462259765284
    vertex 9.999999999999998 2.9839240353327168 -0.31015697858297125
  endloop
endfacet
facet normal 1.0 0.0 0.0
  outer loop
    vertex 9.999999999999998 -2.9839240353327163 0.3101569785829709
    vertex 9.999999999999998 -2.435045206093175 3.1734137524569115
    vertex 9.999999999999998 -3.1734129698728912 2.435046225976527
  endloop
endfacet
facet normal 1.0 0.0 0.0
  outer loop
    vertex 9.999999999999998 -2.435045206093175 3.1734137524569115
    vertex 9.999999999999998 -2.9839240353327163 0.3101569785829709
    vertex 9.999999999999998 -2.8019747563838373 1.071885005300352
  endloop
endfacet
facet normal 1.0 0.0 0.0
  outer loop
    vertex 9.999999999999998 -2.435045206093175 3.1734137524569115
    vertex 9.999999999999998 -2.8019747563838373 1.071885005300352
    vertex 9.999999999999998 -2.4290755282696215 1.7605658402802375
  endloop
endfacet
facet normal 1.0 0.0 0.0
  outer loop
    vertex 9.999999999999998 -2.435045206093175 3.1734137524569115
    vertex 9.999999999999998 -2.4290755282696215 1.7605658402802375
    vertex 9.999999999999998 -1.530733135620681 3.695518376021541
  endloop
endfacet
facet normal 1.0 0.0 0.0
  outer loop
    vertex 9.999999999999998 -1.530733135620681 3.695518376021541
    vertex 9.999999999999998 -2.4290755282696215 1.7605658402802375
    vertex 9.999999999999998 -1.8906388171409414 2.3292670227176404
  endloop
endfacet
facet normal 1.0 0.0 0.0
  outer loop
    vertex 9.999999999999998 -1.530733135620681 3.695518376021541
    vertex 9.999999999999998 -1.8906388171409414 2.3292670227176404
    vertex 9.999999999999998 -1.2233581950524788 2.7392325068525927
  endloop
endfacet
facet normal 1.0 0.0 0.0
  outer loop
    vertex 9.999999999999998 -1.530733135620681 3.695518376021541
    vertex 9.999999999999998 -1.2233581950524788 2.7392325068525927
    vertex 9.999999999999998 -0.522104131611751 3.965779529393174
  endloop
endfacet
facet normal 1.0 0.0 0.0
  outer loop
    vertex 9.999999999999998 -0.522104131611751 3.965779529393174
    vertex 9.999999999999998 -1.2233581950524788 2.7392325068525927
    vertex 9.999999999999998 -0.472707733666197 2.962523822441293
  endloop
endfacet
facet normal 1.0 0.0 0.0
  outer loop
    vertex 9.999999999999998 -0.522104131611751 3.965779529393174
    vertex 9.999999999999998 -0.472707733666197 2.962523822441293
    vertex 9.999999999999998 0.522105406148651 3.9657793615972086
  endloop
endfacet
facet normal 1.0 0.0 0.0
  outer loop
    vertex 9.999999999999998 0.522105406148651 3.9657793615972086
    vertex 9.999999999999998 -0.472707733666197 2.962523822441293
    vertex 9.999999999999998 0.3101569785829709 2.9839240353327163
  endloop
endfacet
facet normal 1.0 0.0 0.0
  outer loop
    vertex 9.999999999999998 0.522105406148651 3.9657793615972086
    vertex 9.999999999999998 0.3101569785829709 2.9839240353327163
    vertex 9.999999999999998 1.0718850053003512 2.8019747563838378
  endloop
endfacet
facet normal 1.0 0.0 0.0
  outer loop
    vertex 9.999999999999998 0.522105406148651 3.9657793615972086
    vertex 9.999999999999998 1.0718850053003512 2.8019747563838378
    vertex 9.999999999999998 1.5307343232999977 3.6955178840686593
  endloop
endfacet
facet normal 1.0 0.0 0.0
  outer loop
    vertex 9.999999999999998 1.5307343232999977 3.6955178840686593
    vertex 9.999999999999998 1.0718850053003512 2.8019747563838378
    vertex 9.999999999999998 1.760565840280237 2.429075528269622
  endloop
endfacet
facet normal 1.0 0.0 0.0
  outer loop
    vertex 9.999999999999998 1.5307343232999977 3.6955178840686593
    vertex 9.999999999999998 1.760565840280237 2.429075528269622
    vertex 9.999999999999998 2.4350462259765258 3.1734129698728903
  endloop
endfacet
facet normal 1.0 0.0 0.0
  outer loop
    vertex 9.999999999999998 2.4350462259765258 3.1734129698728903
    vertex 9.999999999999998 1.760565840280237 2.429075528269622
    vertex 9.999999999999998 2.3292670227176404 1.8906388171409414
  endloop
endfacet
facet normal 1.0 0.0 0.0
  outer loop
    vertex 9.999999999999998 2.4350462259765258 3.1734129698728903
    vertex 9.999999999999998 2.3292670227176404 1.8906388171409414
    vertex 9.999999999999998 2.7392325068525936 1.2233581950524772
  endloop
endfacet
facet normal 1.0 0.0 0.0
  outer loop
    vertex 9.999999999999998 2.4350462259765258 3.1734129698728903
    vertex 9.999999999999998 2.7392325068525936 1.2233581950524772
    vertex 9.999999999999998 3.173413752456911 2.435045206093174
  endloop
endfacet
facet normal 1.0 0.0 0.0
  outer loop
    vertex 9.999999999999998 3.173413752456911 2.435045206093174
    vertex 9.999999999999998 2.7392325068525936 1.2233581950524772
    vertex 9.999999999999998 2.962523822441293 0.4727077336661954
  endloop
endfacet
facet normal 1.0 0.0 0.0
  outer loop
    vertex 9.999999999999998 3.173413752456911 2.435045206093174
    vertex 9.999999999999998 2.962523822441293 0.4727077336661954
    vertex 9.999999999999998 2.9839240353327168 -0.31015697858297125
  endloop
endfacet
facet normal 1.0 0.0 0.0
  outer loop
    vertex 9.999999999999998 3.173413752456911 2.435045206093174
    vertex 9.999999999999998 2.9839240353327168 -0.31015697858297125
    vertex 9.999999999999998 3.1734129698728895 -2.4350462259765284
  endloop
endfacet
facet normal 1.0 0.0 0.0
  outer loop
    vertex 9.999999999999998 3.173413752456911 2.435045206093174
    vertex 9.999999999999998 3.1734129698728895 -2.4350462259765284
    vertex 9.999999999999998 3.6955178840686584 -1.5307343233000001
  endloop
endfacet
facet normal 1.0 0.0 0.0
  outer loop
    vertex 9.999999999999998 3.173413752456911 2.435045206093174
    vertex 9.999999999999998 3.6955178840686584 -1.5307343233000001
    vertex 9.999999999999998 3.6955183760215404 1.5307331356206788
  endloop
endfacet
facet normal 1.0 0.0 0.0
  outer loop
    vertex 9.999999999999998 3.6955183760215404 1.5307331356206788
    vertex 9.999999999999998 3.6955178840686584 -1.5307343233000001
    vertex 9.999999999999998 3.9657793615972072 -0.5221054061486524
  endloop
endfacet
facet normal 1.0 0.0 0.0
  outer loop
    vertex 9.999999999999998 3.6955183760215404 1.5307331356206788
    vertex 9.999999999999998 3.9657793615972072 -0.5221054061486524
    vertex 9.999999999999998 3.965779529393174 0.5221041316117471
  endloop
endfacet
facet normal 0.0 -0.9238795940053849 -0.38268328390517015
  outer loop
    vertex 9.999999999999998 -3.6955183760215404 -1.5307331356206804
    vertex 0.0 -3.1734137524569106 -2.435045206093174
    vertex 9.999999999999998 -3.1734137524569106 -2.435045206093174
  endloop
endfacet
facet normal 0.0 -0.7933534381142276 -0.6087613015232937
  outer loop
    vertex 0.0 -3.1734137524569106 -2.435045206093174
    vertex 9.999999999999998 -3.6955183760215404 -1.5307331356206804
    vertex 0.0 -3.6955183760215404 -1.5307331356206804
  endloop
endfacet
facet normal 0.0 -0.9914448823482935 -0.13052603290293688
  outer loop
    vertex 9.999999999999998 -3.965779529393174 -0.5221041316117483
    vertex 0.0 -3.6955183760215404 -1.5307331356206804
    vertex 9.999999999999998 -3.6955183760215404 -1.5307331356206804
  endloop
endfacet
facet normal 0.0 -0.9238795940053849 -0.38268328390517015
  outer loop
    vertex 0.0 -3.6955183760215404 -1.5307331356206804
    vertex 9.999999999999998 -3.965779529393174 -0.5221041316117483
    vertex 0.0 -3.965779529393174 -0.5221041316117483
  endloop
endfacet
facet normal 0.0 -0.9914448403993018 0.13052635153716258
  outer loop
    vertex 9.999999999999998 -3.9657793615972072 0.5221054061486503
    vertex 0.0 -3.965779529393174 -0.5221041316117483
    vertex 9.999999999999998 -3.965779529393174 -0.5221041316117483
  endloop
endfacet
facet normal 0.0 -0.9914448823482935 -0.13052603290293688
  outer loop
    vertex 0.0 -3.965779529393174 -0.5221041316117483
    vertex 9.999999999999998 -3.9657793615972072 0.5221054061486503
    vertex 0.0 -3.9657793615972072 0.5221054061486503
  endloop
endfacet
facet normal 0.0 -0.9238794710171649 0.3826835808249988
  outer loop
    vertex 9.999999999999998 -3.6955178840686593 1.5307343232999986
    vertex 0.0 -3.9657793615972072 0.5221054061486503
    vertex 9.999999999999998 -3.9657793615972072 0.5221054061486503
  endloop
endfacet
facet normal 0.0 -0.9914448403993018 0.13052635153716258
  outer loop
    vertex 0.0 -3.9657793615972072 0.5221054061486503
    vertex 9.999999999999998 -3.6955178840686593 1.5307343232999986
    vertex 0.0 -3.6955178840686593 1.5307343232999986
  endloop
endfacet
facet normal 0.0 -0.7933532424682225 0.6087615564941316
  outer loop
    vertex 9.999999999999998 -3.1734129698728912 2.435046225976527
    vertex 0.0 -3.6955178840686593 1.5307343232999986
    vertex 9.999999999999998 -3.6955178840686593 1.5307343232999986
  endloop
endfacet
facet normal 0.0 -0.9238794710171649 0.3826835808249988
  outer loop
    vertex 0.0 -3.6955178840686593 1.5307343232999986
    vertex 9.999999999999998 -3.1734129698728912 2.435046225976527
    vertex 0.0 -3.1734129698728912 2.435046225976527
  endloop
endfacet
facet normal 0.0 -0.7933532424682225 0.6087615564941316
  outer loop
    vertex 9.999999999999998 -3.1734129698728912 2.435046225976527
    vertex 0.0 -2.435045206093175 3.1734137524569115
    vertex 0.0 -3.1734129698728912 2.435046225976527
  endloop
endfacet
facet normal 0.0 -0.6087613015232939 0.7933534381142275
  outer loop
    vertex 0.0 -2.435045206093175 3.1734137524569115
    vertex 9.999999999999998 -3.1734129698728912 2.435046225976527
    vertex 9.999999999999998 -2.435045206093175 3.1734137524569115
  endloop
endfacet
facet normal 0.0 -0.6087613015232939 0.7933534381142275
  outer loop
    vertex 9.999999999999998 -2.435045206093175 3.1734137524569115
    vertex 0.0 -1.530733135620681 3.695518376021541
    vertex 0.0 -2.435045206093175 3.1734137524569115
  endloop
endfacet
facet normal 0.0 -0.38268328390517015 0.9238795940053851
  outer loop
    vertex 0.0 -1.530733135620681 3.695518376021541
    vertex 9.999999999999998 -2.435045206093175 3.1734137524569115
    vertex 9.999999999999998 -1.530733135620681 3.695518376021541
  endloop
endfacet
facet normal 0.0 -0.38268328390517015 0.9238795940053851
  outer loop
    vertex 9.999999999999998 -1.530733135620681 3.695518376021541
    vertex 0.0 -0.522104131611751 3.965779529393174
    vertex 0.0 -1.530733135620681 3.695518376021541
  endloop
endfacet
facet normal 0.0 -0.13052603290293743 0.9914448823482933
  outer loop
    vertex 0.0 -0.522104131611751 3.965779529393174
    vertex 9.999999999999998 -1.530733135620681 3.695518376021541
    vertex 9.999999999999998 -0.522104131611751 3.965779529393174
  endloop
endfacet
facet normal 0.0 -0.13052603290293743 0.9914448823482933
  outer loop
    vertex 9.999999999999998 -0.522104131611751 3.965779529393174
    vertex 0.0 0.522105406148651 3.9657793615972086
    vertex 0.0 -0.522104131611751 3.965779529393174
  endloop
endfacet
facet normal 0.0 0.13052635153716274 0.9914448403993018
  outer loop
    vertex 0.0 0.522105406148651 3.9657793615972086
    vertex 9.999999999999998 -0.522104131611751 3.965779529393174
    vertex 9.999999999999998 0.522105406148651 3.9657793615972086
  endloop
endfacet
facet normal 0.0 0.13052635153716274 0.9914448403993018
  outer loop
    vertex 9.999999999999998 0.522105406148651 3.9657793615972086
    vertex 0.0 1.5307343232999977 3.6955178840686593
    vertex 0.0 0.522105406148651 3.9657793615972086
  endloop
endfacet
facet normal 0.0 0.3826835808250001 0.9238794710171645
  outer loop
    vertex 0.0 1.5307343232999977 3.6955178840686593
    vertex 9.999999999999998 0.522105406148651 3.9657793615972086
    vertex 9.999999999999998 1.5307343232999977 3.6955178840686593
  endloop
endfacet
facet normal 0.0 0.3826835808250001 0.9238794710171645
  outer loop
    vertex 9.999999999999998 1.5307343232999977 3.6955178840686593
    vertex 0.0 2.4350462259765258 3.1734129698728903
    vertex 0.0 1.5307343232999977 3.6955178840686593
  endloop
endfacet
facet normal 0.0 0.6087615564941317 0.7933532424682224
  outer loop
    vertex 0.0 2.4350462259765258 3.1734129698728903
    vertex 9.999999999999998 1.5307343232999977 3.6955178840686593
    vertex 9.999999999999998 2.4350462259765258 3.1734129698728903
  endloop
endfacet
facet normal 0.0 0.6087615564941317 0.7933532424682224
  outer loop
    vertex 0.0 2.4350462259765258 3.1734129698728903
    vertex 9.999999999999998 3.173413752456911 2.435045206093174
    vertex 0.0 3.173413752456911 2.435045206093174
  endloop
endfacet
facet normal 0.0 0.7933534381142276 0.6087613015232936
  outer loop
    vertex 9.999999999999998 3.173413752456911 2.435045206093174
    vertex 0.0 2.4350462259765258 3.1734129698728903
    vertex 9.999999999999998 2.4350462259765258 3.1734129698728903
  endloop
endfacet
facet normal 0.0 0.7933534381142276 0.6087613015232936
  outer loop
    vertex 0.0 3.173413752456911 2.435045206093174
    vertex 9.999999999999998 3.6955183760215404 1.5307331356206788
    vertex 0.0 3.6955183760215404 1.5307331356206788
  endloop
endfacet
facet normal 0.0 0.923879594005385 0.3826832839051698
  outer loop
    vertex 9.999999999999998 3.6955183760215404 1.5307331356206788
    vertex 0.0 3.173413752456911 2.435045206093174
    vertex 9.999999999999998 3.173413752456911 2.435045206093174
  endloop
endfacet
facet normal 0.0 0.923879594005385 0.3826832839051698
  outer loop
    vertex 0.0 3.6955183760215404 1.5307331356206788
    vertex 9.999999999999998 3.965779529393174 0.5221041316117471
    vertex 0.0 3.965779529393174 0.5221041316117471
  endloop
endfacet
facet normal 0.0 0.9914448823482934 0.1305260329029369
  outer loop
    vertex 9.999999999999998 3.965779529393174 0.5221041316117471
    vertex 0.0 3.6955183760215404 1.5307331356206788
    vertex 9.999999999999998 3.6955183760215404 1.5307331356206788
  endloop
endfacet
facet normal 0.0 0.9914448823482934 0.1305260329029369
  outer loop
    vertex 0.0 3.965779529393174 0.5221041316117471
    vertex 9.999999999999998 3.9657793615972072 -0.5221054061486524
    vertex 0.0 3.9657793615972072 -0.5221054061486524
  endloop
endfacet
facet normal 0.0 0.9914448403993019 -0.130526351537163
  outer loop
    vertex 9.999999999999998 3.9657793615972072 -0.5221054061486524
    vertex 0.0 3.965779529393174 0.5221041316117471
    vertex 9.999999999999998 3.965779529393174 0.5221041316117471
  endloop
endfacet
facet normal 0.0 0.9914448403993019 -0.130526351537163
  outer loop
    vertex 0.0 3.9657793615972072 -0.5221054061486524
    vertex 9.999999999999998 3.6955178840686584 -1.5307343233000001
    vertex 0.0 3.6955178840686584 -1.5307343233000001
  endloop
endfacet
facet normal 0.0 0.9238794710171647 -0.3826835808249995
  outer loop
    vertex 9.999999999999998 3.6955178840686584 -1.5307343233000001
    vertex 0.0 3.9657793615972072 -0.5221054061486524
    vertex 9.999999999999998 3.9657793615972072 -0.5221054061486524
  endloop
endfacet
facet normal 0.0 0.9238794710171647 -0.3826835808249995
  outer loop
    vertex 0.0 3.6955178840686584 -1.5307343233000001
    vertex 9.999999999999998 3.1734129698728895 -2.4350462259765284
    vertex 0.0 3.1734129698728895 -2.4350462259765284
  endloop
endfacet
facet normal 0.0 0.7933532424682224 -0.6087615564941318
  outer loop
    vertex 9.999999999999998 3.1734129698728895 -2.4350462259765284
    vertex 0.0 3.6955178840686584 -1.5307343233000001
    vertex 9.999999999999998 3.6955178840686584 -1.5307343233000001
  endloop
endfacet
facet normal 0.0 0.7933532424682224 -0.6087615564941318
  outer loop
    vertex 9.999999999999998 3.1734129698728895 -2.4350462259765284
    vertex 0.0 2.4350452060931747 -3.1734137524569115
    vertex 0.0 3.1734129698728895 -2.4350462259765284
  endloop
endfacet
facet normal 0.0 0.6087613015232934 -0.7933534381142279
  outer loop
    vertex 0.0 2.4350452060931747 -3.1734137524569115
    vertex 9.999999999999998 3.1734129698728895 -2.4350462259765284
    vertex 9.999999999999998 2.4350452060931747 -3.1734137524569115
  endloop
endfacet
facet normal 0.0 0.6087613015232934 -0.7933534381142279
  outer loop
    vertex 9.999999999999998 2.4350452060931747 -3.1734137524569115
    vertex 0.0 1.5307331356206797 -3.695518376021541
    vertex 0.0 2.4350452060931747 -3.1734137524569115
  endloop
endfacet
facet normal 0.0 0.3826832839051699 -0.923879594005385
  outer loop
    vertex 0.0 1.5307331356206797 -3.695518376021541
    vertex 9.999999999999998 2.4350452060931747 -3.1734137524569115
    vertex 9.999999999999998 1.5307331356206797 -3.695518376021541
  endloop
endfacet
facet normal 0.0 0.3826832839051699 -0.923879594005385
  outer loop
    vertex 9.999999999999998 1.5307331356206797 -3.695518376021541
    vertex 0.0 0.5221041316117492 -3.965779529393175
    vertex 0.0 1.5307331356206797 -3.695518376021541
  endloop
endfacet
facet normal 0.0 0.13052603290293704 -0.9914448823482934
  outer loop
    vertex 0.0 0.5221041316117492 -3.965779529393175
    vertex 9.999999999999998 1.5307331356206797 -3.695518376021541
    vertex 9.999999999999998 0.5221041316117492 -3.965779529393175
  endloop
endfacet
facet normal 0.0 0.13052603290293704 -0.9914448823482934
  outer loop
    vertex 9.999999999999998 0.5221041316117492 -3.965779529393175
    vertex 0.0 -0.5221054061486514 -3.9657793615972077
    vertex 0.0 0.5221041316117492 -3.965779529393175
  endloop
endfacet
facet normal 0.0 -0.130526351537163 -0.9914448403993018
  outer loop
    vertex 0.0 -0.5221054061486514 -3.9657793615972077
    vertex 9.999999999999998 0.5221041316117492 -3.965779529393175
    vertex 9.999999999999998 -0.5221054061486514 -3.9657793615972077
  endloop
endfacet
facet normal 0.0 -0.130526351537163 -0.9914448403993018
  outer loop
    vertex 9.999999999999998 -0.5221054061486514 -3.9657793615972077
    vertex 0.0 -1.5307343232999986 -3.6955178840686593
    vertex 0.0 -0.5221054061486514 -3.9657793615972077
  endloop
endfacet
facet normal 0.0 -0.3826835808249997 -0.9238794710171645
  outer loop
    vertex 0.0 -1.5307343232999986 -3.6955178840686593
    vertex 9.999999999999998 -0.5221054061486514 -3.9657793615972077
    vertex 9.999999999999998 -1.5307343232999986 -3.6955178840686593
  endloop
endfacet
facet normal 0.0 -0.3826835808249997 -0.9238794710171645
  outer loop
    vertex 9.999999999999998 -1.5307343232999986 -3.6955178840686593
    vertex 0.0 -2.4350462259765275 -3.1734129698728895
    vertex 0.0 -1.5307343232999986 -3.6955178840686593
  endloop
endfacet
facet normal 0.0 -0.6087615564941321 -0.793353242468222
  outer loop
    vertex 0.0 -2.4350462259765275 -3.1734129698728895
    vertex 9.999999999999998 -1.5307343232999986 -3.6955178840686593
    vertex 9.999999999999998 -2.4350462259765275 -3.1734129698728895
  endloop
endfacet
facet normal 0.0 -0.7933534381142276 -0.6087613015232937
  outer loop
    vertex 9.999999999999998 -3.1734137524569106 -2.435045206093174
    vertex 0.0 -2.4350462259765275 -3.1734129698728895
    vertex 9.999999999999998 -2.4350462259765275 -3.1734129698728895
  endloop
endfacet
facet normal 0.0 -0.6087615564941321 -0.793353242468222
  outer loop
    vertex 0.0 -2.4350462259765275 -3.1734129698728895
    vertex 9.999999999999998 -3.1734137524569106 -2.435045206093174
    vertex 0.0 -3.1734137524569106 -2.435045206093174
  endloop
endfacet
facet normal 0.0 -0.3572950017667834 -0.9339915854612793
  outer loop
    vertex 9.999999999999998 1.0718850053003512 2.8019747563838378
    vertex 0.0 0.3101569785829709 2.9839240353327163
    vertex 0.0 1.0718850053003512 2.8019747563838378
  endloop
endfacet
facet normal 0.0 -0.10338565952765705 -0.9946413451109054
  outer loop
    vertex 0.0 0.3101569785829709 2.9839240353327163
    vertex 9.999999999999998 1.0718850053003512 2.8019747563838378
    vertex 9.999999999999998 0.3101569785829709 2.9839240353327163
  endloop
endfacet
facet normal 0.0 -0.10338565952765705 -0.9946413451109054
  outer loop
    vertex 9.999999999999998 0.3101569785829709 2.9839240353327163
    vertex 0.0 -0.472707733666197 2.962523822441293
    vertex 0.0 0.3101569785829709 2.9839240353327163
  endloop
endfacet
facet normal 0.0 0.15756924455539892 -0.9875079408137643
  outer loop
    vertex 0.0 -0.472707733666197 2.962523822441293
    vertex 9.999999999999998 0.3101569785829709 2.9839240353327163
    vertex 9.999999999999998 -0.472707733666197 2.962523822441293
  endloop
endfacet
facet normal 0.0 0.15756924455539892 -0.9875079408137643
  outer loop
    vertex 9.999999999999998 -0.472707733666197 2.962523822441293
    vertex 0.0 -1.2233581950524788 2.7392325068525927
    vertex 0.0 -0.472707733666197 2.962523822441293
  endloop
endfacet
facet normal 0.0 0.40778606501749326 -0.9130775022841976
  outer loop
    vertex 0.0 -1.2233581950524788 2.7392325068525927
    vertex 9.999999999999998 -0.472707733666197 2.962523822441293
    vertex 9.999999999999998 -1.2233581950524788 2.7392325068525927
  endloop
endfacet
facet normal 0.0 0.40778606501749326 -0.9130775022841976
  outer loop
    vertex 9.999999999999998 -1.2233581950524788 2.7392325068525927
    vertex 0.0 -1.8906388171409414 2.3292670227176404
    vertex 0.0 -1.2233581950524788 2.7392325068525927
  endloop
endfacet
facet normal 0.0 0.6302129390469805 -0.7764223409058804
  outer loop
    vertex 0.0 -1.8906388171409414 2.3292670227176404
    vertex 9.999999999999998 -1.2233581950524788 2.7392325068525927
    vertex 9.999999999999998 -1.8906388171409414 2.3292670227176404
  endloop
endfacet
facet normal 0.0 0.6302129390469805 -0.7764223409058804
  outer loop
    vertex 0.0 -1.8906388171409414 2.3292670227176404
    vertex 9.999999999999998 -2.4290755282696215 1.7605658402802375
    vertex 0.0 -2.4290755282696215 1.7605658402802375
  endloop
endfacet
facet normal 0.0 0.8096918427565404 -0.5868552800934126
  outer loop
    vertex 9.999999999999998 -2.4290755282696215 1.7605658402802375
    vertex 0.0 -1.8906388171409414 2.3292670227176404
    vertex 9.999999999999998 -1.8906388171409414 2.3292670227176404
  endloop
endfacet
facet normal 0.0 0.8096918427565404 -0.5868552800934126
  outer loop
    vertex 0.0 -2.4290755282696215 1.7605658402802375
    vertex 9.999999999999998 -2.8019747563838373 1.071885005300352
    vertex 0.0 -2.8019747563838373 1.071885005300352
  endloop
endfacet
facet normal 0.0 0.9339915854612793 -0.35729500176678375
  outer loop
    vertex 9.999999999999998 -2.8019747563838373 1.071885005300352
    vertex 0.0 -2.4290755282696215 1.7605658402802375
    vertex 9.999999999999998 -2.4290755282696215 1.7605658402802375
  endloop
endfacet
facet normal 0.0 0.9339915854612793 -0.35729500176678375
  outer loop
    vertex 0.0 -2.8019747563838373 1.071885005300352
    vertex 9.999999999999998 -2.9839240353327163 0.3101569785829709
    vertex 0.0 -2.9839240353327163 0.3101569785829709
  endloop
endfacet
facet normal 0.0 0.9946413451109054 -0.10338565952765716
  outer loop
    vertex 9.999999999999998 -2.9839240353327163 0.3101569785829709
    vertex 0.0 -2.8019747563838373 1.071885005300352
    vertex 9.999999999999998 -2.8019747563838373 1.071885005300352
  endloop
endfacet
facet normal 0.0 0.9946413451109054 -0.10338565952765716
  outer loop
    vertex 0.0 -2.9839240353327163 0.3101569785829709
    vertex 9.999999999999998 -2.962523822441293 -0.4727077336661961
    vertex 0.0 -2.962523822441293 -0.4727077336661961
  endloop
endfacet
facet normal 0.0 0.9875079408137643 0.15756924455539884
  outer loop
    vertex 9.999999999999998 -2.962523822441293 -0.4727077336661961
    vertex 0.0 -2.9839240353327163 0.3101569785829709
    vertex 9.999999999999998 -2.9839240353327163 0.3101569785829709
  endloop
endfacet
facet normal 0.0 0.9875079408137643 0.15756924455539884
  outer loop
    vertex 0.0 -2.962523822441293 -0.4727077336661961
    vertex 9.999999999999998 -2.7392325068525927 -1.2233581950524786
    vertex 0.0 -2.7392325068525927 -1.2233581950524786
  endloop
endfacet
facet normal 0.0 0.9130775022841975 0.40778606501749304
  outer loop
    vertex 9.999999999999998 -2.7392325068525927 -1.2233581950524786
    vertex 0.0 -2.962523822441293 -0.4727077336661961
    vertex 9.999999999999998 -2.962523822441293 -0.4727077336661961
  endloop
endfacet
facet normal 0.0 0.9130775022841975 0.40778606501749304
  outer loop
    vertex 0.0 -2.7392325068525927 -1.2233581950524786
    vertex 9.999999999999998 -2.3292670227176404 -1.890638817140941
    vertex 0.0 -2.3292670227176404 -1.890638817140941
  endloop
endfacet
facet normal 0.0 0.7764223409058804 0.6302129390469802
  outer loop
    vertex 9.999999999999998 -2.3292670227176404 -1.890638817140941
    vertex 0.0 -2.7392325068525927 -1.2233581950524786
    vertex 9.999999999999998 -2.7392325068525927 -1.2233581950524786
  endloop
endfacet
facet normal 0.0 0.7764223409058804 0.6302129390469802
  outer loop
    vertex 9.999999999999998 -2.3292670227176404 -1.890638817140941
    vertex 0.0 -1.7605658402802378 -2.429075528269621
    vertex 0.0 -2.3292670227176404 -1.890638817140941
  endloop
endfacet
facet normal 0.0 0.5868552800934127 0.8096918427565404
  outer loop
    vertex 0.0 -1.7605658402802378 -2.429075528269621
    vertex 9.999999999999998 -2.3292670227176404 -1.890638817140941
    vertex 9.999999999999998 -1.7605658402802378 -2.429075528269621
  endloop
endfacet
facet normal 0.0 0.5868552800934127 0.8096918427565404
  outer loop
    vertex 9.999999999999998 -1.7605658402802378 -2.429075528269621
    vertex 0.0 -1.071885005300352 -2.8019747563838373
    vertex 0.0 -1.7605658402802378 -2.429075528269621
  endloop
endfacet
facet normal 0.0 0.3572950017667839 0.9339915854612793
  outer loop
    vertex 0.0 -1.071885005300352 -2.8019747563838373
    vertex 9.999999999999998 -1.7605658402802378 -2.429075528269621
    vertex 9.999999999999998 -1.071885005300352 -2.8019747563838373
  endloop
endfacet
facet normal 0.0 0.3572950017667839 0.9339915854612793
  outer loop
    vertex 9.999999999999998 -1.071885005300352 -2.8019747563838373
    vertex 0.0 -0.3101569785829723 -2.983924035332716
    vertex 0.0 -1.071885005300352 -2.8019747563838373
  endloop
endfacet
facet normal 0.0 0.10338565952765738 0.9946413451109054
  outer loop
    vertex 0.0 -0.3101569785829723 -2.983924035332716
    vertex 9.999999999999998 -1.071885005300352 -2.8019747563838373
    vertex 9.999999999999998 -0.3101569785829723 -2.983924035332716
  endloop
endfacet
facet normal 0.0 0.10338565952765738 0.9946413451109054
  outer loop
    vertex 9.999999999999998 -0.3101569785829723 -2.983924035332716
    vertex 0.0 0.4727077336661954 -2.962523822441293
    vertex 0.0 -0.3101569785829723 -2.983924035332716
  endloop
endfacet
facet normal 0.0 -0.15756924455539825 0.9875079408137644
  outer loop
    vertex 0.0 0.4727077336661954 -2.962523822441293
    vertex 9.999999999999998 -0.3101569785829723 -2.983924035332716
    vertex 9.999999999999998 0.4727077336661954 -2.962523822441293
  endloop
endfacet
facet normal 0.0 -0.15756924455539825 0.9875079408137644
  outer loop
    vertex 9.999999999999998 0.4727077336661954 -2.962523822441293
    vertex 0.0 1.2233581950524774 -2.7392325068525936
    vertex 0.0 0.4727077336661954 -2.962523822441293
  endloop
endfacet
facet normal 0.0 -0.4077860650174927 0.9130775022841977
  outer loop
    vertex 0.0 1.2233581950524774 -2.7392325068525936
    vertex 9.999999999999998 0.4727077336661954 -2.962523822441293
    vertex 9.999999999999998 1.2233581950524774 -2.7392325068525936
  endloop
endfacet
facet normal 0.0 -0.4077860650174927 0.9130775022841977
  outer loop
    vertex 9.999999999999998 1.2233581950524774 -2.7392325068525936
    vertex 0.0 1.890638817140941 -2.3292670227176404
    vertex 0.0 1.2233581950524774 -2.7392325068525936
  endloop
endfacet
facet normal 0.0 -0.6302129390469803 0.7764223409058806
  outer loop
    vertex 0.0 1.890638817140941 -2.3292670227176404
    vertex 9.999999999999998 1.2233581950524774 -2.7392325068525936
    vertex 9.999999999999998 1.890638817140941 -2.3292670227176404
  endloop
endfacet
facet normal 0.0 -0.8096918427565404 0.5868552800934127
  outer loop
    vertex 9.999999999999998 2.429075528269621 -1.7605658402802382
    vertex 0.0 1.890638817140941 -2.3292670227176404
    vertex 9.999999999999998 1.890638817140941 -2.3292670227176404
  endloop
endfacet
facet normal 0.0 -0.6302129390469803 0.7764223409058806
  outer loop
    vertex 0.0 1.890638817140941 -2.3292670227176404
    vertex 9.999999999999998 2.429075528269621 -1.7605658402802382
    vertex 0.0 2.429075528269621 -1.7605658402802382
  endloop
endfacet
facet normal 0.0 -0.933991585461279 0.3572950017667842
  outer loop
    vertex 9.999999999999998 2.8019747563838364 -1.071885005300353
    vertex 0.0 2.429075528269621 -1.7605658402802382
    vertex 9.999999999999998 2.429075528269621 -1.7605658402802382
  endloop
endfacet
facet normal 0.0 -0.8096918427565404 0.5868552800934127
  outer loop
    vertex 0.0 2.429075528269621 -1.7605658402802382
    vertex 9.999999999999998 2.8019747563838364 -1.071885005300353
    vertex 0.0 2.8019747563838364 -1.071885005300353
  endloop
endfacet
facet normal 0.0 -0.9946413451109054 0.10338565952765748
  outer loop
    vertex 9.999999999999998 2.9839240353327168 -0.31015697858297125
    vertex 0.0 2.8019747563838364 -1.071885005300353
    vertex 9.999999999999998 2.8019747563838364 -1.071885005300353
  endloop
endfacet
facet normal 0.0 -0.933991585461279 0.3572950017667842
  outer loop
    vertex 0.0 2.8019747563838364 -1.071885005300353
    vertex 9.999999999999998 2.9839240353327168 -0.31015697858297125
    vertex 0.0 2.9839240353327168 -0.31015697858297125
  endloop
endfacet
facet normal 0.0 -0.9875079408137643 -0.15756924455539872
  outer loop
    vertex 9.999999999999998 2.962523822441293 0.4727077336661954
    vertex 0.0 2.9839240353327168 -0.31015697858297125
    vertex 9.999999999999998 2.9839240353327168 -0.31015697858297125
  endloop
endfacet
facet normal 0.0 -0.9946413451109054 0.10338565952765748
  outer loop
    vertex 0.0 2.9839240353327168 -0.31015697858297125
    vertex 9.999999999999998 2.962523822441293 0.4727077336661954
    vertex 0.0 2.962523822441293 0.4727077336661954
  endloop
endfacet
facet normal 0.0 -0.9130775022841977 -0.40778606501749276
  outer loop
    vertex 9.999999999999998 2.7392325068525936 1.2233581950524772
    vertex 0.0 2.962523822441293 0.4727077336661954
    vertex 9.999999999999998 2.962523822441293 0.4727077336661954
  endloop
endfacet
facet normal 0.0 -0.9875079408137643 -0.15756924455539872
  outer loop
    vertex 0.0 2.962523822441293 0.4727077336661954
    vertex 9.999999999999998 2.7392325068525936 1.2233581950524772
    vertex 0.0 2.7392325068525936 1.2233581950524772
  endloop
endfacet
facet normal 0.0 -0.7764223409058804 -0.6302129390469802
  outer loop
    vertex 9.999999999999998 2.3292670227176404 1.8906388171409414
    vertex 0.0 2.7392325068525936 1.2233581950524772
    vertex 9.999999999999998 2.7392325068525936 1.2233581950524772
  endloop
endfacet
facet normal 0.0 -0.9130775022841977 -0.40778606501749276
  outer loop
    vertex 0.0 2.7392325068525936 1.2233581950524772
    vertex 9.999999999999998 2.3292670227176404 1.8906388171409414
    vertex 0.0 2.3292670227176404 1.8906388171409414
  endloop
endfacet
facet normal 0.0 -0.7764223409058804 -0.6302129390469802
  outer loop
    vertex 9.999999999999998 2.3292670227176404 1.8906388171409414
    vertex 0.0 1.760565840280237 2.429075528269622
    vertex 0.0 2.3292670227176404 1.8906388171409414
  endloop
endfacet
facet normal 0.0 -0.5868552800934125 -0.8096918427565404
  outer loop
    vertex 0.0 1.760565840280237 2.429075528269622
    vertex 9.999999999999998 2.3292670227176404 1.8906388171409414
    vertex 9.999999999999998 1.760565840280237 2.429075528269622
  endloop
endfacet
facet normal 0.0 -0.5868552800934125 -0.8096918427565404
  outer loop
    vertex 9.999999999999998 1.760565840280237 2.429075528269622
    vertex 0.0 1.0718850053003512 2.8019747563838378
    vertex 0.0 1.760565840280237 2.429075528269622
  endloop
endfacet
facet normal 0.0 -0.3572950017667834 -0.9339915854612793
  outer loop
    vertex 0.0 1.0718850053003512 2.8019747563838378
    vertex 9.999999999999998 1.760565840280237 2.429075528269622
    vertex 9.999999999999998 1.0718850053003512 2.8019747563838378
  endloop
endfacet
endsolid spacer-4mm-78mm
