solid mount001
facet normal 0.0 0.0 -1.0
  outer loop
    vertex 1.5 56.0 0.0
    vertex 2.0511112605663966 52.88822856765377 0.0
    vertex 1.9999999999999991 52.49999999999999 0.0
  endloop
endfacet
facet normal 0.0 0.0 -1.0
  outer loop
    vertex 2.0511112605663966 52.88822856765377 0.0
    vertex 1.5 56.0 0.0
    vertex 2.2009618943233416 53.24999999999999 0.0
  endloop
endfacet
facet normal 0.0 0.0 -1.0
  outer loop
    vertex 2.2009618943233416 53.24999999999999 0.0
    vertex 1.5 56.0 0.0
    vertex 2.439339828220178 53.560660171779816 0.0
  endloop
endfacet
facet normal 0.0 0.0 -1.0
  outer loop
    vertex 2.439339828220178 53.560660171779816 0.0
    vertex 1.5 56.0 0.0
    vertex 2.7499999999999996 53.79903810567666 0.0
  endloop
endfacet
facet normal 0.0 0.0 -1.0
  outer loop
    vertex 2.7499999999999996 53.79903810567666 0.0
    vertex 1.5 56.0 0.0
    vertex 3.1117714323462184 53.9488887394336 0.0
  endloop
endfacet
facet normal 0.0 0.0 -1.0
  outer loop
    vertex 3.1117714323462184 53.9488887394336 0.0
    vertex 1.5 56.0 0.0
    vertex 9.999999999999996 56.0 0.0
  endloop
endfacet
facet normal 0.0 0.0 -1.0
  outer loop
    vertex 3.1117714323462184 53.9488887394336 0.0
    vertex 9.999999999999996 56.0 0.0
    vertex 3.499999999999999 53.99999999999999 0.0
  endloop
endfacet
facet normal 0.0 0.0 -1.0
  outer loop
    vertex 3.499999999999999 53.99999999999999 0.0
    vertex 9.999999999999996 56.0 0.0
    vertex 3.8882285676537807 53.9488887394336 0.0
  endloop
endfacet
facet normal 0.0 0.0 -1.0
  outer loop
    vertex 3.8882285676537807 53.9488887394336 0.0
    vertex 9.999999999999996 56.0 0.0
    vertex 4.249999999999999 53.79903810567666 0.0
  endloop
endfacet
facet normal 0.0 0.0 -1.0
  outer loop
    vertex 4.249999999999999 53.79903810567666 0.0
    vertex 9.999999999999996 56.0 0.0
    vertex 4.56066017177982 53.560660171779816 0.0
  endloop
endfacet
facet normal 0.0 0.0 -1.0
  outer loop
    vertex 4.56066017177982 53.560660171779816 0.0
    vertex 9.999999999999996 56.0 0.0
    vertex 4.799038105676657 53.24999999999999 0.0
  endloop
endfacet
facet normal 0.0 0.0 -1.0
  outer loop
    vertex 4.799038105676657 53.24999999999999 0.0
    vertex 9.999999999999996 56.0 0.0
    vertex 4.948888739433602 52.88822856765377 0.0
  endloop
endfacet
facet normal 0.0 0.0 -1.0
  outer loop
    vertex 4.948888739433602 52.88822856765377 0.0
    vertex 9.999999999999996 56.0 0.0
    vertex 4.999999999999999 52.49999999999999 0.0
  endloop
endfacet
facet normal 0.0 0.0 -1.0
  outer loop
    vertex 0.0511112605663978 54.88822856765378 0.0
    vertex 0.0 47.13668530868269 0.0
    vertex 0.0 54.5 0.0
  endloop
endfacet
facet normal 0.0 0.0 -1.0
  outer loop
    vertex 0.0 47.13668530868269 0.0
    vertex 0.0511112605663978 54.88822856765378 0.0
    vertex 2.200961894323341 51.74999999999999 0.0
  endloop
endfacet
facet normal 0.0 0.0 -1.0
  outer loop
    vertex 0.0 47.13668530868269 0.0
    vertex 2.200961894323341 51.74999999999999 0.0
    vertex 2.4393398282201773 51.43933982822017 0.0
  endloop
endfacet
facet normal 0.0 0.0 -1.0
  outer loop
    vertex 0.0 47.13668530868269 0.0
    vertex 2.4393398282201773 51.43933982822017 0.0
    vertex 2.7499999999999987 51.200961894323335 0.0
  endloop
endfacet
facet normal 0.0 0.0 -1.0
  outer loop
    vertex 0.0 47.13668530868269 0.0
    vertex 2.7499999999999987 51.200961894323335 0.0
    vertex 9.999999999999998 47.13668530868269 0.0
  endloop
endfacet
facet normal 0.0 0.0 -1.0
  outer loop
    vertex 2.200961894323341 51.74999999999999 0.0
    vertex 0.0511112605663978 54.88822856765378 0.0
    vertex 0.11418070123306998 55.07402514854763 0.0
  endloop
endfacet
facet normal 0.0 0.0 -1.0
  outer loop
    vertex 2.200961894323341 51.74999999999999 0.0
    vertex 0.11418070123306998 55.07402514854763 0.0
    vertex 0.2009618943233422 55.25 0.0
  endloop
endfacet
facet normal 0.0 0.0 -1.0
  outer loop
    vertex 2.200961894323341 51.74999999999999 0.0
    vertex 0.2009618943233422 55.25 0.0
    vertex 0.3099699895631474 55.41314214351308 0.0
  endloop
endfacet
facet normal 0.0 0.0 -1.0
  outer loop
    vertex 2.200961894323341 51.74999999999999 0.0
    vertex 0.3099699895631474 55.41314214351308 0.0
    vertex 0.4393398282201788 55.56066017177982 0.0
  endloop
endfacet
facet normal 0.0 0.0 -1.0
  outer loop
    vertex 2.200961894323341 51.74999999999999 0.0
    vertex 0.4393398282201788 55.56066017177982 0.0
    vertex 2.0511112605663966 52.11177143234622 0.0
  endloop
endfacet
facet normal 0.0 0.0 -1.0
  outer loop
    vertex 2.0511112605663966 52.11177143234622 0.0
    vertex 0.4393398282201788 55.56066017177982 0.0
    vertex 0.5868578564869192 55.69003001043686 0.0
  endloop
endfacet
facet normal 0.0 0.0 -1.0
  outer loop
    vertex 2.0511112605663966 52.11177143234622 0.0
    vertex 0.5868578564869192 55.69003001043686 0.0
    vertex 0.75 55.799038105676665 0.0
  endloop
endfacet
facet normal 0.0 0.0 -1.0
  outer loop
    vertex 2.0511112605663966 52.11177143234622 0.0
    vertex 0.75 55.799038105676665 0.0
    vertex 0.9259748514523654 55.88581929876693 0.0
  endloop
endfacet
facet normal 0.0 0.0 -1.0
  outer loop
    vertex 2.0511112605663966 52.11177143234622 0.0
    vertex 0.9259748514523654 55.88581929876693 0.0
    vertex 1.1117714323462187 55.948888739433606 0.0
  endloop
endfacet
facet normal 0.0 0.0 -1.0
  outer loop
    vertex 2.0511112605663966 52.11177143234622 0.0
    vertex 1.1117714323462187 55.948888739433606 0.0
    vertex 1.5 56.0 0.0
  endloop
endfacet
facet normal 0.0 0.0 -1.0
  outer loop
    vertex 2.0511112605663966 52.11177143234622 0.0
    vertex 1.5 56.0 0.0
    vertex 1.9999999999999991 52.49999999999999 0.0
  endloop
endfacet
facet normal 0.0 0.0 -1.0
  outer loop
    vertex 9.999999999999998 47.13668530868269 0.0
    vertex 2.7499999999999987 51.200961894323335 0.0
    vertex 3.111771432346217 51.051111260566394 0.0
  endloop
endfacet
facet normal 0.0 0.0 -1.0
  outer loop
    vertex 9.999999999999998 47.13668530868269 0.0
    vertex 3.111771432346217 51.051111260566394 0.0
    vertex 3.499999999999999 51.0 0.0
  endloop
endfacet
facet normal 0.0 0.0 -1.0
  outer loop
    vertex 9.999999999999998 47.13668530868269 0.0
    vertex 3.499999999999999 51.0 0.0
    vertex 3.8882285676537798 51.051111260566394 0.0
  endloop
endfacet
facet normal 0.0 0.0 -1.0
  outer loop
    vertex 9.999999999999998 47.13668530868269 0.0
    vertex 3.8882285676537798 51.051111260566394 0.0
    vertex 4.249999999999998 51.200961894323335 0.0
  endloop
endfacet
facet normal 0.0 0.0 -1.0
  outer loop
    vertex 9.999999999999998 47.13668530868269 0.0
    vertex 4.249999999999998 51.200961894323335 0.0
    vertex 4.56066017177982 51.43933982822017 0.0
  endloop
endfacet
facet normal 0.0 0.0 -1.0
  outer loop
    vertex 9.999999999999998 47.13668530868269 0.0
    vertex 4.56066017177982 51.43933982822017 0.0
    vertex 4.799038105676656 51.74999999999999 0.0
  endloop
endfacet
facet normal 0.0 0.0 -1.0
  outer loop
    vertex 9.999999999999998 47.13668530868269 0.0
    vertex 4.799038105676656 51.74999999999999 0.0
    vertex 4.948888739433602 52.11177143234622 0.0
  endloop
endfacet
facet normal 0.0 0.0 -1.0
  outer loop
    vertex 9.999999999999998 47.13668530868269 0.0
    vertex 4.948888739433602 52.11177143234622 0.0
    vertex 4.999999999999999 52.49999999999999 0.0
  endloop
endfacet
facet normal 0.0 0.0 -1.0
  outer loop
    vertex 9.999999999999998 47.13668530868269 0.0
    vertex 4.999999999999999 52.49999999999999 0.0
    vertex 9.999999999999996 56.0 0.0
  endloop
endfacet
facet normal -0.0 -0.0 1.0
  outer loop
    vertex 0.0 47.13668530868269 3.0
    vertex 2.4393398282201773 51.43933982822017 3.0
    vertex 0.0 54.5 3.0
  endloop
endfacet
facet normal -0.0 -0.0 1.0
  outer loop
    vertex 2.4393398282201773 51.43933982822017 3.0
    vertex 0.0 47.13668530868269 3.0
    vertex 2.7499999999999987 51.200961894323335 3.0
  endloop
endfacet
facet normal -0.0 -0.0 1.0
  outer loop
    vertex 2.7499999999999987 51.200961894323335 3.0
    vertex 0.0 47.13668530868269 3.0
    vertex 9.999999999999998 47.13668530868269 3.0
  endloop
endfacet
facet normal -0.0 -0.0 1.0
  outer loop
    vertex 0.0 54.5 3.0
    vertex 2.4393398282201773 51.43933982822017 3.0
    vertex 2.200961894323341 51.74999999999999 3.0
  endloop
endfacet
facet normal -0.0 -0.0 1.0
  outer loop
    vertex 0.0 54.5 3.0
    vertex 2.200961894323341 51.74999999999999 3.0
    vertex 0.0511112605663978 54.88822856765378 3.0
  endloop
endfacet
facet normal -0.0 -0.0 1.0
  outer loop
    vertex 0.0511112605663978 54.88822856765378 3.0
    vertex 2.200961894323341 51.74999999999999 3.0
    vertex 0.11418070123306998 55.07402514854763 3.0
  endloop
endfacet
facet normal -0.0 -0.0 1.0
  outer loop
    vertex 0.11418070123306998 55.07402514854763 3.0
    vertex 2.200961894323341 51.74999999999999 3.0
    vertex 0.2009618943233422 55.25 3.0
  endloop
endfacet
facet normal -0.0 -0.0 1.0
  outer loop
    vertex 0.2009618943233422 55.25 3.0
    vertex 2.200961894323341 51.74999999999999 3.0
    vertex 0.3099699895631474 55.41314214351308 3.0
  endloop
endfacet
facet normal -0.0 -0.0 1.0
  outer loop
    vertex 0.3099699895631474 55.41314214351308 3.0
    vertex 2.200961894323341 51.74999999999999 3.0
    vertex 0.4393398282201788 55.56066017177982 3.0
  endloop
endfacet
facet normal -0.0 -0.0 1.0
  outer loop
    vertex 0.4393398282201788 55.56066017177982 3.0
    vertex 2.200961894323341 51.74999999999999 3.0
    vertex 2.0511112605663966 52.11177143234622 3.0
  endloop
endfacet
facet normal -0.0 -0.0 1.0
  outer loop
    vertex 0.4393398282201788 55.56066017177982 3.0
    vertex 2.0511112605663966 52.11177143234622 3.0
    vertex 0.5868578564869192 55.69003001043686 3.0
  endloop
endfacet
facet normal -0.0 -0.0 1.0
  outer loop
    vertex 0.5868578564869192 55.69003001043686 3.0
    vertex 2.0511112605663966 52.11177143234622 3.0
    vertex 0.75 55.799038105676665 3.0
  endloop
endfacet
facet normal -0.0 -0.0 1.0
  outer loop
    vertex 0.75 55.799038105676665 3.0
    vertex 2.0511112605663966 52.11177143234622 3.0
    vertex 0.9259748514523654 55.88581929876693 3.0
  endloop
endfacet
facet normal -0.0 -0.0 1.0
  outer loop
    vertex 0.9259748514523654 55.88581929876693 3.0
    vertex 2.0511112605663966 52.11177143234622 3.0
    vertex 1.1117714323462187 55.948888739433606 3.0
  endloop
endfacet
facet normal -0.0 -0.0 1.0
  outer loop
    vertex 1.1117714323462187 55.948888739433606 3.0
    vertex 2.0511112605663966 52.11177143234622 3.0
    vertex 1.5 56.0 3.0
  endloop
endfacet
facet normal -0.0 -0.0 1.0
  outer loop
    vertex 1.5 56.0 3.0
    vertex 2.0511112605663966 52.11177143234622 3.0
    vertex 1.9999999999999991 52.49999999999999 3.0
  endloop
endfacet
facet normal -0.0 -0.0 1.0
  outer loop
    vertex 2.7499999999999987 51.200961894323335 3.0
    vertex 9.999999999999998 47.13668530868269 3.0
    vertex 3.111771432346217 51.051111260566394 3.0
  endloop
endfacet
facet normal -0.0 -0.0 1.0
  outer loop
    vertex 3.111771432346217 51.051111260566394 3.0
    vertex 9.999999999999998 47.13668530868269 3.0
    vertex 3.499999999999999 51.0 3.0
  endloop
endfacet
facet normal -0.0 -0.0 1.0
  outer loop
    vertex 3.499999999999999 51.0 3.0
    vertex 9.999999999999998 47.13668530868269 3.0
    vertex 3.8882285676537798 51.051111260566394 3.0
  endloop
endfacet
facet normal -0.0 -0.0 1.0
  outer loop
    vertex 3.8882285676537798 51.051111260566394 3.0
    vertex 9.999999999999998 47.13668530868269 3.0
    vertex 4.249999999999998 51.200961894323335 3.0
  endloop
endfacet
facet normal -0.0 -0.0 1.0
  outer loop
    vertex 4.249999999999998 51.200961894323335 3.0
    vertex 9.999999999999998 47.13668530868269 3.0
    vertex 4.56066017177982 51.43933982822017 3.0
  endloop
endfacet
facet normal -0.0 -0.0 1.0
  outer loop
    vertex 4.56066017177982 51.43933982822017 3.0
    vertex 9.999999999999998 47.13668530868269 3.0
    vertex 4.799038105676656 51.74999999999999 3.0
  endloop
endfacet
facet normal -0.0 -0.0 1.0
  outer loop
    vertex 4.799038105676656 51.74999999999999 3.0
    vertex 9.999999999999998 47.13668530868269 3.0
    vertex 4.948888739433602 52.11177143234622 3.0
  endloop
endfacet
facet normal -0.0 -0.0 1.0
  outer loop
    vertex 4.948888739433602 52.11177143234622 3.0
    vertex 9.999999999999998 47.13668530868269 3.0
    vertex 4.999999999999999 52.49999999999999 3.0
  endloop
endfacet
facet normal -0.0 -0.0 1.0
  outer loop
    vertex 4.999999999999999 52.49999999999999 3.0
    vertex 9.999999999999998 47.13668530868269 3.0
    vertex 9.999999999999996 56.0 3.0
  endloop
endfacet
facet normal -0.0 -0.0 1.0
  outer loop
    vertex 1.5 56.0 3.0
    vertex 3.1117714323462184 53.9488887394336 3.0
    vertex 9.999999999999996 56.0 3.0
  endloop
endfacet
facet normal -0.0 -0.0 1.0
  outer loop
    vertex 3.1117714323462184 53.9488887394336 3.0
    vertex 1.5 56.0 3.0
    vertex 2.7499999999999996 53.79903810567666 3.0
  endloop
endfacet
facet normal -0.0 -0.0 1.0
  outer loop
    vertex 2.7499999999999996 53.79903810567666 3.0
    vertex 1.5 56.0 3.0
    vertex 2.439339828220178 53.560660171779816 3.0
  endloop
endfacet
facet normal -0.0 -0.0 1.0
  outer loop
    vertex 2.439339828220178 53.560660171779816 3.0
    vertex 1.5 56.0 3.0
    vertex 2.2009618943233416 53.24999999999999 3.0
  endloop
endfacet
facet normal -0.0 -0.0 1.0
  outer loop
    vertex 2.2009618943233416 53.24999999999999 3.0
    vertex 1.5 56.0 3.0
    vertex 2.0511112605663966 52.88822856765377 3.0
  endloop
endfacet
facet normal -0.0 -0.0 1.0
  outer loop
    vertex 2.0511112605663966 52.88822856765377 3.0
    vertex 1.5 56.0 3.0
    vertex 1.9999999999999991 52.49999999999999 3.0
  endloop
endfacet
facet normal -0.0 -0.0 1.0
  outer loop
    vertex 9.999999999999996 56.0 3.0
    vertex 3.1117714323462184 53.9488887394336 3.0
    vertex 3.499999999999999 53.99999999999999 3.0
  endloop
endfacet
facet normal -0.0 -0.0 1.0
  outer loop
    vertex 9.999999999999996 56.0 3.0
    vertex 3.499999999999999 53.99999999999999 3.0
    vertex 3.8882285676537807 53.9488887394336 3.0
  endloop
endfacet
facet normal -0.0 -0.0 1.0
  outer loop
    vertex 9.999999999999996 56.0 3.0
    vertex 3.8882285676537807 53.9488887394336 3.0
    vertex 4.249999999999999 53.79903810567666 3.0
  endloop
endfacet
facet normal -0.0 -0.0 1.0
  outer loop
    vertex 9.999999999999996 56.0 3.0
    vertex 4.249999999999999 53.79903810567666 3.0
    vertex 4.56066017177982 53.560660171779816 3.0
  endloop
endfacet
facet normal -0.0 -0.0 1.0
  outer loop
    vertex 9.999999999999996 56.0 3.0
    vertex 4.56066017177982 53.560660171779816 3.0
    vertex 4.799038105676657 53.24999999999999 3.0
  endloop
endfacet
facet normal -0.0 -0.0 1.0
  outer loop
    vertex 9.999999999999996 56.0 3.0
    vertex 4.799038105676657 53.24999999999999 3.0
    vertex 4.948888739433602 52.88822856765377 3.0
  endloop
endfacet
facet normal -0.0 -0.0 1.0
  outer loop
    vertex 9.999999999999996 56.0 3.0
    vertex 4.948888739433602 52.88822856765377 3.0
    vertex 4.999999999999999 52.49999999999999 3.0
  endloop
endfacet
facet normal -0.0 1.0 0.0
  outer loop
    vertex 1.5 56.0 3.0
    vertex 9.999999999999996 56.0 0.0
    vertex 1.5 56.0 0.0
  endloop
endfacet
facet normal -0.0 1.0 0.0
  outer loop
    vertex 9.999999999999996 56.0 0.0
    vertex 1.5 56.0 3.0
    vertex 9.999999999999996 56.0 3.0
  endloop
endfacet
facet normal 0.9999999999999999 3.181616111758274e-16 0.0
  outer loop
    vertex 9.999999999999996 56.0 0.0
    vertex 9.999999999999998 47.13668530868269 3.0
    vertex 9.999999999999998 47.13668530868269 0.0
  endloop
endfacet
facet normal 0.9999999999999999 3.181616111758274e-16 0.0
  outer loop
    vertex 9.999999999999998 47.13668530868269 3.0
    vertex 9.999999999999996 56.0 0.0
    vertex 9.999999999999996 56.0 3.0
  endloop
endfacet
facet normal -0.0 -0.9999999999999999 -0.0
  outer loop
    vertex 9.999999999999998 47.13668530868269 3.0
    vertex 0.0 47.13668530868269 0.0
    vertex 9.999999999999998 47.13668530868269 0.0
  endloop
endfacet
facet normal -0.0 -0.9999999999999999 -0.0
  outer loop
    vertex 0.0 47.13668530868269 0.0
    vertex 9.999999999999998 47.13668530868269 3.0
    vertex 0.0 47.13668530868269 3.0
  endloop
endfacet
facet normal -1.0 0.0 0.0
  outer loop
    vertex 0.0 54.5 3.0
    vertex 0.0 47.13668530868269 0.0
    vertex 0.0 47.13668530868269 3.0
  endloop
endfacet
facet normal -1.0 0.0 0.0
  outer loop
    vertex 0.0 47.13668530868269 0.0
    vertex 0.0 54.5 3.0
    vertex 0.0 54.5 0.0
  endloop
endfacet
facet normal -0.9914448613738102 0.13052619222005304 0.0
  outer loop
    vertex 0.0511112605663978 54.88822856765378 3.0
    vertex 0.0 54.5 0.0
    vertex 0.0 54.5 3.0
  endloop
endfacet
facet normal -0.9914448613738102 0.13052619222005304 0.0
  outer loop
    vertex 0.0 54.5 0.0
    vertex 0.0511112605663978 54.88822856765378 3.0
    vertex 0.0511112605663978 54.88822856765378 0.0
  endloop
endfacet
facet normal -0.9469301294951067 0.32143946530315876 0.0
  outer loop
    vertex 0.11418070123306998 55.07402514854763 3.0
    vertex 0.0511112605663978 54.88822856765378 0.0
    vertex 0.0511112605663978 54.88822856765378 3.0
  endloop
endfacet
facet normal -0.9469301294951067 0.32143946530315876 0.0
  outer loop
    vertex 0.0511112605663978 54.88822856765378 0.0
    vertex 0.11418070123306998 55.07402514854763 3.0
    vertex 0.11418070123306998 55.07402514854763 0.0
  endloop
endfacet
facet normal -0.896872741532688 0.44228869021900197 0.0
  outer loop
    vertex 0.2009618943233422 55.25 3.0
    vertex 0.11418070123306998 55.07402514854763 0.0
    vertex 0.11418070123306998 55.07402514854763 3.0
  endloop
endfacet
facet normal -0.896872741532688 0.44228869021900197 0.0
  outer loop
    vertex 0.11418070123306998 55.07402514854763 0.0
    vertex 0.2009618943233422 55.25 3.0
    vertex 0.2009618943233422 55.25 0.0
  endloop
endfacet
facet normal -0.83146961230254 0.5555702330196101 0.0
  outer loop
    vertex 0.3099699895631474 55.41314214351308 3.0
    vertex 0.2009618943233422 55.25 0.0
    vertex 0.2009618943233422 55.25 3.0
  endloop
endfacet
facet normal -0.83146961230254 0.5555702330196101 0.0
  outer loop
    vertex 0.2009618943233422 55.25 0.0
    vertex 0.3099699895631474 55.41314214351308 3.0
    vertex 0.3099699895631474 55.41314214351308 0.0
  endloop
endfacet
facet normal -0.751839807478994 0.6593458151000501 0.0
  outer loop
    vertex 0.4393398282201788 55.56066017177982 3.0
    vertex 0.3099699895631474 55.41314214351308 0.0
    vertex 0.3099699895631474 55.41314214351308 3.0
  endloop
endfacet
facet normal -0.751839807478994 0.6593458151000501 0.0
  outer loop
    vertex 0.3099699895631474 55.41314214351308 0.0
    vertex 0.4393398282201788 55.56066017177982 3.0
    vertex 0.4393398282201788 55.56066017177982 0.0
  endloop
endfacet
facet normal -0.6593458151000723 0.7518398074789744 0.0
  outer loop
    vertex 0.4393398282201788 55.56066017177982 3.0
    vertex 0.5868578564869192 55.69003001043686 0.0
    vertex 0.4393398282201788 55.56066017177982 0.0
  endloop
endfacet
facet normal -0.6593458151000723 0.7518398074789744 0.0
  outer loop
    vertex 0.5868578564869192 55.69003001043686 0.0
    vertex 0.4393398282201788 55.56066017177982 3.0
    vertex 0.5868578564869192 55.69003001043686 3.0
  endloop
endfacet
facet normal -0.5555702330196014 0.8314696123025458 0.0
  outer loop
    vertex 0.5868578564869192 55.69003001043686 3.0
    vertex 0.75 55.799038105676665 0.0
    vertex 0.5868578564869192 55.69003001043686 0.0
  endloop
endfacet
facet normal -0.5555702330196014 0.8314696123025458 0.0
  outer loop
    vertex 0.75 55.799038105676665 0.0
    vertex 0.5868578564869192 55.69003001043686 3.0
    vertex 0.75 55.799038105676665 3.0
  endloop
endfacet
facet normal -0.44228869021898354 0.896872741532697 0.0
  outer loop
    vertex 0.75 55.799038105676665 3.0
    vertex 0.9259748514523654 55.88581929876693 0.0
    vertex 0.75 55.799038105676665 0.0
  endloop
endfacet
facet normal -0.44228869021898354 0.896872741532697 0.0
  outer loop
    vertex 0.9259748514523654 55.88581929876693 0.0
    vertex 0.75 55.799038105676665 3.0
    vertex 0.9259748514523654 55.88581929876693 3.0
  endloop
endfacet
facet normal -0.3214394653031655 0.9469301294951044 0.0
  outer loop
    vertex 0.9259748514523654 55.88581929876693 3.0
    vertex 1.1117714323462187 55.948888739433606 0.0
    vertex 0.9259748514523654 55.88581929876693 0.0
  endloop
endfacet
facet normal -0.3214394653031655 0.9469301294951044 0.0
  outer loop
    vertex 1.1117714323462187 55.948888739433606 0.0
    vertex 0.9259748514523654 55.88581929876693 3.0
    vertex 1.1117714323462187 55.948888739433606 3.0
  endloop
endfacet
facet normal -0.1305261922200446 0.9914448613738114 0.0
  outer loop
    vertex 1.1117714323462187 55.948888739433606 3.0
    vertex 1.5 56.0 0.0
    vertex 1.1117714323462187 55.948888739433606 0.0
  endloop
endfacet
facet normal -0.1305261922200446 0.9914448613738114 0.0
  outer loop
    vertex 1.5 56.0 0.0
    vertex 1.1117714323462187 55.948888739433606 3.0
    vertex 1.5 56.0 3.0
  endloop
endfacet
facet normal -1.0 0.0 0.0
  outer loop
    vertex 4.999999999999999 52.49999999999999 3.0
    vertex 4.948888739433602 52.11177143234622 0.0
    vertex 4.948888739433602 52.11177143234622 3.0
  endloop
endfacet
facet normal -0.965925826289068 0.2588190451025214 0.0
  outer loop
    vertex 4.948888739433602 52.11177143234622 0.0
    vertex 4.999999999999999 52.49999999999999 3.0
    vertex 4.999999999999999 52.49999999999999 0.0
  endloop
endfacet
facet normal -0.9659258262890683 -0.25881904510252063 0.0
  outer loop
    vertex 4.948888739433602 52.88822856765377 3.0
    vertex 4.999999999999999 52.49999999999999 0.0
    vertex 4.999999999999999 52.49999999999999 3.0
  endloop
endfacet
facet normal -1.0 0.0 0.0
  outer loop
    vertex 4.999999999999999 52.49999999999999 0.0
    vertex 4.948888739433602 52.88822856765377 3.0
    vertex 4.948888739433602 52.88822856765377 0.0
  endloop
endfacet
facet normal -0.8660254037844405 -0.499999999999997 0.0
  outer loop
    vertex 4.799038105676657 53.24999999999999 3.0
    vertex 4.948888739433602 52.88822856765377 0.0
    vertex 4.948888739433602 52.88822856765377 3.0
  endloop
endfacet
facet normal -0.9659258262890683 -0.25881904510252063 0.0
  outer loop
    vertex 4.948888739433602 52.88822856765377 0.0
    vertex 4.799038105676657 53.24999999999999 3.0
    vertex 4.799038105676657 53.24999999999999 0.0
  endloop
endfacet
facet normal -0.7071067811865505 -0.7071067811865448 0.0
  outer loop
    vertex 4.56066017177982 53.560660171779816 3.0
    vertex 4.799038105676657 53.24999999999999 0.0
    vertex 4.799038105676657 53.24999999999999 3.0
  endloop
endfacet
facet normal -0.8660254037844405 -0.499999999999997 0.0
  outer loop
    vertex 4.799038105676657 53.24999999999999 0.0
    vertex 4.56066017177982 53.560660171779816 3.0
    vertex 4.56066017177982 53.560660171779816 0.0
  endloop
endfacet
facet normal -0.7071067811865505 -0.7071067811865448 0.0
  outer loop
    vertex 4.56066017177982 53.560660171779816 3.0
    vertex 4.249999999999999 53.79903810567666 0.0
    vertex 4.56066017177982 53.560660171779816 0.0
  endloop
endfacet
facet normal -0.49999999999999745 -0.86602540378444 0.0
  outer loop
    vertex 4.249999999999999 53.79903810567666 0.0
    vertex 4.56066017177982 53.560660171779816 3.0
    vertex 4.249999999999999 53.79903810567666 3.0
  endloop
endfacet
facet normal -0.49999999999999745 -0.86602540378444 0.0
  outer loop
    vertex 4.249999999999999 53.79903810567666 3.0
    vertex 3.8882285676537807 53.9488887394336 0.0
    vertex 4.249999999999999 53.79903810567666 0.0
  endloop
endfacet
facet normal -0.25881904510251336 -0.9659258262890703 0.0
  outer loop
    vertex 3.8882285676537807 53.9488887394336 0.0
    vertex 4.249999999999999 53.79903810567666 3.0
    vertex 3.8882285676537807 53.9488887394336 3.0
  endloop
endfacet
facet normal -0.25881904510251336 -0.9659258262890703 0.0
  outer loop
    vertex 3.8882285676537807 53.9488887394336 3.0
    vertex 3.499999999999999 53.99999999999999 0.0
    vertex 3.8882285676537807 53.9488887394336 0.0
  endloop
endfacet
facet normal 6.237776926952827e-17 -1.0 0.0
  outer loop
    vertex 3.499999999999999 53.99999999999999 0.0
    vertex 3.8882285676537807 53.9488887394336 3.0
    vertex 3.499999999999999 53.99999999999999 3.0
  endloop
endfacet
facet normal 6.237776926952827e-17 -1.0 0.0
  outer loop
    vertex 3.499999999999999 53.99999999999999 3.0
    vertex 3.1117714323462184 53.9488887394336 0.0
    vertex 3.499999999999999 53.99999999999999 0.0
  endloop
endfacet
facet normal 0.2588190451025134 -0.9659258262890703 0.0
  outer loop
    vertex 3.1117714323462184 53.9488887394336 0.0
    vertex 3.499999999999999 53.99999999999999 3.0
    vertex 3.1117714323462184 53.9488887394336 3.0
  endloop
endfacet
facet normal 0.2588190451025134 -0.9659258262890703 0.0
  outer loop
    vertex 3.1117714323462184 53.9488887394336 3.0
    vertex 2.7499999999999996 53.79903810567666 0.0
    vertex 3.1117714323462184 53.9488887394336 0.0
  endloop
endfacet
facet normal 0.49999999999999706 -0.8660254037844403 0.0
  outer loop
    vertex 2.7499999999999996 53.79903810567666 0.0
    vertex 3.1117714323462184 53.9488887394336 3.0
    vertex 2.7499999999999996 53.79903810567666 3.0
  endloop
endfacet
facet normal 0.49999999999999706 -0.8660254037844403 0.0
  outer loop
    vertex 2.7499999999999996 53.79903810567666 3.0
    vertex 2.439339828220178 53.560660171779816 0.0
    vertex 2.7499999999999996 53.79903810567666 0.0
  endloop
endfacet
facet normal 0.7071067811865505 -0.7071067811865447 0.0
  outer loop
    vertex 2.439339828220178 53.560660171779816 0.0
    vertex 2.7499999999999996 53.79903810567666 3.0
    vertex 2.439339828220178 53.560660171779816 3.0
  endloop
endfacet
facet normal 0.7071067811865505 -0.7071067811865447 0.0
  outer loop
    vertex 2.439339828220178 53.560660171779816 0.0
    vertex 2.2009618943233416 53.24999999999999 3.0
    vertex 2.2009618943233416 53.24999999999999 0.0
  endloop
endfacet
facet normal 0.8660254037844404 -0.49999999999999684 0.0
  outer loop
    vertex 2.2009618943233416 53.24999999999999 3.0
    vertex 2.439339828220178 53.560660171779816 0.0
    vertex 2.439339828220178 53.560660171779816 3.0
  endloop
endfacet
facet normal 0.8660254037844404 -0.49999999999999684 0.0
  outer loop
    vertex 2.2009618943233416 53.24999999999999 0.0
    vertex 2.0511112605663966 52.88822856765377 3.0
    vertex 2.0511112605663966 52.88822856765377 0.0
  endloop
endfacet
facet normal 0.9659258262890682 -0.25881904510252096 0.0
  outer loop
    vertex 2.0511112605663966 52.88822856765377 3.0
    vertex 2.2009618943233416 53.24999999999999 0.0
    vertex 2.2009618943233416 53.24999999999999 3.0
  endloop
endfacet
facet normal 0.9659258262890682 -0.25881904510252096 0.0
  outer loop
    vertex 2.0511112605663966 52.88822856765377 0.0
    vertex 1.9999999999999991 52.49999999999999 3.0
    vertex 1.9999999999999991 52.49999999999999 0.0
  endloop
endfacet
facet normal 1.0 0.0 0.0
  outer loop
    vertex 1.9999999999999991 52.49999999999999 3.0
    vertex 2.0511112605663966 52.88822856765377 0.0
    vertex 2.0511112605663966 52.88822856765377 3.0
  endloop
endfacet
facet normal 1.0 0.0 0.0
  outer loop
    vertex 1.9999999999999991 52.49999999999999 0.0
    vertex 2.0511112605663966 52.11177143234622 3.0
    vertex 2.0511112605663966 52.11177143234622 0.0
  endloop
endfacet
facet normal 0.9659258262890683 0.25881904510252063 0.0
  outer loop
    vertex 2.0511112605663966 52.11177143234622 3.0
    vertex 1.9999999999999991 52.49999999999999 0.0
    vertex 1.9999999999999991 52.49999999999999 3.0
  endloop
endfacet
facet normal 0.9659258262890683 0.25881904510252063 0.0
  outer loop
    vertex 2.0511112605663966 52.11177143234622 0.0
    vertex 2.200961894323341 51.74999999999999 3.0
    vertex 2.200961894323341 51.74999999999999 0.0
  endloop
endfacet
facet normal 0.8660254037844407 0.4999999999999962 0.0
  outer loop
    vertex 2.200961894323341 51.74999999999999 3.0
    vertex 2.0511112605663966 52.11177143234622 0.0
    vertex 2.0511112605663966 52.11177143234622 3.0
  endloop
endfacet
facet normal 0.8660254037844407 0.4999999999999962 0.0
  outer loop
    vertex 2.200961894323341 51.74999999999999 0.0
    vertex 2.4393398282201773 51.43933982822017 3.0
    vertex 2.4393398282201773 51.43933982822017 0.0
  endloop
endfacet
facet normal 0.7071067811865509 0.7071067811865441 0.0
  outer loop
    vertex 2.4393398282201773 51.43933982822017 3.0
    vertex 2.200961894323341 51.74999999999999 0.0
    vertex 2.200961894323341 51.74999999999999 3.0
  endloop
endfacet
facet normal 0.7071067811865509 0.7071067811865441 0.0
  outer loop
    vertex 2.4393398282201773 51.43933982822017 3.0
    vertex 2.7499999999999987 51.200961894323335 0.0
    vertex 2.4393398282201773 51.43933982822017 0.0
  endloop
endfacet
facet normal 0.49999999999999745 0.86602540378444 0.0
  outer loop
    vertex 2.7499999999999987 51.200961894323335 0.0
    vertex 2.4393398282201773 51.43933982822017 3.0
    vertex 2.7499999999999987 51.200961894323335 3.0
  endloop
endfacet
facet normal 0.49999999999999745 0.86602540378444 0.0
  outer loop
    vertex 2.7499999999999987 51.200961894323335 3.0
    vertex 3.111771432346217 51.051111260566394 0.0
    vertex 2.7499999999999987 51.200961894323335 0.0
  endloop
endfacet
facet normal 0.2588190451025132 0.9659258262890703 0.0
  outer loop
    vertex 3.111771432346217 51.051111260566394 0.0
    vertex 2.7499999999999987 51.200961894323335 3.0
    vertex 3.111771432346217 51.051111260566394 3.0
  endloop
endfacet
facet normal 0.2588190451025132 0.9659258262890703 0.0
  outer loop
    vertex 3.111771432346217 51.051111260566394 3.0
    vertex 3.499999999999999 51.0 0.0
    vertex 3.111771432346217 51.051111260566394 0.0
  endloop
endfacet
facet normal -2.4059996718246614e-16 1.0 0.0
  outer loop
    vertex 3.499999999999999 51.0 0.0
    vertex 3.111771432346217 51.051111260566394 3.0
    vertex 3.499999999999999 51.0 3.0
  endloop
endfacet
facet normal -2.4059996718246614e-16 1.0 0.0
  outer loop
    vertex 3.499999999999999 51.0 3.0
    vertex 3.8882285676537798 51.051111260566394 0.0
    vertex 3.499999999999999 51.0 0.0
  endloop
endfacet
facet normal -0.25881904510251375 0.9659258262890701 0.0
  outer loop
    vertex 3.8882285676537798 51.051111260566394 0.0
    vertex 3.499999999999999 51.0 3.0
    vertex 3.8882285676537798 51.051111260566394 3.0
  endloop
endfacet
facet normal -0.25881904510251375 0.9659258262890701 0.0
  outer loop
    vertex 3.8882285676537798 51.051111260566394 3.0
    vertex 4.249999999999998 51.200961894323335 0.0
    vertex 3.8882285676537798 51.051111260566394 0.0
  endloop
endfacet
facet normal -0.4999999999999967 0.8660254037844405 0.0
  outer loop
    vertex 4.249999999999998 51.200961894323335 0.0
    vertex 3.8882285676537798 51.051111260566394 3.0
    vertex 4.249999999999998 51.200961894323335 3.0
  endloop
endfacet
facet normal -0.4999999999999967 0.8660254037844405 0.0
  outer loop
    vertex 4.249999999999998 51.200961894323335 3.0
    vertex 4.56066017177982 51.43933982822017 0.0
    vertex 4.249999999999998 51.200961894323335 0.0
  endloop
endfacet
facet normal -0.70710678118655 0.707106781186545 0.0
  outer loop
    vertex 4.56066017177982 51.43933982822017 0.0
    vertex 4.249999999999998 51.200961894323335 3.0
    vertex 4.56066017177982 51.43933982822017 3.0
  endloop
endfacet
facet normal -0.8660254037844404 0.499999999999997 0.0
  outer loop
    vertex 4.799038105676656 51.74999999999999 3.0
    vertex 4.56066017177982 51.43933982822017 0.0
    vertex 4.56066017177982 51.43933982822017 3.0
  endloop
endfacet
facet normal -0.70710678118655 0.707106781186545 0.0
  outer loop
    vertex 4.56066017177982 51.43933982822017 0.0
    vertex 4.799038105676656 51.74999999999999 3.0
    vertex 4.799038105676656 51.74999999999999 0.0
  endloop
endfacet
facet normal -0.965925826289068 0.2588190451025214 0.0
  outer loop
    vertex 4.948888739433602 52.11177143234622 3.0
    vertex 4.799038105676656 51.74999999999999 0.0
    vertex 4.799038105676656 51.74999999999999 3.0
  endloop
endfacet
facet normal -0.8660254037844404 0.499999999999997 0.0
  outer loop
    vertex 4.799038105676656 51.74999999999999 0.0
    vertex 4.948888739433602 52.11177143234622 3.0
    vertex 4.948888739433602 52.11177143234622 0.0
  endloop
endfacet
endsolid mount001
