solid speaker001
facet normal -0.0 -0.0 1.0
  outer loop
    vertex 84.10000000000001 -12.999999999999998 0.0
    vertex 4.999999999999998 -7.9999999999999964 0.0
    vertex 1.5 -12.999999999999998 0.0
  endloop
endfacet
facet normal -0.0 -0.0 1.0
  outer loop
    vertex 4.999999999999998 -7.9999999999999964 0.0
    vertex 84.10000000000001 -12.999999999999998 0.0
    vertex 37.59999999999998 -8.0 0.0
  endloop
endfacet
facet normal -0.0 -0.0 1.0
  outer loop
    vertex 37.59999999999998 -8.0 0.0
    vertex 84.10000000000001 -12.999999999999998 0.0
    vertex 42.59999999999999 8.000000000000002 0.0
  endloop
endfacet
facet normal -0.0 -0.0 1.0
  outer loop
    vertex 37.59999999999998 -8.0 0.0
    vertex 42.59999999999999 8.000000000000002 0.0
    vertex 37.59999999999998 63.99999999999999 0.0
  endloop
endfacet
facet normal -0.0 -0.0 1.0
  outer loop
    vertex 42.59999999999999 8.000000000000002 0.0
    vertex 84.10000000000001 -12.999999999999998 0.0
    vertex 73.6 8.000000000000002 0.0
  endloop
endfacet
facet normal -0.0 -0.0 1.0
  outer loop
    vertex 73.6 8.000000000000002 0.0
    vertex 84.10000000000001 -12.999999999999998 0.0
    vertex 84.09999999999997 69.0 0.0
  endloop
endfacet
facet normal -0.0 -0.0 1.0
  outer loop
    vertex 84.09999999999997 69.0 0.0
    vertex 84.10000000000001 -12.999999999999998 0.0
    vertex 84.48822856765375 68.9488887394336 0.0
  endloop
endfacet
facet normal -0.0 -0.0 1.0
  outer loop
    vertex 84.48822856765375 68.9488887394336 0.0
    vertex 84.10000000000001 -12.999999999999998 0.0
    vertex 84.48822856765378 -12.9488887394336 0.0
  endloop
endfacet
facet normal -0.0 -0.0 1.0
  outer loop
    vertex 84.48822856765375 68.9488887394336 0.0
    vertex 84.48822856765378 -12.9488887394336 0.0
    vertex 84.84999999999998 68.79903810567664 0.0
  endloop
endfacet
facet normal -0.0 -0.0 1.0
  outer loop
    vertex 84.84999999999998 68.79903810567664 0.0
    vertex 84.48822856765378 -12.9488887394336 0.0
    vertex 84.85 -12.799038105676658 0.0
  endloop
endfacet
facet normal -0.0 -0.0 1.0
  outer loop
    vertex 84.84999999999998 68.79903810567664 0.0
    vertex 84.85 -12.799038105676658 0.0
    vertex 85.1606601717798 68.56066017177983 0.0
  endloop
endfacet
facet normal -0.0 -0.0 1.0
  outer loop
    vertex 85.1606601717798 68.56066017177983 0.0
    vertex 84.85 -12.799038105676658 0.0
    vertex 85.16066017177982 -12.56066017177982 0.0
  endloop
endfacet
facet normal -0.0 -0.0 1.0
  outer loop
    vertex 85.1606601717798 68.56066017177983 0.0
    vertex 85.16066017177982 -12.56066017177982 0.0
    vertex 85.39903810567662 68.25 0.0
  endloop
endfacet
facet normal -0.0 -0.0 1.0
  outer loop
    vertex 85.39903810567662 68.25 0.0
    vertex 85.16066017177982 -12.56066017177982 0.0
    vertex 85.39903810567665 -12.249999999999996 0.0
  endloop
endfacet
facet normal -0.0 -0.0 1.0
  outer loop
    vertex 85.39903810567662 68.25 0.0
    vertex 85.39903810567665 -12.249999999999996 0.0
    vertex 85.54888873943358 67.88822856765378 0.0
  endloop
endfacet
facet normal -0.0 -0.0 1.0
  outer loop
    vertex 85.54888873943358 67.88822856765378 0.0
    vertex 85.39903810567665 -12.249999999999996 0.0
    vertex 85.54888873943361 -11.88822856765378 0.0
  endloop
endfacet
facet normal -0.0 -0.0 1.0
  outer loop
    vertex 85.54888873943358 67.88822856765378 0.0
    vertex 85.54888873943361 -11.88822856765378 0.0
    vertex 85.59999999999997 67.5 0.0
  endloop
endfacet
facet normal -0.0 -0.0 1.0
  outer loop
    vertex 85.59999999999997 67.5 0.0
    vertex 85.54888873943361 -11.88822856765378 0.0
    vertex 85.6 -11.499999999999998 0.0
  endloop
endfacet
facet normal -0.0 -0.0 1.0
  outer loop
    vertex 0.051111260566397455 -11.88822856765378 0.0
    vertex 0.0 67.5 0.0
    vertex 0.0 -11.499999999999998 0.0
  endloop
endfacet
facet normal -0.0 -0.0 1.0
  outer loop
    vertex 0.0 67.5 0.0
    vertex 0.051111260566397455 -11.88822856765378 0.0
    vertex 0.0511112605663978 67.88822856765378 0.0
  endloop
endfacet
facet normal -0.0 -0.0 1.0
  outer loop
    vertex 0.0511112605663978 67.88822856765378 0.0
    vertex 0.051111260566397455 -11.88822856765378 0.0
    vertex 0.20096189432334202 -12.249999999999996 0.0
  endloop
endfacet
facet normal -0.0 -0.0 1.0
  outer loop
    vertex 0.0511112605663978 67.88822856765378 0.0
    vertex 0.20096189432334202 -12.249999999999996 0.0
    vertex 0.2009618943233422 68.25 0.0
  endloop
endfacet
facet normal -0.0 -0.0 1.0
  outer loop
    vertex 0.2009618943233422 68.25 0.0
    vertex 0.20096189432334202 -12.249999999999996 0.0
    vertex 0.439339828220179 -12.56066017177982 0.0
  endloop
endfacet
facet normal -0.0 -0.0 1.0
  outer loop
    vertex 0.2009618943233422 68.25 0.0
    vertex 0.439339828220179 -12.56066017177982 0.0
    vertex 0.4393398282201788 68.56066017177983 0.0
  endloop
endfacet
facet normal -0.0 -0.0 1.0
  outer loop
    vertex 0.4393398282201788 68.56066017177983 0.0
    vertex 0.439339828220179 -12.56066017177982 0.0
    vertex 0.75 68.79903810567666 0.0
  endloop
endfacet
facet normal -0.0 -0.0 1.0
  outer loop
    vertex 0.75 68.79903810567666 0.0
    vertex 0.439339828220179 -12.56066017177982 0.0
    vertex 0.75 -12.799038105676658 0.0
  endloop
endfacet
facet normal -0.0 -0.0 1.0
  outer loop
    vertex 0.75 68.79903810567666 0.0
    vertex 0.75 -12.799038105676658 0.0
    vertex 1.1117714323462187 -12.9488887394336 0.0
  endloop
endfacet
facet normal -0.0 -0.0 1.0
  outer loop
    vertex 0.75 68.79903810567666 0.0
    vertex 1.1117714323462187 -12.9488887394336 0.0
    vertex 1.1117714323462187 68.9488887394336 0.0
  endloop
endfacet
facet normal -0.0 -0.0 1.0
  outer loop
    vertex 1.1117714323462187 68.9488887394336 0.0
    vertex 1.1117714323462187 -12.9488887394336 0.0
    vertex 1.5 69.0 0.0
  endloop
endfacet
facet normal -0.0 -0.0 1.0
  outer loop
    vertex 1.5 69.0 0.0
    vertex 1.1117714323462187 -12.9488887394336 0.0
    vertex 1.5 -12.999999999999998 0.0
  endloop
endfacet
facet normal -0.0 -0.0 1.0
  outer loop
    vertex 1.5 69.0 0.0
    vertex 1.5 -12.999999999999998 0.0
    vertex 4.999999999999998 63.99999999999999 0.0
  endloop
endfacet
facet normal -0.0 -0.0 1.0
  outer loop
    vertex 1.5 69.0 0.0
    vertex 4.999999999999998 63.99999999999999 0.0
    vertex 84.09999999999997 69.0 0.0
  endloop
endfacet
facet normal -0.0 -0.0 1.0
  outer loop
    vertex 4.999999999999998 63.99999999999999 0.0
    vertex 1.5 -12.999999999999998 0.0
    vertex 4.999999999999998 -7.9999999999999964 0.0
  endloop
endfacet
facet normal -0.0 -0.0 1.0
  outer loop
    vertex 84.09999999999997 69.0 0.0
    vertex 4.999999999999998 63.99999999999999 0.0
    vertex 37.59999999999998 63.99999999999999 0.0
  endloop
endfacet
facet normal -0.0 -0.0 1.0
  outer loop
    vertex 84.09999999999997 69.0 0.0
    vertex 37.59999999999998 63.99999999999999 0.0
    vertex 42.59999999999999 48.0 0.0
  endloop
endfacet
facet normal -0.0 -0.0 1.0
  outer loop
    vertex 42.59999999999999 48.0 0.0
    vertex 37.59999999999998 63.99999999999999 0.0
    vertex 42.59999999999999 8.000000000000002 0.0
  endloop
endfacet
facet normal -0.0 -0.0 1.0
  outer loop
    vertex 84.09999999999997 69.0 0.0
    vertex 42.59999999999999 48.0 0.0
    vertex 73.59999999999998 48.0 0.0
  endloop
endfacet
facet normal -0.0 -0.0 1.0
  outer loop
    vertex 84.09999999999997 69.0 0.0
    vertex 73.59999999999998 48.0 0.0
    vertex 73.6 8.000000000000002 0.0
  endloop
endfacet
facet normal -0.0 -0.0 -1.0
  outer loop
    vertex 0.0511112605663978 67.88822856765378 -3.175
    vertex 0.0 -11.499999999999998 -3.175
    vertex 0.0 67.5 -3.175
  endloop
endfacet
facet normal -0.0 -0.0 -1.0
  outer loop
    vertex 0.0 -11.499999999999998 -3.175
    vertex 0.0511112605663978 67.88822856765378 -3.175
    vertex 0.051111260566397455 -11.88822856765378 -3.175
  endloop
endfacet
facet normal -0.0 -0.0 -1.0
  outer loop
    vertex 0.051111260566397455 -11.88822856765378 -3.175
    vertex 0.0511112605663978 67.88822856765378 -3.175
    vertex 0.20096189432334202 -12.249999999999996 -3.175
  endloop
endfacet
facet normal -0.0 -0.0 -1.0
  outer loop
    vertex 0.20096189432334202 -12.249999999999996 -3.175
    vertex 0.0511112605663978 67.88822856765378 -3.175
    vertex 0.2009618943233422 68.25 -3.175
  endloop
endfacet
facet normal -0.0 -0.0 -1.0
  outer loop
    vertex 0.20096189432334202 -12.249999999999996 -3.175
    vertex 0.2009618943233422 68.25 -3.175
    vertex 0.439339828220179 -12.56066017177982 -3.175
  endloop
endfacet
facet normal -0.0 -0.0 -1.0
  outer loop
    vertex 0.439339828220179 -12.56066017177982 -3.175
    vertex 0.2009618943233422 68.25 -3.175
    vertex 0.4393398282201788 68.56066017177983 -3.175
  endloop
endfacet
facet normal -0.0 -0.0 -1.0
  outer loop
    vertex 0.439339828220179 -12.56066017177982 -3.175
    vertex 0.4393398282201788 68.56066017177983 -3.175
    vertex 0.75 68.79903810567666 -3.175
  endloop
endfacet
facet normal -0.0 -0.0 -1.0
  outer loop
    vertex 0.439339828220179 -12.56066017177982 -3.175
    vertex 0.75 68.79903810567666 -3.175
    vertex 0.75 -12.799038105676658 -3.175
  endloop
endfacet
facet normal -0.0 -0.0 -1.0
  outer loop
    vertex 0.75 -12.799038105676658 -3.175
    vertex 0.75 68.79903810567666 -3.175
    vertex 1.1117714323462187 68.9488887394336 -3.175
  endloop
endfacet
facet normal -0.0 -0.0 -1.0
  outer loop
    vertex 0.75 -12.799038105676658 -3.175
    vertex 1.1117714323462187 68.9488887394336 -3.175
    vertex 1.1117714323462187 -12.9488887394336 -3.175
  endloop
endfacet
facet normal -0.0 -0.0 -1.0
  outer loop
    vertex 1.1117714323462187 -12.9488887394336 -3.175
    vertex 1.1117714323462187 68.9488887394336 -3.175
    vertex 1.5 69.0 -3.175
  endloop
endfacet
facet normal -0.0 -0.0 -1.0
  outer loop
    vertex 1.1117714323462187 -12.9488887394336 -3.175
    vertex 1.5 69.0 -3.175
    vertex 1.5 -12.999999999999998 -3.175
  endloop
endfacet
facet normal -0.0 -0.0 -1.0
  outer loop
    vertex 1.5 -12.999999999999998 -3.175
    vertex 1.5 69.0 -3.175
    vertex 4.999999999999998 63.99999999999999 -3.175
  endloop
endfacet
facet normal -0.0 -0.0 -1.0
  outer loop
    vertex 4.999999999999998 63.99999999999999 -3.175
    vertex 1.5 69.0 -3.175
    vertex 84.09999999999997 69.0 -3.175
  endloop
endfacet
facet normal -0.0 -0.0 -1.0
  outer loop
    vertex 4.999999999999998 63.99999999999999 -3.175
    vertex 84.09999999999997 69.0 -3.175
    vertex 37.59999999999998 63.99999999999999 -3.175
  endloop
endfacet
facet normal -0.0 -0.0 -1.0
  outer loop
    vertex 37.59999999999998 63.99999999999999 -3.175
    vertex 84.09999999999997 69.0 -3.175
    vertex 42.59999999999999 48.0 -3.175
  endloop
endfacet
facet normal -0.0 -0.0 -1.0
  outer loop
    vertex 37.59999999999998 63.99999999999999 -3.175
    vertex 42.59999999999999 48.0 -3.175
    vertex 37.59999999999998 -8.0 -3.175
  endloop
endfacet
facet normal -0.0 -0.0 -1.0
  outer loop
    vertex 42.59999999999999 48.0 -3.175
    vertex 84.09999999999997 69.0 -3.175
    vertex 73.59999999999998 48.0 -3.175
  endloop
endfacet
facet normal -0.0 -0.0 -1.0
  outer loop
    vertex 73.59999999999998 48.0 -3.175
    vertex 84.09999999999997 69.0 -3.175
    vertex 73.6 8.000000000000002 -3.175
  endloop
endfacet
facet normal -0.0 -0.0 -1.0
  outer loop
    vertex 1.5 -12.999999999999998 -3.175
    vertex 4.999999999999998 -7.9999999999999964 -3.175
    vertex 84.10000000000001 -12.999999999999998 -3.175
  endloop
endfacet
facet normal -0.0 -0.0 -1.0
  outer loop
    vertex 4.999999999999998 -7.9999999999999964 -3.175
    vertex 1.5 -12.999999999999998 -3.175
    vertex 4.999999999999998 63.99999999999999 -3.175
  endloop
endfacet
facet normal -0.0 -0.0 -1.0
  outer loop
    vertex 84.10000000000001 -12.999999999999998 -3.175
    vertex 4.999999999999998 -7.9999999999999964 -3.175
    vertex 37.59999999999998 -8.0 -3.175
  endloop
endfacet
facet normal -0.0 -0.0 -1.0
  outer loop
    vertex 84.10000000000001 -12.999999999999998 -3.175
    vertex 37.59999999999998 -8.0 -3.175
    vertex 42.59999999999999 8.000000000000002 -3.175
  endloop
endfacet
facet normal -0.0 -0.0 -1.0
  outer loop
    vertex 42.59999999999999 8.000000000000002 -3.175
    vertex 37.59999999999998 -8.0 -3.175
    vertex 42.59999999999999 48.0 -3.175
  endloop
endfacet
facet normal -0.0 -0.0 -1.0
  outer loop
    vertex 84.10000000000001 -12.999999999999998 -3.175
    vertex 42.59999999999999 8.000000000000002 -3.175
    vertex 73.6 8.000000000000002 -3.175
  endloop
endfacet
facet normal -0.0 -0.0 -1.0
  outer loop
    vertex 84.10000000000001 -12.999999999999998 -3.175
    vertex 73.6 8.000000000000002 -3.175
    vertex 84.09999999999997 69.0 -3.175
  endloop
endfacet
facet normal -0.0 -0.0 -1.0
  outer loop
    vertex 84.10000000000001 -12.999999999999998 -3.175
    vertex 84.09999999999997 69.0 -3.175
    vertex 84.48822856765375 68.9488887394336 -3.175
  endloop
endfacet
facet normal -0.0 -0.0 -1.0
  outer loop
    vertex 84.10000000000001 -12.999999999999998 -3.175
    vertex 84.48822856765375 68.9488887394336 -3.175
    vertex 84.48822856765378 -12.9488887394336 -3.175
  endloop
endfacet
facet normal -0.0 -0.0 -1.0
  outer loop
    vertex 84.48822856765378 -12.9488887394336 -3.175
    vertex 84.48822856765375 68.9488887394336 -3.175
    vertex 84.84999999999998 68.79903810567664 -3.175
  endloop
endfacet
facet normal -0.0 -0.0 -1.0
  outer loop
    vertex 84.48822856765378 -12.9488887394336 -3.175
    vertex 84.84999999999998 68.79903810567664 -3.175
    vertex 84.85 -12.799038105676658 -3.175
  endloop
endfacet
facet normal -0.0 -0.0 -1.0
  outer loop
    vertex 84.85 -12.799038105676658 -3.175
    vertex 84.84999999999998 68.79903810567664 -3.175
    vertex 85.1606601717798 68.56066017177983 -3.175
  endloop
endfacet
facet normal -0.0 -0.0 -1.0
  outer loop
    vertex 84.85 -12.799038105676658 -3.175
    vertex 85.1606601717798 68.56066017177983 -3.175
    vertex 85.16066017177982 -12.56066017177982 -3.175
  endloop
endfacet
facet normal -0.0 -0.0 -1.0
  outer loop
    vertex 85.16066017177982 -12.56066017177982 -3.175
    vertex 85.1606601717798 68.56066017177983 -3.175
    vertex 85.39903810567662 68.25 -3.175
  endloop
endfacet
facet normal -0.0 -0.0 -1.0
  outer loop
    vertex 85.16066017177982 -12.56066017177982 -3.175
    vertex 85.39903810567662 68.25 -3.175
    vertex 85.39903810567665 -12.249999999999996 -3.175
  endloop
endfacet
facet normal -0.0 -0.0 -1.0
  outer loop
    vertex 85.39903810567665 -12.249999999999996 -3.175
    vertex 85.39903810567662 68.25 -3.175
    vertex 85.54888873943358 67.88822856765378 -3.175
  endloop
endfacet
facet normal -0.0 -0.0 -1.0
  outer loop
    vertex 85.39903810567665 -12.249999999999996 -3.175
    vertex 85.54888873943358 67.88822856765378 -3.175
    vertex 85.54888873943361 -11.88822856765378 -3.175
  endloop
endfacet
facet normal -0.0 -0.0 -1.0
  outer loop
    vertex 85.54888873943361 -11.88822856765378 -3.175
    vertex 85.54888873943358 67.88822856765378 -3.175
    vertex 85.59999999999997 67.5 -3.175
  endloop
endfacet
facet normal -0.0 -0.0 -1.0
  outer loop
    vertex 85.54888873943361 -11.88822856765378 -3.175
    vertex 85.59999999999997 67.5 -3.175
    vertex 85.6 -11.499999999999998 -3.175
  endloop
endfacet
facet normal 0.0 1.0 0.0
  outer loop
    vertex 1.5 69.0 0.0
    vertex 84.09999999999997 69.0 -3.175
    vertex 1.5 69.0 -3.175
  endloop
endfacet
facet normal 0.0 1.0 0.0
  outer loop
    vertex 84.09999999999997 69.0 -3.175
    vertex 1.5 69.0 0.0
    vertex 84.09999999999997 69.0 0.0
  endloop
endfacet
facet normal -0.1305261922200446 0.9914448613738114 0.0
  outer loop
    vertex 1.1117714323462187 68.9488887394336 0.0
    vertex 1.5 69.0 -3.175
    vertex 1.1117714323462187 68.9488887394336 -3.175
  endloop
endfacet
facet normal -0.1305261922200446 0.9914448613738114 0.0
  outer loop
    vertex 1.5 69.0 -3.175
    vertex 1.1117714323462187 68.9488887394336 0.0
    vertex 1.5 69.0 0.0
  endloop
endfacet
facet normal -0.3826834323650823 0.92387953251129 0.0
  outer loop
    vertex 0.75 68.79903810567666 0.0
    vertex 1.1117714323462187 68.9488887394336 -3.175
    vertex 0.75 68.79903810567666 -3.175
  endloop
endfacet
facet normal -0.3826834323650823 0.92387953251129 0.0
  outer loop
    vertex 1.1117714323462187 68.9488887394336 -3.175
    vertex 0.75 68.79903810567666 0.0
    vertex 1.1117714323462187 68.9488887394336 0.0
  endloop
endfacet
facet normal -0.6087614290087223 0.793353340291234 0.0
  outer loop
    vertex 0.4393398282201788 68.56066017177983 0.0
    vertex 0.75 68.79903810567666 -3.175
    vertex 0.4393398282201788 68.56066017177983 -3.175
  endloop
endfacet
facet normal -0.6087614290087223 0.793353340291234 0.0
  outer loop
    vertex 0.75 68.79903810567666 -3.175
    vertex 0.4393398282201788 68.56066017177983 0.0
    vertex 0.75 68.79903810567666 0.0
  endloop
endfacet
facet normal -0.7933533402912392 0.6087614290087155 0.0
  outer loop
    vertex 0.4393398282201788 68.56066017177983 0.0
    vertex 0.2009618943233422 68.25 -3.175
    vertex 0.2009618943233422 68.25 0.0
  endloop
endfacet
facet normal -0.7933533402912392 0.6087614290087155 0.0
  outer loop
    vertex 0.2009618943233422 68.25 -3.175
    vertex 0.4393398282201788 68.56066017177983 0.0
    vertex 0.4393398282201788 68.56066017177983 -3.175
  endloop
endfacet
facet normal -0.9238795325112873 0.3826834323650885 0.0
  outer loop
    vertex 0.2009618943233422 68.25 0.0
    vertex 0.0511112605663978 67.88822856765378 -3.175
    vertex 0.0511112605663978 67.88822856765378 0.0
  endloop
endfacet
facet normal -0.9238795325112873 0.3826834323650885 0.0
  outer loop
    vertex 0.0511112605663978 67.88822856765378 -3.175
    vertex 0.2009618943233422 68.25 0.0
    vertex 0.2009618943233422 68.25 -3.175
  endloop
endfacet
facet normal -0.9914448613738102 0.13052619222005304 0.0
  outer loop
    vertex 0.0511112605663978 67.88822856765378 0.0
    vertex 0.0 67.5 -3.175
    vertex 0.0 67.5 0.0
  endloop
endfacet
facet normal -0.9914448613738102 0.13052619222005304 0.0
  outer loop
    vertex 0.0 67.5 -3.175
    vertex 0.0511112605663978 67.88822856765378 0.0
    vertex 0.0511112605663978 67.88822856765378 -3.175
  endloop
endfacet
facet normal -1.0 -0.0 -0.0
  outer loop
    vertex 0.0 67.5 0.0
    vertex 0.0 -11.499999999999998 -3.175
    vertex 0.0 -11.499999999999998 0.0
  endloop
endfacet
facet normal -1.0 -0.0 -0.0
  outer loop
    vertex 0.0 -11.499999999999998 -3.175
    vertex 0.0 67.5 0.0
    vertex 0.0 67.5 -3.175
  endloop
endfacet
facet normal -0.9914448613738105 -0.13052619222005124 -0.0
  outer loop
    vertex 0.0 -11.499999999999998 0.0
    vertex 0.051111260566397455 -11.88822856765378 -3.175
    vertex 0.051111260566397455 -11.88822856765378 0.0
  endloop
endfacet
facet normal -0.9914448613738105 -0.13052619222005124 -0.0
  outer loop
    vertex 0.051111260566397455 -11.88822856765378 -3.175
    vertex 0.0 -11.499999999999998 0.0
    vertex 0.0 -11.499999999999998 -3.175
  endloop
endfacet
facet normal -0.923879532511286 -0.3826834323650914 -0.0
  outer loop
    vertex 0.051111260566397455 -11.88822856765378 0.0
    vertex 0.20096189432334202 -12.249999999999996 -3.175
    vertex 0.20096189432334202 -12.249999999999996 0.0
  endloop
endfacet
facet normal -0.923879532511286 -0.3826834323650914 -0.0
  outer loop
    vertex 0.20096189432334202 -12.249999999999996 -3.175
    vertex 0.051111260566397455 -11.88822856765378 0.0
    vertex 0.051111260566397455 -11.88822856765378 -3.175
  endloop
endfacet
facet normal -0.7933533402912359 -0.6087614290087195 -0.0
  outer loop
    vertex 0.20096189432334202 -12.249999999999996 0.0
    vertex 0.439339828220179 -12.56066017177982 -3.175
    vertex 0.439339828220179 -12.56066017177982 0.0
  endloop
endfacet
facet normal -0.7933533402912359 -0.6087614290087195 -0.0
  outer loop
    vertex 0.439339828220179 -12.56066017177982 -3.175
    vertex 0.20096189432334202 -12.249999999999996 0.0
    vertex 0.20096189432334202 -12.249999999999996 -3.175
  endloop
endfacet
facet normal -0.6087614290087224 -0.7933533402912337 -0.0
  outer loop
    vertex 0.75 -12.799038105676658 0.0
    vertex 0.439339828220179 -12.56066017177982 -3.175
    vertex 0.75 -12.799038105676658 -3.175
  endloop
endfacet
facet normal -0.6087614290087224 -0.7933533402912337 -0.0
  outer loop
    vertex 0.439339828220179 -12.56066017177982 -3.175
    vertex 0.75 -12.799038105676658 0.0
    vertex 0.439339828220179 -12.56066017177982 0.0
  endloop
endfacet
facet normal -0.3826834323650882 -0.9238795325112874 -0.0
  outer loop
    vertex 1.1117714323462187 -12.9488887394336 0.0
    vertex 0.75 -12.799038105676658 -3.175
    vertex 1.1117714323462187 -12.9488887394336 -3.175
  endloop
endfacet
facet normal -0.3826834323650882 -0.9238795325112874 -0.0
  outer loop
    vertex 0.75 -12.799038105676658 -3.175
    vertex 1.1117714323462187 -12.9488887394336 0.0
    vertex 0.75 -12.799038105676658 0.0
  endloop
endfacet
facet normal -0.13052619222005168 -0.9914448613738105 -0.0
  outer loop
    vertex 1.5 -12.999999999999998 0.0
    vertex 1.1117714323462187 -12.9488887394336 -3.175
    vertex 1.5 -12.999999999999998 -3.175
  endloop
endfacet
facet normal -0.13052619222005168 -0.9914448613738105 -0.0
  outer loop
    vertex 1.1117714323462187 -12.9488887394336 -3.175
    vertex 1.5 -12.999999999999998 0.0
    vertex 1.1117714323462187 -12.9488887394336 0.0
  endloop
endfacet
facet normal 0.0 -0.9999999999999999 0.0
  outer loop
    vertex 84.10000000000001 -12.999999999999998 0.0
    vertex 1.5 -12.999999999999998 -3.175
    vertex 84.10000000000001 -12.999999999999998 -3.175
  endloop
endfacet
facet normal 0.0 -0.9999999999999999 0.0
  outer loop
    vertex 1.5 -12.999999999999998 -3.175
    vertex 84.10000000000001 -12.999999999999998 0.0
    vertex 1.5 -12.999999999999998 0.0
  endloop
endfacet
facet normal 0.1305261922200526 -0.9914448613738102 0.0
  outer loop
    vertex 84.48822856765378 -12.9488887394336 0.0
    vertex 84.10000000000001 -12.999999999999998 -3.175
    vertex 84.48822856765378 -12.9488887394336 -3.175
  endloop
endfacet
facet normal 0.1305261922200526 -0.9914448613738102 0.0
  outer loop
    vertex 84.10000000000001 -12.999999999999998 -3.175
    vertex 84.48822856765378 -12.9488887394336 0.0
    vertex 84.10000000000001 -12.999999999999998 0.0
  endloop
endfacet
facet normal 0.3826834323650971 -0.9238795325112836 0.0
  outer loop
    vertex 84.85 -12.799038105676658 0.0
    vertex 84.48822856765378 -12.9488887394336 -3.175
    vertex 84.85 -12.799038105676658 -3.175
  endloop
endfacet
facet normal 0.3826834323650971 -0.9238795325112836 0.0
  outer loop
    vertex 84.48822856765378 -12.9488887394336 -3.175
    vertex 84.85 -12.799038105676658 0.0
    vertex 84.48822856765378 -12.9488887394336 0.0
  endloop
endfacet
facet normal 0.6087614290087033 -0.7933533402912485 0.0
  outer loop
    vertex 85.16066017177982 -12.56066017177982 0.0
    vertex 84.85 -12.799038105676658 -3.175
    vertex 85.16066017177982 -12.56066017177982 -3.175
  endloop
endfacet
facet normal 0.6087614290087033 -0.7933533402912485 0.0
  outer loop
    vertex 84.85 -12.799038105676658 -3.175
    vertex 85.16066017177982 -12.56066017177982 0.0
    vertex 84.85 -12.799038105676658 0.0
  endloop
endfacet
facet normal 0.793353340291249 -0.6087614290087026 0.0
  outer loop
    vertex 85.39903810567665 -12.249999999999996 -3.175
    vertex 85.16066017177982 -12.56066017177982 0.0
    vertex 85.16066017177982 -12.56066017177982 -3.175
  endloop
endfacet
facet normal 0.793353340291249 -0.6087614290087026 0.0
  outer loop
    vertex 85.16066017177982 -12.56066017177982 0.0
    vertex 85.39903810567665 -12.249999999999996 -3.175
    vertex 85.39903810567665 -12.249999999999996 0.0
  endloop
endfacet
facet normal 0.9238795325112793 -0.382683432365108 0.0
  outer loop
    vertex 85.54888873943361 -11.88822856765378 -3.175
    vertex 85.39903810567665 -12.249999999999996 0.0
    vertex 85.39903810567665 -12.249999999999996 -3.175
  endloop
endfacet
facet normal 0.9238795325112793 -0.382683432365108 0.0
  outer loop
    vertex 85.39903810567665 -12.249999999999996 0.0
    vertex 85.54888873943361 -11.88822856765378 -3.175
    vertex 85.54888873943361 -11.88822856765378 0.0
  endloop
endfacet
facet normal 0.9914448613738114 -0.1305261922200446 0.0
  outer loop
    vertex 85.6 -11.499999999999998 -3.175
    vertex 85.54888873943361 -11.88822856765378 0.0
    vertex 85.54888873943361 -11.88822856765378 -3.175
  endloop
endfacet
facet normal 0.9914448613738114 -0.1305261922200446 0.0
  outer loop
    vertex 85.54888873943361 -11.88822856765378 0.0
    vertex 85.6 -11.499999999999998 -3.175
    vertex 85.6 -11.499999999999998 0.0
  endloop
endfacet
facet normal 1.0 4.2834933912119965e-16 0.0
  outer loop
    vertex 85.59999999999997 67.5 -3.175
    vertex 85.6 -11.499999999999998 0.0
    vertex 85.6 -11.499999999999998 -3.175
  endloop
endfacet
facet normal 1.0 4.2834933912119965e-16 0.0
  outer loop
    vertex 85.6 -11.499999999999998 0.0
    vertex 85.59999999999997 67.5 -3.175
    vertex 85.59999999999997 67.5 0.0
  endloop
endfacet
facet normal 0.9914448613738113 0.13052619222004555 0.0
  outer loop
    vertex 85.54888873943358 67.88822856765378 -3.175
    vertex 85.59999999999997 67.5 0.0
    vertex 85.59999999999997 67.5 -3.175
  endloop
endfacet
facet normal 0.9914448613738113 0.13052619222004555 0.0
  outer loop
    vertex 85.59999999999997 67.5 0.0
    vertex 85.54888873943358 67.88822856765378 -3.175
    vertex 85.54888873943358 67.88822856765378 0.0
  endloop
endfacet
facet normal 0.9238795325112803 0.3826834323651054 0.0
  outer loop
    vertex 85.39903810567662 68.25 -3.175
    vertex 85.54888873943358 67.88822856765378 0.0
    vertex 85.54888873943358 67.88822856765378 -3.175
  endloop
endfacet
facet normal 0.9238795325112803 0.3826834323651054 0.0
  outer loop
    vertex 85.54888873943358 67.88822856765378 0.0
    vertex 85.39903810567662 68.25 -3.175
    vertex 85.39903810567662 68.25 0.0
  endloop
endfacet
facet normal 0.7933533402912517 0.6087614290086991 0.0
  outer loop
    vertex 85.1606601717798 68.56066017177983 -3.175
    vertex 85.39903810567662 68.25 0.0
    vertex 85.39903810567662 68.25 -3.175
  endloop
endfacet
facet normal 0.7933533402912517 0.6087614290086991 0.0
  outer loop
    vertex 85.39903810567662 68.25 0.0
    vertex 85.1606601717798 68.56066017177983 -3.175
    vertex 85.1606601717798 68.56066017177983 0.0
  endloop
endfacet
facet normal 0.608761429008713 0.7933533402912409 0.0
  outer loop
    vertex 84.84999999999998 68.79903810567664 0.0
    vertex 85.1606601717798 68.56066017177983 -3.175
    vertex 84.84999999999998 68.79903810567664 -3.175
  endloop
endfacet
facet normal 0.608761429008713 0.7933533402912409 0.0
  outer loop
    vertex 85.1606601717798 68.56066017177983 -3.175
    vertex 84.84999999999998 68.79903810567664 0.0
    vertex 85.1606601717798 68.56066017177983 0.0
  endloop
endfacet
facet normal 0.3826834323650952 0.9238795325112845 0.0
  outer loop
    vertex 84.48822856765375 68.9488887394336 0.0
    vertex 84.84999999999998 68.79903810567664 -3.175
    vertex 84.48822856765375 68.9488887394336 -3.175
  endloop
endfacet
facet normal 0.3826834323650952 0.9238795325112845 0.0
  outer loop
    vertex 84.84999999999998 68.79903810567664 -3.175
    vertex 84.48822856765375 68.9488887394336 0.0
    vertex 84.84999999999998 68.79903810567664 0.0
  endloop
endfacet
facet normal 0.13052619222004555 0.9914448613738113 0.0
  outer loop
    vertex 84.09999999999997 69.0 0.0
    vertex 84.48822856765375 68.9488887394336 -3.175
    vertex 84.09999999999997 69.0 -3.175
  endloop
endfacet
facet normal 0.13052619222004555 0.9914448613738113 0.0
  outer loop
    vertex 84.48822856765375 68.9488887394336 -3.175
    vertex 84.09999999999997 69.0 0.0
    vertex 84.48822856765375 68.9488887394336 0.0
  endloop
endfacet
facet normal -1.0 -2.8199664825478977e-16 -0.0
  outer loop
    vertex 73.59999999999998 48.0 0.0
    vertex 73.6 8.000000000000002 -3.175
    vertex 73.6 8.000000000000002 0.0
  endloop
endfacet
facet normal -1.0 -2.8199664825478977e-16 -0.0
  outer loop
    vertex 73.6 8.000000000000002 -3.175
    vertex 73.59999999999998 48.0 0.0
    vertex 73.59999999999998 48.0 -3.175
  endloop
endfacet
facet normal 0.0 0.9999999999999999 0.0
  outer loop
    vertex 42.59999999999999 8.000000000000002 0.0
    vertex 73.6 8.000000000000002 -3.175
    vertex 42.59999999999999 8.000000000000002 -3.175
  endloop
endfacet
facet normal 0.0 0.9999999999999999 0.0
  outer loop
    vertex 73.6 8.000000000000002 -3.175
    vertex 42.59999999999999 8.000000000000002 0.0
    vertex 73.6 8.000000000000002 0.0
  endloop
endfacet
facet normal 1.0 -0.0 0.0
  outer loop
    vertex 42.59999999999999 48.0 -3.175
    vertex 42.59999999999999 8.000000000000002 0.0
    vertex 42.59999999999999 8.000000000000002 -3.175
  endloop
endfacet
facet normal 1.0 -0.0 0.0
  outer loop
    vertex 42.59999999999999 8.000000000000002 0.0
    vertex 42.59999999999999 48.0 -3.175
    vertex 42.59999999999999 48.0 0.0
  endloop
endfacet
facet normal 0.0 -1.0 0.0
  outer loop
    vertex 73.59999999999998 48.0 0.0
    vertex 42.59999999999999 48.0 -3.175
    vertex 73.59999999999998 48.0 -3.175
  endloop
endfacet
facet normal 0.0 -1.0 0.0
  outer loop
    vertex 42.59999999999999 48.0 -3.175
    vertex 73.59999999999998 48.0 0.0
    vertex 42.59999999999999 48.0 0.0
  endloop
endfacet
facet normal 0.0 -1.0 0.0
  outer loop
    vertex 37.59999999999998 63.99999999999999 0.0
    vertex 4.999999999999998 63.99999999999999 -3.175
    vertex 37.59999999999998 63.99999999999999 -3.175
  endloop
endfacet
facet normal 0.0 -1.0 0.0
  outer loop
    vertex 4.999999999999998 63.99999999999999 -3.175
    vertex 37.59999999999998 63.99999999999999 0.0
    vertex 4.999999999999998 63.99999999999999 0.0
  endloop
endfacet
facet normal -1.0 -0.0 -0.0
  outer loop
    vertex 37.59999999999998 63.99999999999999 0.0
    vertex 37.59999999999998 -8.0 -3.175
    vertex 37.59999999999998 -8.0 0.0
  endloop
endfacet
facet normal -1.0 -0.0 -0.0
  outer loop
    vertex 37.59999999999998 -8.0 -3.175
    vertex 37.59999999999998 63.99999999999999 0.0
    vertex 37.59999999999998 63.99999999999999 -3.175
  endloop
endfacet
facet normal 1.2975305901294011e-16 1.0 0.0
  outer loop
    vertex 4.999999999999998 -7.9999999999999964 0.0
    vertex 37.59999999999998 -8.0 -3.175
    vertex 4.999999999999998 -7.9999999999999964 -3.175
  endloop
endfacet
facet normal 1.2975305901294011e-16 1.0 0.0
  outer loop
    vertex 37.59999999999998 -8.0 -3.175
    vertex 4.999999999999998 -7.9999999999999964 0.0
    vertex 37.59999999999998 -8.0 0.0
  endloop
endfacet
facet normal 1.0 -0.0 0.0
  outer loop
    vertex 4.999999999999998 63.99999999999999 -3.175
    vertex 4.999999999999998 -7.9999999999999964 0.0
    vertex 4.999999999999998 -7.9999999999999964 -3.175
  endloop
endfacet
facet normal 1.0 -0.0 0.0
  outer loop
    vertex 4.999999999999998 -7.9999999999999964 0.0
    vertex 4.999999999999998 63.99999999999999 -3.175
    vertex 4.999999999999998 63.99999999999999 0.0
  endloop
endfacet
endsolid speaker001
